<?xml version="1.0" standalone="no"?>
<!DOCTYPE svg PUBLIC "-//W3C//DTD SVG 1.1//EN" "http://www.w3.org/Graphics/SVG/1.1/DTD/svg11.dtd" >
<svg xmlns="http://www.w3.org/2000/svg" xmlns:xlink="http://www.w3.org/1999/xlink" version="1.1">
<metadata></metadata>
<defs>
<font id="gobold_cyr-latregular" horiz-adv-x="0" >
<font-face units-per-em="2048" ascent="1638" descent="-410" />
<missing-glyph horiz-adv-x="508" />
<glyph unicode="&#xd;" horiz-adv-x="569" />
<glyph unicode=" "  horiz-adv-x="508" />
<glyph unicode="&#x09;" horiz-adv-x="508" />
<glyph unicode="&#xa0;" horiz-adv-x="508" />
<glyph unicode="!" horiz-adv-x="565" d="M120 0v325h325v-325h-325zM120 1962h325l-21 -1432h-283z" />
<glyph unicode="&#x22;" horiz-adv-x="968" d="M120 1963h296l-34 -652h-228zM552 1963h296l-34 -652h-228z" />
<glyph unicode="#" horiz-adv-x="1349" d="M80 730v153h204l51 257h-213v153h244l133 670h237l-133 -670h245l133 670h237l-133 -670h184v-153h-215l-51 -257h224v-153h-255l-145 -730h-237l145 730h-245l-145 -730h-237l145 730h-173zM521 883h245l51 257h-245z" />
<glyph unicode="$" horiz-adv-x="1053" d="M120 413v263h283v-263q0 -133 123 -133t123 133v223q0 143 -264 332q-265 190 -265 461v184q0 358 290 404v176h232v-176q291 -46 291 -404v-264h-284v264q0 132 -122 133h-2q-122 0 -122 -133v-178q0 -132 265 -321t265 -453v-248q0 -359 -291 -404v-239h-232v239 q-290 46 -290 404z" />
<glyph unicode="%" horiz-adv-x="1697" d="M125 1079v704q0 242 239 242q238 0 238 -242v-704q0 -242 -238 -242q-239 0 -239 242zM291 1079q0 -78 73 -78q72 0 72 78v704q0 78 -72 78h-2q-71 0 -71 -78v-704zM383 0l723 1963h175l-722 -1963h-176zM1095 243v704q0 242 238 242q239 0 239 -242v-704 q0 -242 -239 -242h-2q-236 0 -236 242zM1261 243q0 -78 72 -78q73 0 73 78v704q0 78 -72 78h-2q-71 0 -71 -78v-704z" />
<glyph unicode="&#x26;" horiz-adv-x="1183" d="M120 413v327q0 193 155 273q-155 80 -155 273v295q0 383 317 410q43 3 88 3q38 0 78 -2q330 -22 330 -411v-84h-283v84q0 120 -70 131q-24 4 -51 4q-23 0 -48 -3q-78 -9 -78 -132v-295q0 -94 77 -125q20 -8 46 -9h124v134h283v-134h180v-279h-180v-460q0 -396 -345 -411 q-34 -1 -65 -1q-61 0 -106 5q-297 35 -297 407zM403 413q0 -105 44 -123q24 -11 77 -11q12 0 26 1q100 4 100 133v460h-124q-26 -1 -46 -9q-77 -30 -77 -124v-327z" />
<glyph unicode="'" horiz-adv-x="536" d="M120 1963h296l-34 -652h-228z" />
<glyph unicode="(" horiz-adv-x="544" d="M120 166v1632q0 407 394 412v-232q-111 -3 -111 -134v-1725q0 -130 111 -133v-233q-394 5 -394 413z" />
<glyph unicode=")" horiz-adv-x="544" d="M30 -14q111 3 111 133v1725q0 131 -111 134v232q394 -5 394 -412v-1632q0 -408 -394 -413v233z" />
<glyph unicode="*" horiz-adv-x="1012" d="M120 1679q0 27 11 61q30 97 98 97q30 0 68 -19q61 -32 178 -159q-88 160 -96 226q-1 12 -1 23q0 104 126 105h4q125 0 125 -99q0 -16 -3 -34q-12 -69 -96 -219q125 133 186 161q33 16 61 16q67 0 99 -95q12 -36 12 -65q0 -81 -100 -96q-16 -2 -37 -2q-70 0 -201 26 q166 -78 211 -127q38 -40 38 -79q0 -51 -64 -98q-50 -37 -90 -37q-55 0 -90 71q-31 62 -51 234q-23 -182 -56 -240q-35 -64 -89 -64q-38 0 -87 34q-67 48 -67 98q0 41 44 84q49 49 206 120q-130 -25 -200 -25q-27 0 -45 4q-94 18 -94 98z" />
<glyph unicode="+" horiz-adv-x="1047" d="M120 865v233h288v287h232v-287h287v-233h-287v-287h-232v287h-288z" />
<glyph unicode="," horiz-adv-x="591" d="M120 0v325h351v-287l-108 -365h-183l58 327h-118z" />
<glyph unicode="-" horiz-adv-x="786" d="M50 841v233h686v-233h-686z" />
<glyph unicode="." horiz-adv-x="565" d="M120 0v325h325v-325h-325z" />
<glyph unicode="/" horiz-adv-x="748" d="M60 0l391 1963h237l-391 -1963h-237z" />
<glyph unicode="0" horiz-adv-x="1053" d="M120 381v1200q0 413 406 413q407 0 407 -413v-1200q0 -412 -407 -412q-406 0 -406 412zM403 381q0 -133 123 -133q124 0 124 133v1200q0 133 -123 133h-2q-122 0 -122 -133v-1200z" />
<glyph unicode="1" horiz-adv-x="1073" d="M130 0v279h265v1404h-265v279h548v-1683h265v-279h-813z" />
<glyph unicode="2" horiz-adv-x="1073" d="M130 0v421q0 265 264 454q265 189 266 321v385q0 133 -122 133h-2q-123 0 -123 -133v-263h-283v263q0 413 406 413q407 0 407 -413v-392q0 -270 -265 -460q-265 -189 -265 -332v-118h530v-279h-813z" />
<glyph unicode="3" horiz-adv-x="1073" d="M130 382v263h280v-264q0 -137 126 -137q127 0 127 137v358q0 107 -45 127q-24 10 -74 10h-96v279h118q40 0 60 12q37 21 37 120v292q0 107 -45 127q-24 10 -77 10q-14 0 -29 -1q-102 -4 -102 -136v-261h-280v263q0 284 165 369q115 60 236 60q112 0 229 -52 q183 -79 183 -377v-296q0 -193 -155 -273q155 -80 155 -273v-357q0 -256 -132 -350q-84 -59 -260 -63h-24q-156 0 -243 50q-154 88 -154 363z" />
<glyph unicode="4" horiz-adv-x="1073" d="M52 481v248l496 1233h361v-1202h109v-279h-109v-481h-283v481h-574zM331 760h295v749z" />
<glyph unicode="5" horiz-adv-x="1073" d="M130 381v232h283v-232q0 -129 99 -133h20q59 0 84 10q44 19 44 123v557q0 104 -44 123q-24 11 -77 11q-13 0 -27 -1q-86 -4 -96 -77l-3 -79h-283l42 1047h771v-279h-499l-20 -422q72 83 196 83q17 0 35 -2q148 -13 225 -119q63 -86 63 -285v-557q0 -372 -298 -407 q-45 -5 -105 -5q-31 0 -65 1q-345 15 -345 411z" />
<glyph unicode="6" horiz-adv-x="1073" d="M130 381v1200q0 413 406 413q407 0 407 -413v-263h-283v263q0 133 -123 133h-2q-122 0 -122 -133v-477q79 71 195 71q21 0 43 -2q136 -14 213 -97q79 -85 79 -305v-390q0 -412 -407 -412q-406 0 -406 412zM413 381q0 -133 123 -133q124 0 124 133v390q0 105 -44 123 q-24 11 -77 11q-13 0 -27 -1q-99 -4 -99 -133v-390z" />
<glyph unicode="7" horiz-adv-x="1073" d="M121 1683v279h837v-201l-396 -1761h-290l378 1683h-529z" />
<glyph unicode="8" horiz-adv-x="1073" d="M130 382v357q0 193 155 273q-155 80 -155 273v296q0 284 165 369q115 60 236 60q112 0 229 -52q183 -79 183 -377v-296q0 -193 -155 -273q155 -80 155 -273v-357q0 -256 -132 -350q-84 -59 -260 -63h-24q-156 0 -243 50q-154 88 -154 363zM410 381q0 -137 126 -137 q127 0 127 137v358q0 107 -45 127q-24 10 -77 10q-14 0 -29 -1q-102 -4 -102 -136v-358zM410 1287q0 -137 126 -137q127 0 127 137v292q0 107 -45 127q-24 10 -77 10q-14 0 -29 -1q-102 -4 -102 -136v-292z" />
<glyph unicode="9" horiz-adv-x="1073" d="M130 381v264h283v-264q0 -132 123 -133h2q122 0 122 133v478q-81 -72 -198 -72q-19 0 -40 2q-136 14 -213 97q-79 86 -79 305v390q0 412 407 413q406 0 406 -413v-1200q0 -412 -407 -412q-406 0 -406 412zM413 1191q0 -104 44 -123q23 -10 75 -10q13 0 28 1 q100 3 100 132v390q0 133 -123 133q-124 0 -124 -133v-390z" />
<glyph unicode=":" horiz-adv-x="564" d="M120 0v325h324v-325h-324zM120 1005v324h324v-324h-324z" />
<glyph unicode=";" horiz-adv-x="591" d="M120 0v325h351v-287l-108 -365h-183l58 327h-118zM120 1005v324h325v-324h-325z" />
<glyph unicode="&#x3c;" horiz-adv-x="1047" d="M120 829v291l807 452v-275l-587 -320l587 -311v-274z" />
<glyph unicode="=" horiz-adv-x="1047" d="M120 633v232h807v-232h-807zM120 1096v233h807v-233h-807z" />
<glyph unicode="&#x3e;" horiz-adv-x="1047" d="M120 392v274l587 311l-587 320v275l807 -452v-291z" />
<glyph unicode="?" horiz-adv-x="1053" d="M120 1318v263q0 413 407 413q406 0 406 -413v-197q0 -249 -199 -447t-199 -345v-45h-283v69q0 245 199 442t199 333v190q0 133 -122 133h-2q-123 0 -123 -133v-263h-283zM236 0v325h325v-325h-325z" />
<glyph unicode="@" horiz-adv-x="1483" d="M130 596v801q0 608 612 608q611 0 611 -595v-107h-1v-79q0 -272 -267 -272h-109v-344q0 -272 -268 -272q-267 0 -267 272v257q0 271 267 271h82v262q0 87 -81 87h-2q-80 0 -80 -87v-70h-186v70q0 271 267 271q268 0 268 -271v-262h109q81 0 81 88v186q0 412 -424 412 q-425 0 -425 -425v-801q0 -412 425 -412q424 0 424 424v43h187v-43q0 -607 -611 -607q-612 0 -612 595zM611 608q0 -88 81 -88q82 0 82 88v344l-82 1q-81 0 -81 -88v-257z" />
<glyph unicode="A" horiz-adv-x="1051" d="M40 0l92 693l200 1269h388l199 -1266l92 -696h-286l-55 416h-289l-56 -416h-285zM417 696h216l-108 816z" />
<glyph unicode="B" horiz-adv-x="1043" d="M130 0v1962l436 -1q377 0 377 -412v-295q0 -193 -155 -273q155 -80 155 -273v-296q0 -411 -377 -411q-6 0 -18 -1h-418zM413 279h124q123 0 123 133v296q0 94 -77 124q-22 9 -81 9h-89v-562zM413 1121h89q59 0 81 8q77 31 77 125v295q0 134 -123 134h-124v-562z" />
<glyph unicode="C" horiz-adv-x="1023" d="M110 381v1200q0 412 406 412q407 0 407 -412v-264h-283v264q0 132 -123 133h-2q-122 0 -122 -133v-1200q0 -133 123 -133q124 0 124 133v264h283v-264q0 -412 -407 -413q-406 0 -406 413z" />
<glyph unicode="D" horiz-adv-x="1053" d="M130 0v1962l436 -1q377 0 377 -412v-1137q0 -411 -377 -411q-6 0 -18 -1h-418zM413 279h124q123 0 123 133v1137q0 134 -123 134h-124v-1404z" />
<glyph unicode="E" horiz-adv-x="944" d="M130 0v1962h734v-279h-451v-562h388v-280h-388v-562h451v-279h-734z" />
<glyph unicode="F" horiz-adv-x="924" d="M130 0v1962h734v-279h-451v-562h388v-280h-388v-841h-283z" />
<glyph unicode="G" horiz-adv-x="1033" d="M110 381v1200q0 412 406 412q407 0 407 -412v-264h-283v264q0 132 -123 133h-2q-122 0 -122 -133v-1200q0 -133 123 -133q124 0 124 133v460h-143v280h426v-740q0 -412 -407 -413q-406 0 -406 413z" />
<glyph unicode="H" horiz-adv-x="1073" d="M130 0v1962h283v-841h247v841h283v-1962h-283v841h-247v-841h-283z" />
<glyph unicode="I" horiz-adv-x="553" d="M135 0v1962h283v-1962h-283z" />
<glyph unicode="J" horiz-adv-x="973" d="M30 381v116h283v-116q0 -133 124 -133q123 0 123 133v1581h283v-1581q0 -413 -406 -413q-407 1 -407 413z" />
<glyph unicode="K" horiz-adv-x="1057" d="M130 0v1962h283v-873l301 873h303l-374 -981l374 -981h-303l-301 872v-872h-283z" />
<glyph unicode="L" horiz-adv-x="904" d="M130 0v1962h283v-1683h451v-279h-734z" />
<glyph unicode="M" horiz-adv-x="1418" d="M130 0v1962h283l333 -1344l329 1344h283v-1962h-271v1101l-242 -1101h-192l-249 1101v-1101h-274z" />
<glyph unicode="N" horiz-adv-x="1073" d="M130 0v1962h283l268 -1138v1138h262v-1962h-283l-258 1102v-1102h-272z" />
<glyph unicode="O" horiz-adv-x="1033" d="M110 381v1200q0 412 406 412q407 0 407 -412v-1200q0 -412 -407 -413q-406 0 -406 413zM393 381q0 -133 123 -133q124 0 124 133v1200q0 132 -123 133h-2q-122 0 -122 -133v-1200z" />
<glyph unicode="P" horiz-adv-x="999" d="M130 0v1962l412 -1q377 0 377 -412v-295q0 -304 -271 -392q-65 -21 -189 -21h-46v-841h-283zM413 1121h65q59 0 81 8q77 31 77 125v295q0 134 -123 134h-100v-562z" />
<glyph unicode="Q" horiz-adv-x="1033" d="M110 381v1200q0 412 406 412q407 0 407 -412v-1200q0 -368 -310 -407q5 -64 310 -66v-236q-251 0 -345 49q-122 62 -125 250q-343 25 -343 410zM393 381q0 -133 123 -133q124 0 124 133v1200q0 132 -123 133h-2q-122 0 -122 -133v-1200z" />
<glyph unicode="R" horiz-adv-x="1044" d="M130 0v1962l412 -1q377 0 377 -412v-295q0 -259 -223 -341l318 -913h-310l-255 863l-36 -5v-858h-283zM413 1121h65q59 0 81 8q77 31 77 125v295q0 134 -123 134h-100v-562z" />
<glyph unicode="S" horiz-adv-x="1033" d="M110 381v264h283v-264q0 -133 124 -133q123 0 123 133v224q0 142 -265 332q-265 189 -265 460v184q0 412 406 412q407 0 407 -412v-264h-283v264q0 132 -123 133h-2q-122 0 -122 -133v-178q0 -131 265 -321q265 -189 265 -453v-248q0 -413 -406 -413q-407 1 -407 413z " />
<glyph unicode="T" horiz-adv-x="913" d="M50 1683v279h813v-279h-265v-1683h-283v1683h-265z" />
<glyph unicode="U" horiz-adv-x="1053" d="M120 381v1581h283v-1581q0 -133 123 -133q124 0 124 133v1581h283v-1581q0 -412 -407 -413q-406 0 -406 413z" />
<glyph unicode="V" horiz-adv-x="1051" d="M40 1962h286l199 -1512l200 1512h286l-92 -696l-199 -1266h-388l-200 1268z" />
<glyph unicode="W" horiz-adv-x="1732" d="M40 1962h285l200 -1512l200 1512h281l200 -1512l200 1512h286l-92 -696l-199 -1266h-388l-147 1013l-146 -1013h-388l-200 1268z" />
<glyph unicode="X" horiz-adv-x="1017" d="M40 0l326 981l-326 981h285l184 -552l183 552h285l-326 -981l326 -981h-285l-183 552l-184 -552h-285z" />
<glyph unicode="Y" horiz-adv-x="1066" d="M40 1962h300l193 -765l193 765h300l-343 -1113l-8 -24v-825h-283v825l-9 24z" />
<glyph unicode="Z" horiz-adv-x="880" d="M80 0v170l384 1513h-371v279h690v-170l-384 -1513h401v-279h-720z" />
<glyph unicode="[" horiz-adv-x="547" d="M130 -247v2457h387v-232h-154v-1992h154v-233h-387z" />
<glyph unicode="\" horiz-adv-x="748" d="M60 1963h237l391 -1963h-237z" />
<glyph unicode="]" horiz-adv-x="547" d="M30 -14h154v1992h-154v232h387v-2457h-387v233z" />
<glyph unicode="^" horiz-adv-x="1157" d="M100 1172l351 807h255l351 -807h-254l-225 517l-224 -517h-254z" />
<glyph unicode="_" horiz-adv-x="1032" d="M0 -107h1032v-211h-1032v211z" />
<glyph unicode="`" horiz-adv-x="756" d="M130 1982v76h222l274 -253h-222z" />
<glyph unicode="a" horiz-adv-x="1051" d="M40 0l92 611l200 1118h388l199 -1115l92 -614h-286l-55 368h-289l-56 -368h-285zM417 614h216l-108 718z" />
<glyph unicode="b" horiz-adv-x="1043" d="M130 0v1729h418q12 -1 18 -1q377 0 377 -362v-261q0 -170 -155 -240q155 -70 155 -241v-260q0 -363 -377 -363h-18zM413 246h124q123 0 123 118v260q0 83 -77 110q-22 8 -81 8h-89v-496zM413 988h89q59 0 81 8q77 27 77 109v261q0 117 -123 117h-124v-495z" />
<glyph unicode="c" horiz-adv-x="1023" d="M110 336v1057q0 364 406 364q407 0 407 -364v-232h-283v232q0 117 -123 118q-124 0 -124 -118v-1057q0 -117 123 -117q124 0 124 117v233h283v-233q0 -363 -407 -363q-406 0 -406 363z" />
<glyph unicode="d" horiz-adv-x="1053" d="M130 0v1729h418q12 -1 18 -1q377 0 377 -362v-1002q0 -363 -377 -363h-18zM413 246h124q123 0 123 118v1002q0 117 -123 117h-124v-1237z" />
<glyph unicode="e" horiz-adv-x="924" d="M130 0v1729h734v-246h-451v-495h388v-246h-388v-496h451v-246h-734z" />
<glyph unicode="f" horiz-adv-x="924" d="M130 0v1729h734v-246h-451v-495h388v-246h-388v-742h-283z" />
<glyph unicode="g" horiz-adv-x="1033" d="M110 336v1057q0 364 406 364q407 0 407 -364v-232h-283v232q0 117 -123 118q-124 0 -124 -118v-1057q0 -117 123 -117q124 0 124 117v406h-143v246h426v-652q0 -363 -407 -363q-406 0 -406 363z" />
<glyph unicode="h" horiz-adv-x="1073" d="M130 0v1729h283v-741h247v741h283v-1729h-283v742h-247v-742h-283z" />
<glyph unicode="i" horiz-adv-x="548" d="M135 0v1729h283v-1729h-283z" />
<glyph unicode="j" horiz-adv-x="973" d="M30 336v102h283v-102q0 -117 124 -117q123 0 123 117v1393h283v-1393q0 -363 -406 -363q-407 0 -407 363z" />
<glyph unicode="k" horiz-adv-x="1057" d="M130 0v1729h283v-769l301 769h303l-374 -864l374 -865h-303l-301 769v-769h-283z" />
<glyph unicode="l" horiz-adv-x="904" d="M130 0v1729h283v-1483h451v-246h-734z" />
<glyph unicode="m" horiz-adv-x="1418" d="M130 0v1729h283l333 -1184l329 1184h283v-1729h-271v971l-242 -971h-192l-249 971v-971h-274z" />
<glyph unicode="n" horiz-adv-x="1073" d="M130 0v1729h283l268 -1003v1003h262v-1729h-283l-258 972v-972h-272z" />
<glyph unicode="o" horiz-adv-x="1033" d="M110 336v1057q0 364 406 364q407 0 407 -364v-1057q0 -363 -407 -363q-406 0 -406 363zM393 336q0 -117 123 -117q124 0 124 117v1057q0 117 -123 118q-124 0 -124 -118v-1057z" />
<glyph unicode="p" horiz-adv-x="999" d="M130 0v1729h394q12 -1 18 -1q377 0 377 -362v-261q0 -268 -271 -345q-65 -18 -189 -18h-46v-742h-283zM413 988h65q59 0 81 8q77 27 77 109v261q0 117 -123 117h-100v-495z" />
<glyph unicode="q" horiz-adv-x="1033" d="M110 336v1057q0 364 406 364q407 0 407 -364v-1057q0 -324 -310 -358q5 -57 310 -59v-207q-251 0 -345 42q-122 56 -125 221q-343 22 -343 361zM393 336q0 -117 123 -117q124 0 124 117v1057q0 117 -123 118q-124 0 -124 -118v-1057z" />
<glyph unicode="r" horiz-adv-x="1044" d="M130 0v1729h394q12 -1 18 -1q377 0 377 -362v-261q0 -228 -223 -300l318 -805h-310l-255 761l-36 -5v-756h-283zM413 988h65q59 0 81 8q77 27 77 109v261q0 117 -123 117h-100v-495z" />
<glyph unicode="s" horiz-adv-x="1033" d="M110 336v233h283v-233q0 -117 124 -117q123 0 123 117v197q0 126 -265 293t-265 405v162q0 364 406 364q407 0 407 -364v-232h-283v232q0 117 -123 118q-124 0 -124 -118v-156q0 -116 265 -283q265 -166 265 -399v-219q0 -363 -406 -363q-407 0 -407 363z" />
<glyph unicode="t" horiz-adv-x="913" d="M50 1483v246h813v-246h-265v-1483h-283v1483h-265z" />
<glyph unicode="u" horiz-adv-x="1053" d="M120 336v1393h283v-1393q0 -117 123 -117q124 0 124 117v1393h283v-1393q0 -363 -407 -363q-406 0 -406 363z" />
<glyph unicode="v" horiz-adv-x="1051" d="M40 1729h286l199 -1332l200 1332h286l-92 -613l-199 -1116h-388l-200 1118z" />
<glyph unicode="w" horiz-adv-x="1732" d="M40 1729h285l200 -1332l200 1332h281l200 -1332l200 1332h286l-92 -613l-199 -1116h-388l-147 893l-146 -893h-388l-200 1118z" />
<glyph unicode="x" horiz-adv-x="1017" d="M40 0l326 865l-326 864h285l184 -487l183 487h285l-326 -864l326 -865h-285l-183 487l-184 -487h-285z" />
<glyph unicode="y" horiz-adv-x="1066" d="M40 1729h300l193 -673l193 673h300l-343 -981l-8 -21v-727h-283v727l-9 21z" />
<glyph unicode="z" horiz-adv-x="880" d="M80 0v150l384 1333h-371v246h690v-150l-384 -1333h401v-246h-720z" />
<glyph unicode="{" horiz-adv-x="545" d="M10 865v233q111 3 111 133v567q0 407 394 412v-232q-111 -3 -111 -134v-566q0 -199 -79 -296q79 -98 79 -297v-566q0 -130 111 -133v-233q-394 5 -394 413v566q0 131 -111 133z" />
<glyph unicode="|" horiz-adv-x="512" d="M140 -327v2617h232v-2617h-232z" />
<glyph unicode="}" horiz-adv-x="545" d="M30 -14q111 3 111 133v566q0 199 79 297q-79 97 -79 296v566q0 131 -111 134v232q394 -5 394 -412v-567q0 -130 111 -133v-233q-111 -2 -111 -133v-566q0 -408 -394 -413v233z" />
<glyph unicode="~" horiz-adv-x="1100" d="M100 940l54 83q99 154 232 154h10q88 -4 224 -106q68 -51 112 -51q31 0 50 24l62 78l156 -124l-62 -78q-90 -114 -204 -114h-12q-88 4 -222 105q-79 60 -96 63q-4 1 -9 1q-34 0 -73 -60l-54 -84z" />
<glyph unicode="&#xa1;" horiz-adv-x="565" d="M120 -233l21 1432h283l21 -1432h-325zM120 1404v325h325v-325h-325z" />
<glyph unicode="&#xa2;" horiz-adv-x="1073" d="M120 -318l113 372q-113 90 -113 282v1057q0 364 406 364q128 0 216 -36l71 231l140 -9l-94 -306q74 -89 74 -244v-232h-219l-279 -914q30 -28 91 -28q124 0 124 117v233h283v-233q0 -363 -407 -363q-96 0 -169 20l-98 -320zM403 609l246 805q-11 96 -122 97 q-124 0 -124 -118v-784z" />
<glyph unicode="&#xa3;" horiz-adv-x="1126" d="M60 0v279h69q124 0 124 134v505h-193v158h193v505q0 413 406 413q407 0 407 -413v-263h-283v263q0 133 -123 133h-2q-122 0 -122 -133v-505h331v-158h-331v-366q0 -177 -62 -273h513v-279h-927z" />
<glyph unicode="&#xa4;" horiz-adv-x="1398" d="M130 574l169 168q-6 48 -6 106v267q0 48 4 89l-167 167l171 170l100 -100q96 87 298 87t299 -87l100 100l170 -170l-167 -167q5 -41 5 -89v-267q0 -57 -7 -106l169 -168l-170 -171l-110 111q-97 -78 -289 -78t-288 77l-110 -110zM576 848q0 -133 123 -133q124 0 124 133 v267q0 132 -123 133h-2q-122 0 -122 -133v-267z" />
<glyph unicode="&#xa5;" horiz-adv-x="1186" d="M100 1962h300l193 -764l193 764h300l-304 -986h215v-158h-262v-159h262v-159h-262v-500h-283v500h-262v159h262v159h-262v158h214z" />
<glyph unicode="&#xa6;" horiz-adv-x="512" d="M140 0v784h232v-784h-232zM140 986v743h232v-743h-232z" />
<glyph unicode="&#xa7;" horiz-adv-x="1053" d="M120 908q0 273 188 346q-188 126 -188 384q0 356 403 356q386 0 386 -356v-100h-283v100q0 115 -112 115q-111 0 -111 -115q0 -180 265 -330t265 -472q0 -285 -241 -340q241 -148 241 -443q0 -380 -404 -380q-386 0 -386 380v106h283v-106q0 -123 113 -123q110 0 110 123 q0 192 -264 352q-265 159 -265 503zM386 855q0 -144 133 -144q134 0 134 144v41q0 143 -133 144h-2q-132 0 -132 -144v-41z" />
<glyph unicode="&#xa8;" horiz-adv-x="899" d="M130 1806v242h242v-242h-242zM526 1806v242h243v-242h-243z" />
<glyph unicode="&#xa9;" horiz-adv-x="1463" d="M120 596v801q0 608 611 608q612 0 612 -595v-802q0 -607 -612 -607q-611 0 -611 595zM307 596q0 -412 424 -412q425 0 425 424v802q0 412 -424 412q-425 0 -425 -425v-801zM463 604v798q0 274 270 274q271 0 271 -274v-77h-189v77q0 88 -81 89q-83 0 -83 -89v-798 q0 -89 82 -89t82 89v76h189v-76q0 -275 -271 -275q-270 0 -270 275z" />
<glyph unicode="&#xaa;" horiz-adv-x="761" d="M60 925l61 367l132 670h256l131 -669l61 -368h-189l-36 221h-191l-37 -221h-188zM67 521v193h619v-193h-619zM309 1293h142l-71 431z" />
<glyph unicode="&#xab;" horiz-adv-x="1305" d="M130 1002l556 507v-330l-224 -190l224 -184v-320zM619 1002l556 507v-330l-224 -190l224 -184v-320z" />
<glyph unicode="&#xac;" horiz-adv-x="1067" d="M130 865v233h807v-520h-232v287h-575z" />
<glyph unicode="&#xad;" horiz-adv-x="786" d="M50 841v233h686v-233h-686z" />
<glyph unicode="&#xae;" horiz-adv-x="1463" d="M120 596v801q0 608 611 608q612 0 612 -595v-802q0 -607 -612 -607q-611 0 -611 595zM307 596q0 -412 424 -412q425 0 425 424v802q0 412 -424 412q-425 0 -425 -425v-801zM458 350v1306l278 -1h12q251 0 251 -274v-197q0 -128 -103 -181q103 -53 103 -182v-471h-188v471 q0 62 -51 83q-15 6 -55 6h-59v-560h-188zM646 1096h59q40 0 55 6q51 20 51 82v197q0 89 -82 89h-83v-374z" />
<glyph unicode="&#xaf;" horiz-adv-x="1131" d="M-31 1566v129h1193v-129h-1193z" />
<glyph unicode="&#xb0;" horiz-adv-x="877" d="M130 1741q0 308 308 308q309 0 309 -308q0 -309 -309 -309q-308 0 -308 309zM313 1741q0 -126 125 -126q126 0 126 126q0 125 -126 125q-125 0 -125 -125z" />
<glyph unicode="&#xb1;" horiz-adv-x="1047" d="M120 160v212h805v-212h-805zM120 865v233h288v287h232v-287h287v-233h-287v-287h-232v287h-288z" />
<glyph unicode="&#xb2;" horiz-adv-x="674" d="M100 831v246q0 154 154 265q154 110 155 187v224q0 78 -71 78h-1q-72 0 -72 -78v-153h-165v153q0 241 237 241t237 -241v-228q0 -158 -155 -269q-154 -110 -154 -193v-69h309v-163h-474z" />
<glyph unicode="&#xb3;" horiz-adv-x="679" d="M100 1051v155h165v-156q0 -80 74 -80q75 0 75 80v211q0 63 -26 75q-15 6 -44 6h-57v164h70q23 0 35 7q22 13 22 71v172q0 63 -26 75q-15 6 -46 6q-8 0 -17 -1q-60 -2 -60 -80v-154h-165v155q0 168 97 218q68 35 139 35q66 0 135 -31q108 -46 108 -222v-174 q0 -114 -91 -161q91 -47 91 -161v-210q0 -151 -78 -206q-49 -35 -153 -38h-14q-92 0 -143 30q-91 52 -91 214z" />
<glyph unicode="&#xb4;" horiz-adv-x="756" d="M130 1805l274 253h222v-76l-274 -177h-222z" />
<glyph unicode="&#xb5;" horiz-adv-x="1063" d="M130 -327v1962h283v-1255q0 -132 123 -132q124 0 124 133v1254h283v-1254q0 -373 -319 -408q-19 -2 -37 -2q-93 0 -174 53v-351h-283z" />
<glyph unicode="&#xb6;" horiz-adv-x="1170" d="M100 1310v354q0 199 71 255q55 44 244 44h625v-1963h-201v1762h-223v-1762h-201v1021q-194 0 -246 39q-69 52 -69 250z" />
<glyph unicode="&#xb7;" horiz-adv-x="508" d="M120 843v276h276v-276h-276z" />
<glyph unicode="&#xb8;" horiz-adv-x="634" d="M177 -226h118v-29q0 -15 20 -15t20 15v99q0 17 -18 18h-2q-17 0 -24 -17h-113l31 156h121l-31 -87q37 20 69 20q31 0 57 -20q28 -20 28 -70v-99q0 -85 -103 -93q-15 -2 -34 -2q-10 0 -20 1q-119 3 -119 94v29z" />
<glyph unicode="&#xb9;" horiz-adv-x="1073" d="M130 830v161h153v810h-153v161h316v-971h153v-161h-469z" />
<glyph unicode="&#xba;" horiz-adv-x="777" d="M120 1110v634q0 218 268 218q269 0 269 -218v-634q0 -218 -269 -218q-268 0 -268 218zM130 506v175h516v-175h-516zM307 1110q0 -71 81 -71q82 0 82 71v634q0 70 -81 71q-82 0 -82 -71v-634z" />
<glyph unicode="&#xbb;" horiz-adv-x="1305" d="M130 485v320l224 184l-224 190v330l556 -507zM619 485v320l224 184l-224 190v330l556 -507z" />
<glyph unicode="&#xbc;" horiz-adv-x="1609" d="M120 830v161h153v810h-153v161h316v-971h153v-161h-469zM439 0l723 1963h175l-722 -1963h-176zM955 276v142l284 707h207v-689h63v-160h-63v-276h-162v276h-329zM1115 436h169v429z" />
<glyph unicode="&#xbd;" horiz-adv-x="1685" d="M60 830v161h153v810h-153v161h316v-971h153v-161h-469zM379 0l723 1963h175l-722 -1963h-176zM1111 0v246q0 154 154 265q154 110 155 187v224q0 78 -71 78h-1q-72 0 -72 -78v-153h-165v153q0 241 237 241t237 -241v-228q0 -158 -155 -269q-154 -110 -154 -193v-69h309 v-163h-474z" />
<glyph unicode="&#xbe;" horiz-adv-x="1549" d="M100 1051v155h165v-156q0 -80 74 -80q75 0 75 80v211q0 63 -26 75q-15 6 -44 6h-57v164h70q23 0 35 7q22 13 22 71v172q0 63 -26 75q-15 6 -46 6q-8 0 -17 -1q-60 -2 -60 -80v-154h-165v155q0 168 97 218q68 35 139 35q66 0 135 -31q108 -46 108 -222v-174 q0 -114 -91 -161q91 -47 91 -161v-210q0 -151 -78 -206q-49 -35 -153 -38h-14q-92 0 -143 30q-91 52 -91 214zM379 0l723 1963h175l-722 -1963h-176zM895 276v142l284 707h207v-689h63v-160h-63v-276h-162v276h-329zM1055 436h169v429z" />
<glyph unicode="&#xbf;" horiz-adv-x="1053" d="M120 148v197q0 249 199 447t199 345v45h283v-69q0 -245 -199 -442t-199 -333v-190q0 -133 122 -133h2q123 0 123 133v263h283v-263q0 -413 -407 -413q-406 0 -406 413zM492 1404v325h325v-325h-325z" />
<glyph unicode="&#xc0;" horiz-adv-x="1051" d="M60 0l92 693l200 1269h388l199 -1266l92 -696h-286l-55 416h-289l-56 -416h-285zM215 2215v76h222l274 -253h-222zM437 696h216l-108 816z" />
<glyph unicode="&#xc1;" horiz-adv-x="1051" d="M60 0l92 693l200 1269h388l199 -1266l92 -696h-286l-55 416h-289l-56 -416h-285zM380 2038l274 253h222v-76l-274 -177h-222zM437 696h216l-108 816z" />
<glyph unicode="&#xc2;" horiz-adv-x="1051" d="M60 0l92 693l200 1269h388l199 -1266l92 -696h-286l-55 416h-289l-56 -416h-285zM157 2039l256 252h264l258 -252h-254l-136 93l-135 -93h-253zM437 696h216l-108 816z" />
<glyph unicode="&#xc3;" horiz-adv-x="1051" d="M60 0l92 693l200 1269h388l199 -1266l92 -696h-286l-55 416h-289l-56 -416h-285zM202 2079l35 71q67 135 174 141h7q67 0 173 -66q51 -32 84 -32q28 0 43 23l41 67l130 -86l-41 -68q-64 -102 -158 -107h-7q-67 0 -171 66q-66 41 -79 43h-4q-28 0 -55 -54l-35 -71z M437 696h216l-108 816z" />
<glyph unicode="&#xc4;" horiz-adv-x="1051" d="M60 0l92 693l200 1269h388l199 -1266l92 -696h-286l-55 416h-289l-56 -416h-285zM226 2039v242h242v-242h-242zM437 696h216l-108 816zM622 2039v242h243v-242h-243z" />
<glyph unicode="&#xc5;" horiz-adv-x="1091" d="M60 0l92 693l200 1269h30q-35 48 -35 132q0 198 198 198q199 0 199 -198q0 -84 -35 -132h31l199 -1266l92 -696h-286l-55 416h-289l-56 -416h-285zM437 696h216l-108 816zM465 2094q0 -81 80 -81q81 0 81 81q0 80 -81 80q-80 0 -80 -80z" />
<glyph unicode="&#xc6;" horiz-adv-x="1478" d="M60 0l92 693l200 1269h933v-279h-451v-562h388v-280h-388v-562h451v-279h-734v416h-150l-56 -416h-285zM437 696h114v771l-6 45z" />
<glyph unicode="&#xc7;" horiz-adv-x="1043" d="M120 381v1200q0 412 406 412q407 0 407 -412v-264h-283v264q0 132 -123 133h-2q-122 0 -122 -133v-1200q0 -133 123 -133q124 0 124 133v264h283v-264q0 -389 -362 -412l-20 -55q37 20 69 20q31 0 58 -20q28 -20 28 -70v-99q0 -85 -104 -93q-14 -2 -34 -2q-9 0 -20 1 q-118 3 -118 94v29h118v-29q0 -15 20 -15t20 15v99q0 17 -19 18h-1q-17 0 -24 -17h-114l26 126q-336 34 -336 410z" />
<glyph unicode="&#xc8;" horiz-adv-x="944" d="M130 0v1962h734v-279h-451v-562h388v-280h-388v-562h451v-279h-734zM166 2215v76h222l274 -253h-222z" />
<glyph unicode="&#xc9;" horiz-adv-x="944" d="M130 0v1962h734v-279h-451v-562h388v-280h-388v-562h451v-279h-734zM332 2038l274 253h222v-76l-274 -177h-222z" />
<glyph unicode="&#xca;" horiz-adv-x="944" d="M108 2039l256 252h264l258 -252h-254l-136 93l-135 -93h-253zM130 0v1962h734v-279h-451v-562h388v-280h-388v-562h451v-279h-734z" />
<glyph unicode="&#xcb;" horiz-adv-x="944" d="M130 0v1962h734v-279h-451v-562h388v-280h-388v-562h451v-279h-734zM178 2039v242h242v-242h-242zM574 2039v242h243v-242h-243z" />
<glyph unicode="&#xcc;" horiz-adv-x="608" d="M0 2215v76h222l274 -253h-222zM189 0v1962h283v-1962h-283z" />
<glyph unicode="&#xcd;" horiz-adv-x="607" d="M111 2038l274 253h222v-76l-274 -177h-222zM135 0v1962h283v-1962h-283z" />
<glyph unicode="&#xce;" horiz-adv-x="778" d="M0 2039l256 252h264l258 -252h-254l-136 93l-135 -93h-253zM248 0v1962h283v-1962h-283z" />
<glyph unicode="&#xcf;" horiz-adv-x="639" d="M0 2092v242h242v-242h-242zM178 0v1962h283v-1962h-283zM396 2092v242h243v-242h-243z" />
<glyph unicode="&#xd0;" horiz-adv-x="1115" d="M58 876v211h124v875l436 -1q377 0 377 -412v-1137q0 -411 -377 -411q-6 0 -18 -1h-418v876h-124zM465 279h124q123 0 123 133v1137q0 134 -123 134h-124v-596h98v-211h-98v-597z" />
<glyph unicode="&#xd1;" horiz-adv-x="1073" d="M130 0v1962h283l268 -1138v1133l262 5v-1962h-283l-258 1102v-1102h-272zM193 2079l35 71q67 135 174 141h7q67 0 173 -66q51 -32 84 -32q28 0 43 23l41 67l130 -86l-41 -68q-64 -102 -158 -107h-7q-67 0 -171 66q-66 41 -79 43h-4q-28 0 -55 -54l-35 -71z" />
<glyph unicode="&#xd2;" horiz-adv-x="1033" d="M120 381v1200q0 412 406 412q407 0 407 -412v-1200q0 -412 -407 -413q-406 0 -406 413zM196 2215v76h222l274 -253h-222zM403 381q0 -133 123 -133q124 0 124 133v1200q0 132 -123 133h-2q-122 0 -122 -133v-1200z" />
<glyph unicode="&#xd3;" horiz-adv-x="1033" d="M120 381v1200q0 412 406 412q407 0 407 -412v-1200q0 -412 -407 -413q-406 0 -406 413zM361 2038l274 253h222v-76l-274 -177h-222zM403 381q0 -133 123 -133q124 0 124 133v1200q0 132 -123 133h-2q-122 0 -122 -133v-1200z" />
<glyph unicode="&#xd4;" horiz-adv-x="1033" d="M120 381v1200q0 412 406 412q407 0 407 -412v-1200q0 -412 -407 -413q-406 0 -406 413zM138 2039l256 252h264l258 -252h-254l-136 93l-135 -93h-253zM403 381q0 -133 123 -133q124 0 124 133v1200q0 132 -123 133h-2q-122 0 -122 -133v-1200z" />
<glyph unicode="&#xd5;" horiz-adv-x="1033" d="M120 381v1200q0 412 406 412q407 0 407 -412v-1200q0 -412 -407 -413q-406 0 -406 413zM183 2079l35 71q67 135 174 141h7q67 0 173 -66q51 -32 84 -32q28 0 43 23l41 67l130 -86l-41 -68q-64 -102 -158 -107h-7q-67 0 -171 66q-66 41 -79 43h-4q-28 0 -55 -54l-35 -71z M403 381q0 -133 123 -133q124 0 124 133v1200q0 132 -123 133h-2q-122 0 -122 -133v-1200z" />
<glyph unicode="&#xd6;" horiz-adv-x="1033" d="M120 381v1200q0 412 406 412q407 0 407 -412v-1200q0 -412 -407 -413q-406 0 -406 413zM207 2039v242h242v-242h-242zM403 381q0 -133 123 -133q124 0 124 133v1200q0 132 -123 133h-2q-122 0 -122 -133v-1200zM603 2039v242h243v-242h-243z" />
<glyph unicode="&#xd7;" horiz-adv-x="1047" d="M156 779l204 203l-203 203l164 164l203 -203l203 203l164 -165l-203 -202l203 -203l-164 -164l-203 202l-203 -203z" />
<glyph unicode="&#xd8;" horiz-adv-x="1053" d="M120 381v1200q0 412 406 412q88 0 156 -19l31 127h141l-46 -190q125 -102 125 -330v-1200q0 -412 -407 -413q-105 0 -182 27l-49 -201h-140l67 277q-102 103 -102 310zM403 819l210 868q-31 27 -86 27h-2q-122 0 -122 -133v-762zM418 303q29 -55 108 -55q124 0 124 133 v878z" />
<glyph unicode="&#xd9;" horiz-adv-x="1053" d="M120 381v1581h283v-1581q0 -133 123 -133q124 0 124 133v1581h283v-1581q0 -412 -407 -413q-406 0 -406 413zM196 2215v76h222l274 -253h-222z" />
<glyph unicode="&#xda;" horiz-adv-x="1053" d="M120 381v1581h283v-1581q0 -133 123 -133q124 0 124 133v1581h283v-1581q0 -412 -407 -413q-406 0 -406 413zM361 2038l274 253h222v-76l-274 -177h-222z" />
<glyph unicode="&#xdb;" horiz-adv-x="1053" d="M120 381v1581h283v-1581q0 -133 123 -133q124 0 124 133v1581h283v-1581q0 -412 -407 -413q-406 0 -406 413zM138 2039l256 252h264l258 -252h-254l-136 93l-135 -93h-253z" />
<glyph unicode="&#xdc;" horiz-adv-x="1053" d="M120 381v1581h283v-1581q0 -133 123 -133q124 0 124 133v1581h283v-1581q0 -412 -407 -413q-406 0 -406 413zM207 2039v242h242v-242h-242zM603 2039v242h243v-242h-243z" />
<glyph unicode="&#xdd;" horiz-adv-x="1066" d="M60 1962h300l193 -765l193 765h300l-343 -1113l-8 -24v-825h-283v825l-9 24zM388 2038l274 253h222v-76l-274 -177h-222z" />
<glyph unicode="&#xde;" horiz-adv-x="1018" d="M130 -327v2289h283v-327h92q6 0 18 -1h19q376 0 376 -412v-295q0 -304 -270 -392q-66 -21 -190 -21h-45v-841h-283zM413 793h64q59 0 82 9q76 31 76 125v295q0 134 -123 134h-99v-563z" />
<glyph unicode="&#xdf;" horiz-adv-x="1053" d="M130 0v1550q0 412 406 412q407 0 407 -412v-296q0 -193 -156 -273q156 -79 156 -273v-508q0 -411 -377 -411l-28 -1v279q122 0 122 133v508q0 94 -77 125q-23 9 -82 9h-88v-842h-283zM413 1121h88q59 0 82 9q77 30 77 124v296q0 132 -123 133h-2q-122 0 -122 -133v-429z " />
<glyph unicode="&#xe0;" horiz-adv-x="1051" d="M60 0l92 611l200 1118h388l199 -1115l92 -614h-286l-55 368h-289l-56 -368h-285zM215 1982v76h222l274 -253h-222zM437 614h216l-108 718z" />
<glyph unicode="&#xe1;" horiz-adv-x="1051" d="M60 0l92 611l200 1118h388l199 -1115l92 -614h-286l-55 368h-289l-56 -368h-285zM380 1805l274 253h222v-76l-274 -177h-222zM437 614h216l-108 718z" />
<glyph unicode="&#xe2;" horiz-adv-x="1051" d="M60 0l92 611l200 1118h388l199 -1115l92 -614h-286l-55 368h-289l-56 -368h-285zM157 1806l256 252h264l258 -252h-254l-136 93l-135 -93h-253zM437 614h216l-108 718z" />
<glyph unicode="&#xe3;" horiz-adv-x="1051" d="M60 0l92 611l200 1118h388l199 -1115l92 -614h-286l-55 368h-289l-56 -368h-285zM202 1846l35 71q67 135 174 141h7q67 0 173 -66q51 -32 84 -32q28 0 43 23l41 67l130 -86l-41 -68q-64 -102 -158 -107h-7q-67 0 -171 66q-66 41 -79 43h-4q-28 0 -55 -54l-35 -71z M437 614h216l-108 718z" />
<glyph unicode="&#xe4;" horiz-adv-x="1051" d="M60 0l92 611l200 1118h388l199 -1115l92 -614h-286l-55 368h-289l-56 -368h-285zM226 1806v242h242v-242h-242zM437 614h216l-108 718zM622 1806v242h243v-242h-243z" />
<glyph unicode="&#xe5;" horiz-adv-x="1091" d="M60 0l92 611l200 1118h30q-35 48 -35 132q0 198 198 198q199 0 199 -198q0 -84 -35 -132h31l199 -1115l92 -614h-286l-55 368h-289l-56 -368h-285zM437 614h216l-108 718zM465 1861q0 -81 80 -81q81 0 81 81q0 80 -81 80q-80 0 -80 -80z" />
<glyph unicode="&#xe6;" horiz-adv-x="1568" d="M60 0l92 611l200 1118h934v-246h-451v-495h388v-246h-388v-496h451v-246h-734v368h-151l-56 -368h-285zM437 614h115v671l-7 47z" />
<glyph unicode="&#xe7;" horiz-adv-x="1043" d="M120 381v1200q0 412 406 412q407 0 407 -412v-264h-283v264q0 132 -123 133h-2q-122 0 -122 -133v-1200q0 -133 123 -133q124 0 124 133v264h283v-264q0 -389 -362 -412l-20 -55q37 20 69 20q31 0 58 -20q28 -20 28 -70v-99q0 -85 -104 -93q-14 -2 -34 -2q-9 0 -20 1 q-118 3 -118 94v29h118v-29q0 -15 20 -15t20 15v99q0 17 -19 18h-1q-17 0 -24 -17h-114l26 126q-336 34 -336 410z" />
<glyph unicode="&#xe8;" horiz-adv-x="924" d="M130 0v1729h734v-246h-451v-495h388v-246h-388v-496h451v-246h-734zM166 1982v76h222l274 -253h-222z" />
<glyph unicode="&#xe9;" horiz-adv-x="924" d="M130 0v1729h734v-246h-451v-495h388v-246h-388v-496h451v-246h-734zM332 1805l274 253h222v-76l-274 -177h-222z" />
<glyph unicode="&#xea;" horiz-adv-x="924" d="M108 1806l256 252h264l258 -252h-254l-136 93l-135 -93h-253zM130 0v1729h734v-246h-451v-495h388v-246h-388v-496h451v-246h-734z" />
<glyph unicode="&#xeb;" horiz-adv-x="924" d="M130 0v1729h734v-246h-451v-495h388v-246h-388v-496h451v-246h-734zM178 1806v242h242v-242h-242zM574 1806v242h243v-242h-243z" />
<glyph unicode="&#xec;" horiz-adv-x="569" d="M0 1982v76h222l274 -253h-222zM189 0v1729h283v-1729h-283z" />
<glyph unicode="&#xed;" horiz-adv-x="607" d="M111 1805l274 253h222v-76l-274 -177h-222zM135 0v1729h283v-1729h-283z" />
<glyph unicode="&#xee;" horiz-adv-x="778" d="M0 1806l256 252h264l258 -252h-254l-136 93l-135 -93h-253zM248 0v1729h283v-1729h-283z" />
<glyph unicode="&#xef;" horiz-adv-x="639" d="M0 1806v242h242v-242h-242zM178 0v1729h283v-1729h-283zM396 1806v242h243v-242h-243z" />
<glyph unicode="&#xf0;" horiz-adv-x="1053" d="M120 413v365q0 392 351 392q105 0 179 -59q0 248 -96 399l-215 -181l-138 164l200 168q-61 38 -175 82l69 222q203 -60 309 -134l167 140l137 -164l-149 -125q174 -231 174 -630v-639q0 -413 -406 -413q-407 0 -407 413zM403 413q0 -133 124 -133q123 0 123 133v365 q0 129 -99 133q-15 1 -28 1q-53 0 -76 -10q-44 -19 -44 -124v-365z" />
<glyph unicode="&#xf1;" horiz-adv-x="1073" d="M130 0v1729h283l268 -1003v999l262 4v-1729h-283l-258 972v-972h-272zM193 1846l35 71q67 135 174 141h7q67 0 173 -66q51 -32 84 -32q28 0 43 23l41 67l130 -86l-41 -68q-64 -102 -158 -107h-7q-67 0 -171 66q-66 41 -79 43h-4q-28 0 -55 -54l-35 -71z" />
<glyph unicode="&#xf2;" horiz-adv-x="1033" d="M120 336v1057q0 364 406 364q407 0 407 -364v-1057q0 -363 -407 -363q-406 0 -406 363zM196 1982v76h222l274 -253h-222zM403 336q0 -117 123 -117q124 0 124 117v1057q0 117 -123 118q-124 0 -124 -118v-1057z" />
<glyph unicode="&#xf3;" horiz-adv-x="1033" d="M120 336v1057q0 364 406 364q407 0 407 -364v-1057q0 -363 -407 -363q-406 0 -406 363zM361 1805l274 253h222v-76l-274 -177h-222zM403 336q0 -117 123 -117q124 0 124 117v1057q0 117 -123 118q-124 0 -124 -118v-1057z" />
<glyph unicode="&#xf4;" horiz-adv-x="1033" d="M120 336v1057q0 364 406 364q407 0 407 -364v-1057q0 -363 -407 -363q-406 0 -406 363zM138 1806l256 252h264l258 -252h-254l-136 93l-135 -93h-253zM403 336q0 -117 123 -117q124 0 124 117v1057q0 117 -123 118q-124 0 -124 -118v-1057z" />
<glyph unicode="&#xf5;" horiz-adv-x="1033" d="M120 336v1057q0 364 406 364q407 0 407 -364v-1057q0 -363 -407 -363q-406 0 -406 363zM183 1846l35 71q67 135 174 141h7q67 0 173 -66q51 -32 84 -32q28 0 43 23l41 67l130 -86l-41 -68q-64 -102 -158 -107h-7q-67 0 -171 66q-66 41 -79 43h-4q-28 0 -55 -54l-35 -71z M403 336q0 -117 123 -117q124 0 124 117v1057q0 117 -123 118q-124 0 -124 -118v-1057z" />
<glyph unicode="&#xf6;" horiz-adv-x="1033" d="M120 336v1057q0 364 406 364q407 0 407 -364v-1057q0 -363 -407 -363q-406 0 -406 363zM207 1806v242h242v-242h-242zM403 336q0 -117 123 -117q124 0 124 117v1057q0 117 -123 118q-124 0 -124 -118v-1057zM603 1806v242h243v-242h-243z" />
<glyph unicode="&#xf7;" horiz-adv-x="1045" d="M120 866v234h805v-234h-805zM360 319v325h324v-325h-324zM360 1324v324h324v-324h-324z" />
<glyph unicode="&#xf8;" horiz-adv-x="1053" d="M119 -318l114 372q-113 91 -113 282v1057q0 364 406 364q128 0 216 -36l70 231l140 -9l-93 -305q74 -89 74 -245v-1057q0 -363 -407 -363q-96 0 -170 20l-98 -320zM403 612l246 805q-12 93 -122 94q-124 0 -124 -118v-781zM434 248q31 -29 92 -29q124 0 124 117v619z" />
<glyph unicode="&#xf9;" horiz-adv-x="1053" d="M120 336v1393h283v-1393q0 -117 123 -117q124 0 124 117v1393h283v-1393q0 -363 -407 -363q-406 0 -406 363zM196 1982v76h222l274 -253h-222z" />
<glyph unicode="&#xfa;" horiz-adv-x="1053" d="M120 336v1393h283v-1393q0 -117 123 -117q124 0 124 117v1393h283v-1393q0 -363 -407 -363q-406 0 -406 363zM361 1805l274 253h222v-76l-274 -177h-222z" />
<glyph unicode="&#xfb;" horiz-adv-x="1053" d="M120 336v1393h283v-1393q0 -117 123 -117q124 0 124 117v1393h283v-1393q0 -363 -407 -363q-406 0 -406 363zM138 1806l256 252h264l258 -252h-254l-136 93l-135 -93h-253z" />
<glyph unicode="&#xfc;" horiz-adv-x="1053" d="M120 336v1393h283v-1393q0 -117 123 -117q124 0 124 117v1393h283v-1393q0 -363 -407 -363q-406 0 -406 363zM207 1806v242h242v-242h-242zM603 1806v242h243v-242h-243z" />
<glyph unicode="&#xfd;" horiz-adv-x="1066" d="M60 1729h300l193 -673l193 673h300l-343 -981l-8 -21v-727h-283v727l-9 21zM388 1805l274 253h222v-76l-274 -177h-222z" />
<glyph unicode="&#xfe;" horiz-adv-x="1010" d="M130 -327v2289h283v-327h92q6 0 18 -1h19q376 0 376 -412v-295q0 -304 -270 -392q-66 -21 -190 -21h-45v-841h-283zM413 793h64q59 0 82 9q76 31 76 125v295q0 134 -123 134h-99v-563z" />
<glyph unicode="&#xff;" horiz-adv-x="1066" d="M60 1729h300l193 -673l193 673h300l-343 -981l-8 -21v-727h-283v727l-9 21zM234 1806v242h242v-242h-242zM630 1806v242h243v-242h-243z" />
<glyph unicode="&#x100;" horiz-adv-x="1051" d="M40 0l92 693l200 1269h388l199 -1266l92 -696h-286l-55 416h-289l-56 -416h-285zM417 696h216l-108 816zM460 2156v231h639v-231h-639z" />
<glyph unicode="&#x101;" horiz-adv-x="1051" d="M40 0l92 611l200 1118h388l199 -1115l92 -614h-286l-55 368h-289l-56 -368h-285zM375 1805v231h639v-231h-639zM417 614h216l-108 718z" />
<glyph unicode="&#x102;" horiz-adv-x="1051" d="M40 0l92 693l200 1269h388l199 -1266l92 -696h-286l-55 416h-289l-56 -416h-285zM134 2393h214q31 -108 168 -108h1q139 0 169 108h214q-127 -258 -393 -258h-8q-269 4 -365 258zM417 696h216l-108 816z" />
<glyph unicode="&#x103;" horiz-adv-x="1051" d="M40 0l92 611l200 1118h388l199 -1115l92 -614h-286l-55 368h-289l-56 -368h-285zM162 2063h214q31 -108 168 -108h1q139 0 169 108h214q-127 -258 -393 -258h-8q-269 4 -365 258zM417 614h216l-108 718z" />
<glyph unicode="&#x104;" horiz-adv-x="1051" d="M40 0l92 693l200 1269h388l199 -1266l92 -696h-286l-55 416h-289l-56 -416h-285zM417 696h216l-108 816zM1035 -246q0 64 36 128.5t102 117.5h132q-57 -35 -88.5 -86.5t-31.5 -104.5q0 -42 23 -71t75 -29q23 0 47 6.5t44 17.5v-128q-73 -35 -136 -35q-51 0 -89 14.5 t-63.5 40t-38 58.5t-12.5 71z" />
<glyph unicode="&#x105;" horiz-adv-x="1051" d="M40 0l92 611l200 1118h388l199 -1115l92 -614h-286l-55 368h-289l-56 -368h-285zM417 614h216l-108 718zM745 -246q0 64 36 128.5t102 117.5h132q-57 -35 -88.5 -86.5t-31.5 -104.5q0 -42 23 -71t75 -29q23 0 47 6.5t44 17.5v-128q-73 -35 -136 -35q-51 0 -89 14.5 t-63.5 40t-38 58.5t-12.5 71z" />
<glyph unicode="&#x106;" horiz-adv-x="1023" d="M110 381v1200q0 412 406 412q407 0 407 -412v-264h-283v264q0 132 -123 133h-2q-122 0 -122 -133v-1200q0 -133 123 -133q124 0 124 133v264h283v-264q0 -412 -407 -413q-406 0 -406 413zM571 2167l274 253h222v-76l-274 -177h-222z" />
<glyph unicode="&#x107;" horiz-adv-x="1023" d="M110 336v1057q0 364 406 364q407 0 407 -364v-232h-283v232q0 117 -123 118q-124 0 -124 -118v-1057q0 -117 123 -117q124 0 124 117v233h283v-233q0 -363 -407 -363q-406 0 -406 363zM332 1805l274 253h222v-76l-274 -177h-222z" />
<glyph unicode="&#x108;" horiz-adv-x="1023" d="M110 381v1200q0 412 406 412q407 0 407 -412v-264h-283v264q0 132 -123 133h-2q-122 0 -122 -133v-1200q0 -133 123 -133q124 0 124 133v264h283v-264q0 -412 -407 -413q-406 0 -406 413zM598 2162l256 252h264l258 -252h-254l-136 93l-135 -93h-253z" />
<glyph unicode="&#x109;" horiz-adv-x="1023" d="M110 336v1057q0 364 406 364q407 0 407 -364v-232h-283v232q0 117 -123 118q-124 0 -124 -118v-1057q0 -117 123 -117q124 0 124 117v233h283v-233q0 -363 -407 -363q-406 0 -406 363zM416 1806l256 252h264l258 -252h-254l-136 93l-135 -93h-253z" />
<glyph unicode="&#x10a;" horiz-adv-x="1023" d="M110 381v1200q0 412 406 412q407 0 407 -412v-264h-283v264q0 132 -123 133h-2q-122 0 -122 -133v-1200q0 -133 123 -133q124 0 124 133v264h283v-264q0 -412 -407 -413q-406 0 -406 413zM562 2211v242h243v-242h-243z" />
<glyph unicode="&#x10b;" horiz-adv-x="1023" d="M110 336v1057q0 364 406 364q407 0 407 -364v-232h-283v232q0 117 -123 118q-124 0 -124 -118v-1057q0 -117 123 -117q124 0 124 117v233h283v-233q0 -363 -407 -363q-406 0 -406 363zM370 1811v242h243v-242h-243z" />
<glyph unicode="&#x10c;" horiz-adv-x="1023" d="M110 381v1200q0 412 406 412q407 0 407 -412v-264h-283v264q0 132 -123 133h-2q-122 0 -122 -133v-1200q0 -133 123 -133q124 0 124 133v264h283v-264q0 -412 -407 -413q-406 0 -406 413zM111 2401h253l135 -93l136 93h254l-258 -252h-264z" />
<glyph unicode="&#x10d;" horiz-adv-x="1023" d="M110 336v1057q0 364 406 364q407 0 407 -364v-232h-283v232q0 117 -123 118q-124 0 -124 -118v-1057q0 -117 123 -117q124 0 124 117v233h283v-233q0 -363 -407 -363q-406 0 -406 363zM143 2058h253l135 -93l136 93h254l-258 -252h-264z" />
<glyph unicode="&#x10e;" horiz-adv-x="1053" d="M130 0v1962l436 -1q377 0 377 -412v-1137q0 -411 -377 -411q-6 0 -18 -1h-418zM407 2414h253l135 -93l136 93h254l-258 -252h-264zM413 279h124q123 0 123 133v1137q0 134 -123 134h-124v-1404z" />
<glyph unicode="&#x10f;" horiz-adv-x="1259" d="M71 530q0 159 53 288.5t159 198.5t237 69q96 0 171 -40.5t122 -105.5v526h179v-1466h-167v134q-101 -158 -297 -158q-127 0 -233.5 70t-165 195.5t-58.5 288.5zM256 530q0 -204 86 -305t203 -101q118 0 200.5 96.5t82.5 294.5q0 218 -84 320t-207 102q-120 0 -200.5 -98 t-80.5 -309zM1067 1089q51 23 75.5 66.5t26.5 125.5h-91v185h184v-185q0 -101 -36 -163.5t-114 -96.5z" />
<glyph unicode="&#x110;" horiz-adv-x="1479" d="M-3 667v132h161v667h506q170 0 260 -21q126 -29 215 -105q116 -98 173.5 -250.5t57.5 -348.5q0 -224 -71 -385.5t-170 -234.5t-228 -104q-71 -17 -214 -17h-529v667h-161zM352 173h313q146 0 228 27t130 75q69 69 108 185t39 283q0 172 -38.5 275t-100.5 165t-138 86 t-233 24h-308v-494h404v-132h-404v-494z" />
<glyph unicode="&#x111;" horiz-adv-x="1139" d="M70 530q0 159 53 288.5t159 198.5t237 69q96 0 171 -40.5t122 -105.5v279h-346v132h346v115h179v-115h145v-132h-145v-1219h-167v134q-101 -158 -297 -158q-127 0 -233.5 70t-165 195.5t-58.5 288.5zM255 530q0 -204 86 -305t203 -101q118 0 200.5 96.5t82.5 294.5 q0 218 -84 320t-207 102q-120 0 -200.5 -98t-80.5 -309z" />
<glyph unicode="&#x112;" horiz-adv-x="944" d="M123 2167v231h639v-231h-639zM130 0v1962h734v-279h-451v-562h388v-280h-388v-562h451v-279h-734z" />
<glyph unicode="&#x113;" horiz-adv-x="924" d="M110 1809v231h639v-231h-639zM130 0v1729h734v-246h-451v-495h388v-246h-388v-496h451v-246h-734z" />
<glyph unicode="&#x114;" horiz-adv-x="944" d="M130 0v1962h734v-279h-451v-562h388v-280h-388v-562h451v-279h-734zM493 2417h214q31 -108 168 -108h1q139 0 169 108h214q-127 -258 -393 -258h-8q-269 4 -365 258z" />
<glyph unicode="&#x115;" horiz-adv-x="924" d="M130 0v1729h734v-246h-451v-495h388v-246h-388v-496h451v-246h-734zM374 2055h214q31 -108 168 -108h1q139 0 169 108h214q-127 -258 -393 -258h-8q-269 4 -365 258z" />
<glyph unicode="&#x116;" horiz-adv-x="944" d="M130 0v1962h734v-279h-451v-562h388v-280h-388v-562h451v-279h-734zM515 2173v242h243v-242h-243z" />
<glyph unicode="&#x117;" horiz-adv-x="924" d="M130 0v1729h734v-246h-451v-495h388v-246h-388v-496h451v-246h-734zM380 1811v242h243v-242h-243z" />
<glyph unicode="&#x118;" horiz-adv-x="944" d="M130 0v1962h734v-279h-451v-562h388v-280h-388v-562h451v-279h-734zM917 -246q0 64 36 128.5t102 117.5h132q-57 -35 -88.5 -86.5t-31.5 -104.5q0 -42 23 -71t75 -29q23 0 47 6.5t44 17.5v-128q-73 -35 -136 -35q-51 0 -89 14.5t-63.5 40t-38 58.5t-12.5 71z" />
<glyph unicode="&#x119;" horiz-adv-x="924" d="M130 0v1729h734v-246h-451v-495h388v-246h-388v-496h451v-246h-734zM465 -246q0 64 36 128.5t102 117.5h132q-57 -35 -88.5 -86.5t-31.5 -104.5q0 -42 23 -71t75 -29q23 0 47 6.5t44 17.5v-128q-73 -35 -136 -35q-51 0 -89 14.5t-63.5 40t-38 58.5t-12.5 71z" />
<glyph unicode="&#x11a;" horiz-adv-x="944" d="M130 0v1962h734v-279h-451v-562h388v-280h-388v-562h451v-279h-734zM473 2414h253l135 -93l136 93h254l-258 -252h-264z" />
<glyph unicode="&#x11b;" horiz-adv-x="924" d="M92 2067h253l135 -93l136 93h254l-258 -252h-264zM130 0v1729h734v-246h-451v-495h388v-246h-388v-496h451v-246h-734z" />
<glyph unicode="&#x11c;" horiz-adv-x="1033" d="M110 381v1200q0 412 406 412q407 0 407 -412v-264h-283v264q0 132 -123 133h-2q-122 0 -122 -133v-1200q0 -133 123 -133q124 0 124 133v460h-143v280h426v-740q0 -412 -407 -413q-406 0 -406 413zM692 2157l256 252h264l258 -252h-254l-136 93l-135 -93h-253z" />
<glyph unicode="&#x11d;" horiz-adv-x="1033" d="M110 336v1057q0 364 406 364q407 0 407 -364v-232h-283v232q0 117 -123 118q-124 0 -124 -118v-1057q0 -117 123 -117q124 0 124 117v406h-143v246h426v-652q0 -363 -407 -363q-406 0 -406 363zM366 1806l256 252h264l258 -252h-254l-136 93l-135 -93h-253z" />
<glyph unicode="&#x11e;" horiz-adv-x="1033" d="M110 381v1200q0 412 406 412q407 0 407 -412v-264h-283v264q0 132 -123 133h-2q-122 0 -122 -133v-1200q0 -133 123 -133q124 0 124 133v460h-143v280h426v-740q0 -412 -407 -413q-406 0 -406 413zM191 2374h214q31 -108 168 -108h1q139 0 169 108h214 q-127 -258 -393 -258h-8q-269 4 -365 258z" />
<glyph unicode="&#x11f;" horiz-adv-x="1033" d="M110 336v1057q0 364 406 364q407 0 407 -364v-232h-283v232q0 117 -123 118q-124 0 -124 -118v-1057q0 -117 123 -117q124 0 124 117v406h-143v246h426v-652q0 -363 -407 -363q-406 0 -406 363zM128 2037h214q31 -108 168 -108h1q139 0 169 108h214q-127 -258 -393 -258 h-8q-269 4 -365 258z" />
<glyph unicode="&#x120;" horiz-adv-x="1033" d="M110 381v1200q0 412 406 412q407 0 407 -412v-264h-283v264q0 132 -123 133h-2q-122 0 -122 -133v-1200q0 -133 123 -133q124 0 124 133v460h-143v280h426v-740q0 -412 -407 -413q-406 0 -406 413zM656 2162v242h243v-242h-243z" />
<glyph unicode="&#x121;" horiz-adv-x="1033" d="M110 336v1057q0 364 406 364q407 0 407 -364v-232h-283v232q0 117 -123 118q-124 0 -124 -118v-1057q0 -117 123 -117q124 0 124 117v406h-143v246h426v-652q0 -363 -407 -363q-406 0 -406 363zM358 1811v242h243v-242h-243z" />
<glyph unicode="&#x122;" horiz-adv-x="1033" d="M110 381v1200q0 412 406 412q407 0 407 -412v-264h-283v264q0 132 -123 133h-2q-122 0 -122 -133v-1200q0 -133 123 -133q124 0 124 133v460h-143v280h426v-740q0 -412 -407 -413q-406 0 -406 413zM627 -409l11 117q44 -4 87 -4q167 0 167 76q0 67 -127 67q-14 0 -32 -2 v105q35 4 66 4q137 0 199 -55t62 -127q0 -77 -70.5 -135t-222.5 -58q-63 0 -140 12z" />
<glyph unicode="&#x123;" horiz-adv-x="1139" d="M66 535q0 241 121 396t341 155q186 0 308 -152v128h166v-918q0 -231 -46 -340t-160.5 -172t-269.5 -63q-214 0 -321 93.5t-103 249.5l175 -26q17 -168 244 -168q121 0 190.5 48t88.5 120t19 253q-117 -139 -291 -139q-220 0 -341 157.5t-121 377.5zM251 550 q0 -213 85 -307t206 -94q129 0 210.5 98.5t81.5 300.5q0 170 -77.5 279.5t-217.5 109.5q-130 0 -209 -103.5t-79 -283.5zM423 1170v117q0 112 37 182t131 107l54 -83q-93 -39 -109 -148h96v-175h-209z" />
<glyph unicode="&#x124;" horiz-adv-x="1073" d="M130 0v1962h283v-841h247v841h283v-1962h-283v841h-247v-841h-283zM596 2168l256 252h264l258 -252h-254l-136 93l-135 -93h-253z" />
<glyph unicode="&#x125;" horiz-adv-x="1073" d="M130 0v1729h283v-741h247v741h283v-1729h-283v742h-247v-742h-283zM466 2168l256 252h264l258 -252h-254l-136 93l-135 -93h-253z" />
<glyph unicode="&#x126;" horiz-adv-x="1479" d="M31 1099v148h133v219h194v-219h762v219h194v-219h133v-148h-133v-1099h-194v691h-762v-691h-194v1099h-133zM358 864h762v235h-762v-235z" />
<glyph unicode="&#x127;" horiz-adv-x="1139" d="M6 1199v134h129v133h180v-133h367v-134h-367v-259q122 146 320 146q137 0 251 -76t114 -337v-673h-180v673q0 258 -225 258q-123 0 -201.5 -80.5t-78.5 -269.5v-581h-180v1199h-129z" />
<glyph unicode="&#x128;" horiz-adv-x="553" d="M60 2208l35 71q67 135 174 141h7q67 0 173 -66q51 -32 84 -32q28 0 43 23l41 67l130 -86l-41 -68q-64 -102 -158 -107h-7q-67 0 -171 66q-66 41 -79 43h-4q-28 0 -55 -54l-35 -71zM135 0v1962h283v-1962h-283z" />
<glyph unicode="&#x129;" horiz-adv-x="514" d="M78 1846l35 71q67 135 174 141h7q67 0 173 -66q51 -32 84 -32q28 0 43 23l41 67l130 -86l-41 -68q-64 -102 -158 -107h-7q-67 0 -171 66q-66 41 -79 43h-4q-28 0 -55 -54l-35 -71zM135 0v1729h283v-1729h-283z" />
<glyph unicode="&#x12a;" horiz-adv-x="553" d="M73 2141v231h639v-231h-639zM135 0v1962h283v-1962h-283z" />
<glyph unicode="&#x12b;" horiz-adv-x="514" d="M78 1805v231h639v-231h-639zM135 0v1729h283v-1729h-283z" />
<glyph unicode="&#x12c;" horiz-adv-x="553" d="M83 2391h214q31 -108 168 -108h1q139 0 169 108h214q-127 -258 -393 -258h-8q-269 4 -365 258zM135 0v1962h283v-1962h-283z" />
<glyph unicode="&#x12d;" horiz-adv-x="514" d="M78 2055h214q31 -108 168 -108h1q139 0 169 108h214q-127 -258 -393 -258h-8q-269 4 -365 258zM135 0v1729h283v-1729h-283z" />
<glyph unicode="&#x12e;" horiz-adv-x="553" d="M75 -246q0 64 36 128.5t102 117.5h132q-57 -35 -88.5 -86.5t-31.5 -104.5q0 -42 23 -71t75 -29q23 0 47 6.5t44 17.5v-128q-73 -35 -136 -35q-51 0 -89 14.5t-63.5 40t-38 58.5t-12.5 71zM135 0v1962h283v-1962h-283z" />
<glyph unicode="&#x12f;" horiz-adv-x="548" d="M25 -246q0 64 36 128.5t102 117.5h132q-57 -35 -88.5 -86.5t-31.5 -104.5q0 -42 23 -71t75 -29q23 0 47 6.5t44 17.5v-128q-73 -35 -136 -35q-51 0 -89 14.5t-63.5 40t-38 58.5t-12.5 71zM135 0v1729h283v-1729h-283z" />
<glyph unicode="&#x130;" horiz-adv-x="553" d="M78 2173v242h243v-242h-243zM135 0v1962h283v-1962h-283z" />
<glyph unicode="&#x131;" horiz-adv-x="514" d="M135 0v1729h283v-1729h-283z" />
<glyph unicode="&#x132;" horiz-adv-x="1505" d="M135 0v1962h283v-1962h-283zM565 381v116h283v-116q0 -133 124 -133q123 0 123 133v1581h283v-1581q0 -413 -406 -413q-407 1 -407 413z" />
<glyph unicode="&#x133;" horiz-adv-x="909" d="M135 0v1729h283v-1729h-283zM508 336v102h283v-102q0 -117 124 -117q123 0 123 117v1393h283v-1393q0 -363 -406 -363q-407 0 -407 363z" />
<glyph unicode="&#x134;" horiz-adv-x="973" d="M30 381v116h283v-116q0 -133 124 -133q123 0 123 133v1581h283v-1581q0 -413 -406 -413q-407 1 -407 413zM616 2168l256 252h264l258 -252h-254l-136 93l-135 -93h-253z" />
<glyph unicode="&#x135;" horiz-adv-x="455" d="M-94 -412l34 153q52 -14 85 -14q63 0 86 41.5t23 177.5v1116h180v-1120q0 -197 -58.5 -285t-208.5 -88q-73 0 -141 19zM-88 1194l216 280h192l224 -280h-203l-111 170l-113 -170h-205z" />
<glyph unicode="&#x136;" horiz-adv-x="1057" d="M130 0v1962h283v-873l301 873h303l-374 -981l374 -981h-303l-301 872v-872h-283zM567 -409l11 117q44 -4 87 -4q167 0 167 76q0 67 -127 67q-14 0 -32 -2v105q35 4 66 4q137 0 199 -55t62 -127q0 -77 -70.5 -135t-222.5 -58q-63 0 -140 12z" />
<glyph unicode="&#x137;" horiz-adv-x="1057" d="M130 0v1729h283v-769l301 769h303l-374 -864l374 -865h-303l-301 769v-769h-283zM396 -409l11 117q44 -4 87 -4q167 0 167 76q0 67 -127 67q-14 0 -32 -2v105q35 4 66 4q137 0 199 -55t62 -127q0 -77 -70.5 -135t-222.5 -58q-63 0 -140 12z" />
<glyph unicode="&#x138;" horiz-adv-x="1024" d="M134 0v1062h180v-432l426 432h233l-406 -394l447 -668h-222l-351 543l-127 -122v-421h-180z" />
<glyph unicode="&#x139;" horiz-adv-x="904" d="M130 0v1962h283v-1683h451v-279h-734zM212 2167l274 253h222v-76l-274 -177h-222z" />
<glyph unicode="&#x13a;" horiz-adv-x="904" d="M-26 2152l274 253h222v-76l-274 -177h-222zM130 0v1729h283v-1483h451v-246h-734z" />
<glyph unicode="&#x13b;" horiz-adv-x="904" d="M130 0v1962h283v-1683h451v-279h-734zM447 -409l11 117q44 -4 87 -4q167 0 167 76q0 67 -127 67q-14 0 -32 -2v105q35 4 66 4q137 0 199 -55t62 -127q0 -77 -70.5 -135t-222.5 -58q-63 0 -140 12z" />
<glyph unicode="&#x13c;" horiz-adv-x="904" d="M-3 -409l11 117q44 -4 87 -4q167 0 167 76q0 67 -127 67q-14 0 -32 -2v105q35 4 66 4q137 0 199 -55t62 -127q0 -77 -70.5 -135t-222.5 -58q-63 0 -140 12zM130 0v1729h283v-1483h451v-246h-734z" />
<glyph unicode="&#x13d;" horiz-adv-x="1139" d="M150 0v1466h194v-1293h722v-173h-916zM700 1048q57 25 84.5 73.5t29.5 139.5h-102v205h205v-205q0 -113 -40 -182.5t-127 -107.5z" />
<glyph unicode="&#x13e;" horiz-adv-x="597" d="M136 0v1466h180v-1466h-180zM401 1089q51 23 75.5 66.5t26.5 125.5h-91v185h184v-185q0 -101 -36 -163.5t-114 -96.5z" />
<glyph unicode="&#x13f;" horiz-adv-x="904" d="M130 0v1962h283v-1683h451v-279h-734zM348 843v276h276v-276h-276z" />
<glyph unicode="&#x140;" horiz-adv-x="684" d="M130 0v1729h283v-1483h451v-246h-734zM342 843v276h276v-276h-276z" />
<glyph unicode="&#x141;" horiz-adv-x="1139" d="M0 442v167l145 124v733h194v-568l332 281v-167l-332 -281v-558h728v-173h-922v565z" />
<glyph unicode="&#x142;" horiz-adv-x="455" d="M3 464v158l130 110v734h179v-582l135 115v-157l-135 -115v-727h-179v574z" />
<glyph unicode="&#x143;" horiz-adv-x="1073" d="M130 0v1962h283l268 -1138v1138h262v-1962h-283l-258 1102v-1102h-272zM478 2167l274 253h222v-76l-274 -177h-222z" />
<glyph unicode="&#x144;" horiz-adv-x="1073" d="M130 0v1729h283l268 -1003v1003h262v-1729h-283l-258 972v-972h-272zM356 1805l274 253h222v-76l-274 -177h-222z" />
<glyph unicode="&#x145;" horiz-adv-x="1073" d="M130 0v1962h283l268 -1138v1138h262v-1962h-283l-258 1102v-1102h-272zM593 -409l11 117q44 -4 87 -4q167 0 167 76q0 67 -127 67q-14 0 -32 -2v105q35 4 66 4q137 0 199 -55t62 -127q0 -77 -70.5 -135t-222.5 -58q-63 0 -140 12z" />
<glyph unicode="&#x146;" horiz-adv-x="1073" d="M130 0v1729h283l268 -1003v1003h262v-1729h-283l-258 972v-972h-272zM357 -409l11 117q44 -4 87 -4q167 0 167 76q0 67 -127 67q-14 0 -32 -2v105q35 4 66 4q137 0 199 -55t62 -127q0 -77 -70.5 -135t-222.5 -58q-63 0 -140 12z" />
<glyph unicode="&#x147;" horiz-adv-x="1073" d="M130 0v1962h283l268 -1138v1138h262v-1962h-283l-258 1102v-1102h-272zM131 2361h253l135 -93l136 93h254l-258 -252h-264z" />
<glyph unicode="&#x148;" horiz-adv-x="1073" d="M104 2076h253l135 -93l136 93h254l-258 -252h-264zM130 0v1729h283l268 -1003v1003h262v-1729h-283l-258 972v-972h-272z" />
<glyph unicode="&#x149;" horiz-adv-x="1237" d="M130 1638v325h350v-288l-107 -364h-184l58 327h-117zM370 0v1729h283l268 -1003v1003h262v-1729h-283l-258 972v-972h-272z" />
<glyph unicode="&#x14a;" horiz-adv-x="1481" d="M165 0v1466h196v-182q115 132 228 169.5t238 37.5q181 0 295.5 -81t182.5 -233.5t68 -422.5q0 -394 -130 -586.5t-350 -192.5q-127 0 -248 72l87 153q96 -52 161 -52q77 0 142 64.5t103 196t38 340.5q0 579 -405 579q-133 0 -233.5 -62.5t-138.5 -159t-38 -305.5v-801 h-196z" />
<glyph unicode="&#x14b;" horiz-adv-x="1139" d="M139 0v1062h162v-151q117 175 338 175q130 0 218 -56t116.5 -138.5t28.5 -238.5v-711q0 -197 -58.5 -285t-208.5 -88q-73 0 -141 19l34 153q53 -14 85 -14q65 0 87 44t22 175v700q0 148 -52 216t-171 68q-117 0 -198.5 -75t-81.5 -275v-580h-180z" />
<glyph unicode="&#x14c;" horiz-adv-x="1033" d="M110 381v1200q0 412 406 412q407 0 407 -412v-1200q0 -412 -407 -413q-406 0 -406 413zM393 381q0 -133 123 -133q124 0 124 133v1200q0 132 -123 133h-2q-122 0 -122 -133v-1200zM605 2177v231h639v-231h-639z" />
<glyph unicode="&#x14d;" horiz-adv-x="1033" d="M110 336v1057q0 364 406 364q407 0 407 -364v-1057q0 -363 -407 -363q-406 0 -406 363zM365 1805v231h639v-231h-639zM393 336q0 -117 123 -117q124 0 124 117v1057q0 117 -123 118q-124 0 -124 -118v-1057z" />
<glyph unicode="&#x14e;" horiz-adv-x="1033" d="M110 381v1200q0 412 406 412q407 0 407 -412v-1200q0 -412 -407 -413q-406 0 -406 413zM393 381q0 -133 123 -133q124 0 124 133v1200q0 132 -123 133h-2q-122 0 -122 -133v-1200zM605 2417h214q31 -108 168 -108h1q139 0 169 108h214q-127 -258 -393 -258h-8 q-269 4 -365 258z" />
<glyph unicode="&#x14f;" horiz-adv-x="1033" d="M110 336v1057q0 364 406 364q407 0 407 -364v-1057q0 -363 -407 -363q-406 0 -406 363zM365 2055h214q31 -108 168 -108h1q139 0 169 108h214q-127 -258 -393 -258h-8q-269 4 -365 258zM393 336q0 -117 123 -117q124 0 124 117v1057q0 117 -123 118q-124 0 -124 -118 v-1057z" />
<glyph unicode="&#x150;" horiz-adv-x="1033" d="M110 381v1200q0 412 406 412q407 0 407 -412v-1200q0 -412 -407 -413q-406 0 -406 413zM393 381q0 -133 123 -133q124 0 124 133v1200q0 132 -123 133h-2q-122 0 -122 -133v-1200zM473 1556l121 280h234l-211 -280h-144zM820 1556l127 280h231l-207 -280h-151z" />
<glyph unicode="&#x151;" horiz-adv-x="1033" d="M110 336v1057q0 364 406 364q407 0 407 -364v-1057q0 -363 -407 -363q-406 0 -406 363zM283 1194l121 280h234l-211 -280h-144zM393 336q0 -117 123 -117q124 0 124 117v1057q0 117 -123 118q-124 0 -124 -118v-1057zM630 1194l127 280h231l-207 -280h-151z" />
<glyph unicode="&#x152;" horiz-adv-x="2048" d="M129 735q0 322 142 539t450 217q264 0 400 -223v198h831v-173h-650v-448h599v-172h-599v-500h681v-173h-862v212q-135 -237 -400 -237q-301 0 -456 232q-136 205 -136 528zM329 720q0 -303 115.5 -446t275.5 -143q161 0 275.5 142.5t114.5 471.5q0 306 -115.5 447.5 t-274.5 141.5q-101 0 -197 -65t-145 -197.5t-49 -351.5z" />
<glyph unicode="&#x153;" horiz-adv-x="1933" d="M82 518q0 169 58.5 302.5t178 199.5t265.5 66q138 0 240.5 -57.5t153.5 -145.5q64 93 164.5 148t224.5 55q220 0 356 -151t134 -452h-784q3 -166 92.5 -262.5t223.5 -96.5q99 0 170.5 55.5t103.5 166.5l180 -26q-43 -165 -160.5 -254.5t-296.5 -89.5q-134 0 -240 52.5 t-168 146.5q-76 -99 -175 -149t-221 -50q-225 0 -362.5 143t-137.5 399zM267 533q0 -186 71 -283q92 -126 239 -126q129 0 221 106t92 305q0 198 -90.5 300.5t-222.5 102.5q-87 0 -160 -49t-111.5 -145t-38.5 -211zM1080 631h587q-12 151 -91.5 229t-197.5 78 q-120 0 -203.5 -82t-94.5 -225z" />
<glyph unicode="&#x154;" horiz-adv-x="1044" d="M130 0v1962l412 -1q377 0 377 -412v-295q0 -259 -223 -341l318 -913h-310l-255 863l-36 -5v-858h-283zM411 2167l274 253h222v-76l-274 -177h-222zM413 1121h65q59 0 81 8q77 31 77 125v295q0 134 -123 134h-100v-562z" />
<glyph unicode="&#x155;" horiz-adv-x="1044" d="M130 0v1729h394q12 -1 18 -1q377 0 377 -362v-261q0 -228 -223 -300l318 -805h-310l-255 761l-36 -5v-756h-283zM150 1805l274 253h222v-76l-274 -177h-222zM413 988h65q59 0 81 8q77 27 77 109v261q0 117 -123 117h-100v-495z" />
<glyph unicode="&#x156;" horiz-adv-x="1044" d="M130 0v1962l412 -1q377 0 377 -412v-295q0 -259 -223 -341l318 -913h-310l-255 863l-36 -5v-858h-283zM413 1121h65q59 0 81 8q77 31 77 125v295q0 134 -123 134h-100v-562zM593 -409l11 117q44 -4 87 -4q167 0 167 76q0 67 -127 67q-14 0 -32 -2v105q35 4 66 4 q137 0 199 -55t62 -127q0 -77 -70.5 -135t-222.5 -58q-63 0 -140 12z" />
<glyph unicode="&#x157;" horiz-adv-x="1044" d="M130 0v1729h394q12 -1 18 -1q377 0 377 -362v-261q0 -228 -223 -300l318 -805h-310l-255 761l-36 -5v-756h-283zM144 -409l11 117q44 -4 87 -4q167 0 167 76q0 67 -127 67q-14 0 -32 -2v105q35 4 66 4q137 0 199 -55t62 -127q0 -77 -70.5 -135t-222.5 -58q-63 0 -140 12z M413 988h65q59 0 81 8q77 27 77 109v261q0 117 -123 117h-100v-495z" />
<glyph unicode="&#x158;" horiz-adv-x="1044" d="M130 0v1962l412 -1q377 0 377 -412v-295q0 -259 -223 -341l318 -913h-310l-255 863l-36 -5v-858h-283zM413 1121h65q59 0 81 8q77 31 77 125v295q0 134 -123 134h-100v-562zM456 2414h253l135 -93l136 93h254l-258 -252h-264z" />
<glyph unicode="&#x159;" horiz-adv-x="1044" d="M130 0v1729h394q12 -1 18 -1q377 0 377 -362v-261q0 -228 -223 -300l318 -805h-310l-255 761l-36 -5v-756h-283zM186 2058h253l135 -93l136 93h254l-258 -252h-264zM413 988h65q59 0 81 8q77 27 77 109v261q0 117 -123 117h-100v-495z" />
<glyph unicode="&#x15a;" horiz-adv-x="1033" d="M110 381v264h283v-264q0 -133 124 -133q123 0 123 133v224q0 142 -265 332q-265 189 -265 460v184q0 412 406 412q407 0 407 -412v-264h-283v264q0 132 -123 133h-2q-122 0 -122 -133v-178q0 -131 265 -321q265 -189 265 -453v-248q0 -413 -406 -413q-407 1 -407 413z M400 2167l274 253h222v-76l-274 -177h-222z" />
<glyph unicode="&#x15b;" horiz-adv-x="1033" d="M110 336v233h283v-233q0 -117 124 -117q123 0 123 117v197q0 126 -265 293t-265 405v162q0 364 406 364q407 0 407 -364v-232h-283v232q0 117 -123 118q-124 0 -124 -118v-156q0 -116 265 -283q265 -166 265 -399v-219q0 -363 -406 -363q-407 0 -407 363zM302 1805 l274 253h222v-76l-274 -177h-222z" />
<glyph unicode="&#x15c;" horiz-adv-x="1033" d="M110 381v264h283v-264q0 -133 124 -133q123 0 123 133v224q0 142 -265 332q-265 189 -265 460v184q0 412 406 412q407 0 407 -412v-264h-283v264q0 132 -123 133h-2q-122 0 -122 -133v-178q0 -131 265 -321q265 -189 265 -453v-248q0 -413 -406 -413q-407 1 -407 413z M498 2162l256 252h264l258 -252h-254l-136 93l-135 -93h-253z" />
<glyph unicode="&#x15d;" horiz-adv-x="1033" d="M110 336v233h283v-233q0 -117 124 -117q123 0 123 117v197q0 126 -265 293t-265 405v162q0 364 406 364q407 0 407 -364v-232h-283v232q0 117 -123 118q-124 0 -124 -118v-156q0 -116 265 -283q265 -166 265 -399v-219q0 -363 -406 -363q-407 0 -407 363zM356 1806 l256 252h264l258 -252h-254l-136 93l-135 -93h-253z" />
<glyph unicode="&#x15e;" horiz-adv-x="1033" d="M110 381v264h283v-264q0 -133 124 -133q123 0 123 133v224q0 142 -265 332q-265 189 -265 460v184q0 412 406 412q407 0 407 -412v-264h-283v264q0 132 -123 133h-2q-122 0 -122 -133v-178q0 -131 265 -321q265 -189 265 -453v-248q0 -413 -406 -413q-407 1 -407 413z M516 -216h118v-29q0 -15 20 -15t20 15v99q0 17 -18 18h-2q-17 0 -24 -17h-113l31 156h121l-31 -87q37 20 69 20q31 0 57 -20q28 -20 28 -70v-99q0 -85 -103 -93q-15 -2 -34 -2q-10 0 -20 1q-119 3 -119 94v29z" />
<glyph unicode="&#x15f;" horiz-adv-x="1033" d="M110 336v233h283v-233q0 -117 124 -117q123 0 123 117v197q0 126 -265 293t-265 405v162q0 364 406 364q407 0 407 -364v-232h-283v232q0 117 -123 118q-124 0 -124 -118v-156q0 -116 265 -283q265 -166 265 -399v-219q0 -363 -406 -363q-407 0 -407 363zM336 -206h118 v-29q0 -15 20 -15t20 15v99q0 17 -18 18h-2q-17 0 -24 -17h-113l31 156h121l-31 -87q37 20 69 20q31 0 57 -20q28 -20 28 -70v-99q0 -85 -103 -93q-15 -2 -34 -2q-10 0 -20 1q-119 3 -119 94v29z" />
<glyph unicode="&#x160;" horiz-adv-x="1033" d="M110 381v264h283v-264q0 -133 124 -133q123 0 123 133v224q0 142 -265 332q-265 189 -265 460v184q0 412 406 412q407 0 407 -412v-264h-283v264q0 132 -123 133h-2q-122 0 -122 -133v-178q0 -131 265 -321q265 -189 265 -453v-248q0 -413 -406 -413q-407 1 -407 413z M462 2414h253l135 -93l136 93h254l-258 -252h-264z" />
<glyph unicode="&#x161;" horiz-adv-x="1033" d="M110 336v233h283v-233q0 -117 124 -117q123 0 123 117v197q0 126 -265 293t-265 405v162q0 364 406 364q407 0 407 -364v-232h-283v232q0 117 -123 118q-124 0 -124 -118v-156q0 -116 265 -283q265 -166 265 -399v-219q0 -363 -406 -363q-407 0 -407 363zM165 2063h253 l135 -93l136 93h254l-258 -252h-264z" />
<glyph unicode="&#x162;" horiz-adv-x="913" d="M50 1683v279h813v-279h-265v-1683h-283v1683h-265zM477 -226h118v-29q0 -15 20 -15t20 15v99q0 17 -18 18h-2q-17 0 -24 -17h-113l31 156h121l-31 -87q37 20 69 20q31 0 57 -20q28 -20 28 -70v-99q0 -85 -103 -93q-15 -2 -34 -2q-10 0 -20 1q-119 3 -119 94v29z" />
<glyph unicode="&#x163;" horiz-adv-x="913" d="M50 1483v246h813v-246h-265v-1483h-283v1483h-265zM237 -226h118v-29q0 -15 20 -15t20 15v99q0 17 -18 18h-2q-17 0 -24 -17h-113l31 156h121l-31 -87q37 20 69 20q31 0 57 -20q28 -20 28 -70v-99q0 -85 -103 -93q-15 -2 -34 -2q-10 0 -20 1q-119 3 -119 94v29z" />
<glyph unicode="&#x164;" horiz-adv-x="913" d="M50 1683v279h813v-279h-265v-1683h-283v1683h-265zM437 2414h253l135 -93l136 93h254l-258 -252h-264z" />
<glyph unicode="&#x165;" horiz-adv-x="768" d="M35 922v140h132v263l179 108v-371h181v-140h-181v-621q0 -77 9.5 -99t31 -35t61.5 -13q30 0 79 7l26 -159q-76 -16 -136 -16q-98 0 -152 31t-76 81.5t-22 212.5v611h-132zM570 1089q51 23 75.5 66.5t26.5 125.5h-91v185h184v-185q0 -101 -36 -163.5t-114 -96.5z" />
<glyph unicode="&#x166;" horiz-adv-x="1251" d="M48 1293v173h1162v-173h-485v-532h328v-132h-328v-629h-194v629h-330v132h330v532h-483z" />
<glyph unicode="&#x167;" horiz-adv-x="569" d="M12 514v132h133v276h-132v140h132v263l180 108v-371h180v-140h-180v-276h172v-132h-172v-213q0 -85 18.5 -116t82.5 -31q32 0 79 7l26 -159q-73 -16 -134 -16q-106 0 -163.5 36t-73 94.5t-15.5 194.5v203h-133z" />
<glyph unicode="&#x168;" horiz-adv-x="1053" d="M120 381v1581h283v-1581q0 -133 123 -133q124 0 124 133v1581h283v-1581q0 -412 -407 -413q-406 0 -406 413zM550 2202l35 71q67 135 174 141h7q67 0 173 -66q51 -32 84 -32q28 0 43 23l41 67l130 -86l-41 -68q-64 -102 -158 -107h-7q-67 0 -171 66q-66 41 -79 43h-4 q-28 0 -55 -54l-35 -71z" />
<glyph unicode="&#x169;" horiz-adv-x="1053" d="M120 336v1393h283v-1393q0 -117 123 -117q124 0 124 117v1393h283v-1393q0 -363 -407 -363q-406 0 -406 363zM366 1846l35 71q67 135 174 141h7q67 0 173 -66q51 -32 84 -32q28 0 43 23l41 67l130 -86l-41 -68q-64 -102 -158 -107h-7q-67 0 -171 66q-66 41 -79 43h-4 q-28 0 -55 -54l-35 -71z" />
<glyph unicode="&#x16a;" horiz-adv-x="1053" d="M120 381v1581h283v-1581q0 -133 123 -133q124 0 124 133v1581h283v-1581q0 -412 -407 -413q-406 0 -406 413zM550 2161v231h639v-231h-639z" />
<glyph unicode="&#x16b;" horiz-adv-x="1053" d="M120 336v1393h283v-1393q0 -117 123 -117q124 0 124 117v1393h283v-1393q0 -363 -407 -363q-406 0 -406 363zM366 1805v231h639v-231h-639z" />
<glyph unicode="&#x16c;" horiz-adv-x="1053" d="M120 381v1581h283v-1581q0 -133 123 -133q124 0 124 133v1581h283v-1581q0 -412 -407 -413q-406 0 -406 413zM530 2411h214q31 -108 168 -108h1q139 0 169 108h214q-127 -258 -393 -258h-8q-269 4 -365 258z" />
<glyph unicode="&#x16d;" horiz-adv-x="1053" d="M120 336v1393h283v-1393q0 -117 123 -117q124 0 124 117v1393h283v-1393q0 -363 -407 -363q-406 0 -406 363zM366 2055h214q31 -108 168 -108h1q139 0 169 108h214q-127 -258 -393 -258h-8q-269 4 -365 258z" />
<glyph unicode="&#x16e;" horiz-adv-x="1053" d="M120 381v1581h283v-1581q0 -133 123 -133q124 0 124 133v1581h283v-1581q0 -412 -407 -413q-406 0 -406 413zM524 2179q0 198 198 198q199 0 199 -198q0 -199 -199 -199q-198 0 -198 199zM642 2179q0 -81 80 -81q81 0 81 81q0 80 -81 80q-80 0 -80 -80z" />
<glyph unicode="&#x16f;" horiz-adv-x="1053" d="M120 336v1393h283v-1393q0 -117 123 -117q124 0 124 117v1393h283v-1393q0 -363 -407 -363q-406 0 -406 363zM350 1861q0 198 198 198q199 0 199 -198q0 -199 -199 -199q-198 0 -198 199zM468 1861q0 -81 80 -81q81 0 81 81q0 80 -81 80q-80 0 -80 -80z" />
<glyph unicode="&#x170;" horiz-adv-x="1053" d="M120 381v1581h283v-1581q0 -133 123 -133q124 0 124 133v1581h283v-1581q0 -412 -407 -413q-406 0 -406 413zM465 1556l121 280h234l-211 -280h-144zM812 1556l127 280h231l-207 -280h-151z" />
<glyph unicode="&#x171;" horiz-adv-x="1053" d="M120 336v1393h283v-1393q0 -117 123 -117q124 0 124 117v1393h283v-1393q0 -363 -407 -363q-406 0 -406 363zM238 1194l121 280h234l-211 -280h-144zM585 1194l127 280h231l-207 -280h-151z" />
<glyph unicode="&#x172;" horiz-adv-x="1053" d="M120 381v1581h283v-1581q0 -133 123 -133q124 0 124 133v1581h283v-1581q0 -412 -407 -413q-406 0 -406 413zM651 -246q0 64 36 128.5t102 117.5h132q-57 -35 -88.5 -86.5t-31.5 -104.5q0 -42 23 -71t75 -29q23 0 47 6.5t44 17.5v-128q-73 -35 -136 -35q-51 0 -89 14.5 t-63.5 40t-38 58.5t-12.5 71z" />
<glyph unicode="&#x173;" horiz-adv-x="1053" d="M120 336v1393h283v-1393q0 -117 123 -117q124 0 124 117v1393h283v-1393q0 -363 -407 -363q-406 0 -406 363zM706 -246q0 64 36 128.5t102 117.5h132q-57 -35 -88.5 -86.5t-31.5 -104.5q0 -42 23 -71t75 -29q23 0 47 6.5t44 17.5v-128q-73 -35 -136 -35q-51 0 -89 14.5 t-63.5 40t-38 58.5t-12.5 71z" />
<glyph unicode="&#x174;" horiz-adv-x="1732" d="M40 1962h285l200 -1512l200 1512h281l200 -1512l200 1512h286l-92 -696l-199 -1266h-388l-147 1013l-146 -1013h-388l-200 1268zM511 2150l256 252h264l258 -252h-254l-136 93l-135 -93h-253z" />
<glyph unicode="&#x175;" horiz-adv-x="1732" d="M40 1729h285l200 -1332l200 1332h281l200 -1332l200 1332h286l-92 -613l-199 -1116h-388l-147 893l-146 -893h-388l-200 1118zM467 1792l256 252h264l258 -252h-254l-136 93l-135 -93h-253z" />
<glyph unicode="&#x176;" horiz-adv-x="1066" d="M40 1962h300l193 -765l193 765h300l-343 -1113l-8 -24v-825h-283v825l-9 24zM174 2177l256 252h264l258 -252h-254l-136 93l-135 -93h-253z" />
<glyph unicode="&#x177;" horiz-adv-x="1066" d="M40 1729h300l193 -673l193 673h300l-343 -981l-8 -21v-727h-283v727l-9 21zM160 1801l256 252h264l258 -252h-254l-136 93l-135 -93h-253z" />
<glyph unicode="&#x178;" horiz-adv-x="1066" d="M40 1962h300l193 -765l193 765h300l-343 -1113l-8 -24v-825h-283v825l-9 24zM209 2096v242h242v-242h-242zM605 2096v242h243v-242h-243z" />
<glyph unicode="&#x179;" horiz-adv-x="880" d="M80 0v170l384 1513h-371v279h690v-170l-384 -1513h401v-279h-720zM381 2167l274 253h222v-76l-274 -177h-222z" />
<glyph unicode="&#x17a;" horiz-adv-x="880" d="M80 0v150l384 1333h-371v246h690v-150l-384 -1333h401v-246h-720zM299 1805l274 253h222v-76l-274 -177h-222z" />
<glyph unicode="&#x17b;" horiz-adv-x="880" d="M80 0v170l384 1513h-371v279h690v-170l-384 -1513h401v-279h-720zM434 2173v242h243v-242h-243z" />
<glyph unicode="&#x17c;" horiz-adv-x="880" d="M80 0v150l384 1333h-371v246h690v-150l-384 -1333h401v-246h-720zM299 1811v242h243v-242h-243z" />
<glyph unicode="&#x17d;" horiz-adv-x="880" d="M80 0v170l384 1513h-371v279h690v-170l-384 -1513h401v-279h-720zM442 2414h253l135 -93l136 93h254l-258 -252h-264z" />
<glyph unicode="&#x17e;" horiz-adv-x="880" d="M65 2085h253l135 -93l136 93h254l-258 -252h-264zM80 0v150l384 1333h-371v246h690v-150l-384 -1333h401v-246h-720z" />
<glyph unicode="&#x17f;" horiz-adv-x="455" d="M137 0v1175q0 115 27 178.5t94 100.5t173 37q79 0 167 -18l-26 -157q-54 10 -106 10q-90 0 -119.5 -39.5t-29.5 -126.5v-1160h-180z" />
<glyph unicode="&#x180;" horiz-adv-x="1139" d="M20 1219v132h114v115h180v-115h376v-132h-376v-276q114 143 291 143q211 0 330.5 -151t119.5 -388q0 -233 -110 -391q-126 -180 -349 -180q-188 0 -295 157v-133h-167v1219h-114zM299 539q0 -191 52 -276q85 -139 230 -139q149 0 226 137q64 111 64 271q0 163 -58 270 q-74 136 -224 136q-147 0 -225 -132q-65 -110 -65 -267z" />
<glyph unicode="&#x181;" horiz-adv-x="1553" d="M20 1199q0 267 317 267h550q316 0 429 -181q57 -92 57 -194q0 -209 -205 -311q276 -81 276 -355q0 -215 -151 -328q-129 -97 -397 -97h-559v1293q-73 0 -99 -10q-60 -22 -60 -99q0 -31 14 -85l-153 -41q-19 68 -19 141zM531 173h365q93 0 132 7q133 24 186 122 q29 53 29 123q0 176 -158 228q-73 24 -215 24h-339v-504zM531 850h317q128 0 185 17q149 45 149 201q0 162 -135 205q-63 20 -223 20h-293v-443z" />
<glyph unicode="&#x182;" horiz-adv-x="979" d="M130 0v1962h283v-841h46q124 0 189 -21q271 -88 271 -392v-295q0 -412 -377 -412zM130 1683v279h734v-279h-734zM413 279h100q123 0 123 134v295q0 94 -77 125q-22 8 -81 8h-65v-562z" />
<glyph unicode="&#x183;" horiz-adv-x="1139" d="M134 0v1466h737v-149h-557v-374q114 143 291 143q211 0 330.5 -151t119.5 -388q0 -233 -110 -391q-126 -180 -349 -180q-188 0 -295 157v-133h-167zM299 539q0 -191 52 -276q85 -139 230 -139q149 0 226 137q64 111 64 271q0 163 -58 270q-74 136 -224 136 q-147 0 -225 -132q-65 -110 -65 -267z" />
<glyph unicode="&#x184;" horiz-adv-x="1344" d="M10 1161v33l316 272h33v-626h350q185 0 292 -33q157 -49 221 -179q48 -98 48 -202q0 -426 -548 -426h-557v996zM359 165h355q164 0 244 49q103 61 103 212q0 189 -174 229q-79 18 -268 18h-260v-508z" />
<glyph unicode="&#x185;" horiz-adv-x="1139" d="M10 1241v33l271 192h33v-523q114 143 291 143q211 0 330.5 -151t119.5 -388q0 -233 -110 -391q-126 -180 -349 -180q-188 0 -295 157v-133h-167v1086zM299 539q0 -191 52 -276q85 -139 230 -139q149 0 226 137q64 111 64 271q0 163 -58 270q-74 136 -224 136 q-147 0 -225 -132q-65 -110 -65 -267z" />
<glyph unicode="&#x186;" horiz-adv-x="1479" d="M81 1001q59 232 213 359q158 131 394 131q453 0 612 -376q77 -182 77 -393q0 -474 -336 -658q-162 -89 -356 -89q-217 0 -368 110t-211 317l191 45q98 -306 392 -306q341 0 442 299q46 137 46 281q0 401 -224 535q-115 69 -249 69q-348 0 -429 -373z" />
<glyph unicode="&#x187;" horiz-adv-x="1479" d="M102 744q0 474 337 659q161 88 355 88q242 0 400 -136q0 104 19 154q58 157 275 157q76 0 168 -18l-27 -157q-56 10 -106 10q-87 0 -120 -40q-30 -36 -30 -126v-271l-191 -45q-98 306 -392 306q-158 0 -272 -74q-121 -79 -170 -224q-46 -137 -46 -282q0 -401 224 -535 q115 -69 249 -69q348 0 429 373l194 -49q-59 -232 -213 -359q-158 -131 -394 -131q-452 0 -611 376q-78 184 -78 393z" />
<glyph unicode="&#x188;" horiz-adv-x="1024" d="M80 527q0 367 231 495q116 64 253 64q147 0 249 -64q5 44 15 72q58 157 235 157q56 0 148 -18l-27 -157q-56 10 -86 10q-47 0 -80 -40q-30 -36 -30 -126v-170l-175 -27q-50 215 -242 215q-306 0 -306 -406q0 -408 296 -408q230 0 267 265l177 -23q-28 -179 -144 -283 q-119 -107 -298 -107q-237 0 -365 160q-118 148 -118 391z" />
<glyph unicode="&#x189;" horiz-adv-x="1115" d="M58 876v211h124v875l436 -1q377 0 377 -412v-1137q0 -411 -377 -411q-6 0 -18 -1h-418v876h-124zM465 279h124q123 0 123 133v1137q0 134 -123 134h-124v-596h98v-211h-98v-597z" />
<glyph unicode="&#x18a;" horiz-adv-x="1658" d="M20 1199q0 267 317 267h507q168 0 259 -21q126 -29 215 -105q231 -196 231 -599q0 -316 -139 -509q-116 -160 -308 -207q-103 -25 -236 -25h-529v1293q-73 0 -99 -10q-60 -22 -60 -99q0 -31 14 -85l-153 -41q-19 68 -19 141zM531 173h313q256 0 359 103q146 146 146 468 q0 419 -259 519q-78 30 -251 30h-308v-1120z" />
<glyph unicode="&#x18b;" horiz-adv-x="1344" d="M74 426q0 250 206 357q110 57 355 57h350v453h-722v173h916v-1466h-557q-548 0 -548 426zM283 426q0 -150 103 -212q82 -49 244 -49h355v508h-260q-163 0 -211 -7q-128 -18 -183 -90q-48 -62 -48 -150z" />
<glyph unicode="&#x18c;" horiz-adv-x="1139" d="M70 530q0 349 212 487q106 69 237 69q187 0 293 -146v377h-558v149h737v-1466h-167v134q-101 -158 -297 -158q-131 0 -238 73q-103 71 -160 193q-59 127 -59 288zM255 530q0 -160 63 -271q77 -135 226 -135q148 0 222 128q61 105 61 263q0 171 -59 281q-76 141 -232 141 q-151 0 -224 -136q-57 -106 -57 -271z" />
<glyph unicode="&#x18d;" horiz-adv-x="1140" d="M72 542q0 243 128 390q135 154 375 154q233 0 367 -156q126 -147 126 -384q0 -220 -110 -365q-120 -159 -334 -167q93 -65 342 -288v-130h-801v146h560q-99 101 -313 249q-183 127 -253 228q-87 127 -87 323zM257 547q0 -163 73 -270q84 -124 240 -124q153 0 239 125 q75 109 75 270q0 157 -79 267q-88 123 -239 123q-121 0 -215 -94.5t-94 -296.5z" />
<glyph unicode="&#x18e;" horiz-adv-x="1366" d="M110 0v173h900v499h-811v172h811v449h-866v173h1060v-1466h-1094z" />
<glyph unicode="&#x18f;" horiz-adv-x="1541" d="M99 749v94h1141q-12 220 -129 346q-124 132 -340 132q-317 0 -400 -307l-190 50q56 208 216 320q153 107 373 107q200 0 359 -98q163 -99 245 -279q71 -154 75 -365q7 -333 -158 -550q-170 -224 -517 -224q-346 0 -516 224q-159 210 -159 550zM300 670q11 -246 137 -389 t337 -143t337 143t137 389h-948z" />
<glyph unicode="&#x190;" horiz-adv-x="1237" d="M83 419q0 125 71.5 223.5t191.5 131.5q-194 113 -194 318q0 184 145 296q132 103 322 103q447 0 516 -467l-186 -42q0 78 -38.5 159.5t-99.5 124.5q-78 55 -190 55t-191 -62q-85 -67 -85 -176q0 -77 52.5 -142t126.5 -81t206 -16v-169h-93q-144 0 -238 -58 q-112 -70 -112 -206q0 -129 105 -204q93 -66 227 -66q132 0 233 96q96 91 122 225l185 -48q-125 -439 -541 -439q-217 0 -368 111q-167 124 -167 333z" />
<glyph unicode="&#x191;" horiz-adv-x="1251" d="M-60 -412l34 153q54 -14 85 -14q77 0 99 77q10 36 10 142v1520h989v-173h-795v-454h688v-173h-688v-724q0 -173 -51 -260q-67 -113 -230 -113q-73 0 -141 19z" />
<glyph unicode="&#x192;" horiz-adv-x="1139" d="M46 -405l35 155q101 -22 152 -22q54 0 83 28t45 124l177 1042h-201l24 140h201l24 133q22 120 45 165q31 62 88.5 97t150.5 35q80 0 215 -38l-35 -153q-103 24 -154 24q-56 0 -84 -27.5t-47 -132.5l-19 -103h204l-25 -140h-204l-191 -1092q-26 -148 -87 -204.5 t-173 -56.5q-94 0 -224 26z" />
<glyph unicode="&#x193;" horiz-adv-x="1593" d="M109 726q0 211 83 387q93 196 264 288q168 90 387 90q261 0 421 -127q1 97 19 145q58 157 275 157q76 0 168 -18l-27 -157q-56 10 -106 10q-87 0 -120 -40q-30 -36 -30 -126v-279l-175 -48q-62 211 -222 279q-90 38 -202 38q-253 0 -386 -147q-149 -165 -149 -440 q0 -393 264 -524q129 -64 274 -64q106 0 226 41q126 44 202 111v273h-431v172l621 1v-544q-287 -229 -607 -229q-211 0 -382 88q-186 95 -276.5 271t-90.5 392z" />
<glyph unicode="&#x194;" horiz-adv-x="1278" d="M15 1466h212l412 -968l412 968h212l-523 -1204l106 -250q45 -106 45 -180q0 -263 -252 -263t-252 263q0 74 45 180l106 250zM571 -173q0 -92 68 -92t68 92q0 50 -25 106l-43 97l-42 -97q-26 -60 -26 -106z" />
<glyph unicode="&#x195;" horiz-adv-x="1804" d="M135 0v1466h180v-526q126 146 318 146q250 0 330 -175q37 -81 37 -238v-240q0 -131 55 -213q64 -96 189 -96q73 0 135.5 42t88.5 110q23 60 23 171v615h179v-622q0 -216 -105 -337q-112 -127 -324 -127q-124 0 -225 54q-110 59 -157 166q-39 88 -39 237v240 q0 258 -224 258q-81 0 -149 -40q-72 -42 -102 -113.5t-30 -196.5v-581h-180z" />
<glyph unicode="&#x196;" horiz-adv-x="455" d="M131 0v1466h180v-1466h-180z" />
<glyph unicode="&#x197;" horiz-adv-x="569" d="M31 667v132h160v667h194v-667h160v-132h-160v-667h-194v667h-160z" />
<glyph unicode="&#x198;" horiz-adv-x="1366" d="M150 0v1175q0 165 66 237q71 79 243 79q76 0 168 -18l-27 -157q-56 10 -106 10q-87 0 -118.5 -38.5t-31.5 -128.5v-420l728 727h263l-615 -594l642 -872h-256l-522 742l-240 -234v-508h-194z" />
<glyph unicode="&#x199;" horiz-adv-x="1024" d="M136 0v1176q0 161 69.5 238t225.5 77q76 0 168 -18l-27 -157q-56 10 -106 10q-87 0 -120 -40q-30 -36 -30 -126v-530l426 432h233l-406 -394l447 -668h-222l-351 543l-127 -122v-421h-180z" />
<glyph unicode="&#x19a;" horiz-adv-x="455" d="M21 667v132h110v667h180v-667h110v-132h-110v-667h-180v667h-110z" />
<glyph unicode="&#x19b;" horiz-adv-x="1024" d="M24 0l394 1042l-56 151l-222 -104l-44 103l227 106l-63 168h190l35 -93l199 93l45 -102l-205 -96l474 -1268h-190l-297 794l-297 -794h-190z" />
<glyph unicode="&#x19c;" horiz-adv-x="1824" d="M164 333v1133h193v-1063q0 -261 203 -261q134 0 201 93q59 81 59 220v1011h194v-1084q0 -240 188 -240q263 0 263 379v945h194v-1466h-175v149q-111 -173 -322 -173q-248 0 -314 186q-126 -186 -328 -186q-171 0 -263.5 95t-92.5 262z" />
<glyph unicode="&#x19d;" horiz-adv-x="1479" d="M-72 -412l34 153q54 -14 85 -14q77 0 99 78q10 35 10 142v1519h199l770 -1151v1151h186v-1466h-199l-770 1152v-1209q0 -176 -47 -260q-64 -114 -226 -114q-73 0 -141 19z" />
<glyph unicode="&#x19e;" horiz-adv-x="1139" d="M139 0v1062h162v-151q117 175 338 175q111 0 200 -46q102 -52 135 -148q28 -81 28 -239v-1060h-180v1053q0 136 -43 203q-52 81 -180 81q-280 0 -280 -350v-580h-180z" />
<glyph unicode="&#x19f;" horiz-adv-x="1593" d="M96 714q0 341 177 552q190 226 525 226q326 0 518 -221q182 -209 182 -540q0 -328 -184 -537q-194 -219 -517 -219q-207 0 -374 103q-174 106 -253 292q-74 175 -74 344zM298 647q15 -206 134 -346q136 -160 364 -160q218 0 353 146q126 137 145 360h-996zM301 819h993 q-19 219 -136 350q-140 156 -359 156q-215 0 -359 -147q-118 -120 -139 -359z" />
<glyph unicode="&#x1a0;" horiz-adv-x="1756" d="M99 714q0 360 196 572q191 206 506 206q227 0 402.5 -123.5t248.5 -331.5q91 49 128 105q30 45 29 131h-94v209h193v-165q0 -124 -38 -190q-52 -91 -195 -167q26 -108 26 -229q0 -224 -90.5 -399.5t-255 -266t-355.5 -90.5q-206 0 -369.5 99.5t-247.5 273t-84 366.5z M299 711q0 -260 143 -418q138 -152 357 -152q224 0 361 154q141 160 141 437q0 370 -237 520q-117 73 -262 73q-223 0 -354 -141q-149 -160 -149 -473z" />
<glyph unicode="&#x1a1;" horiz-adv-x="1343" d="M68 531q0 295 164 437q137 118 334 118q219 0 358 -143q105 -109 131 -281q68 42 97.5 87t28.5 130h-94v209h193v-165q0 -124 -38 -190q-49 -86 -179 -158v-29q0 -372 -240 -505q-118 -65 -257 -65q-228 0 -361 143q-137 148 -137 412zM253 531q0 -197 89 -305 q84 -102 224 -102t223 102q89 109 89 311q0 191 -90 298q-84 102 -222 102q-141 0 -224 -101q-89 -108 -89 -305z" />
<glyph unicode="&#x1a2;" horiz-adv-x="1778" d="M99 714q0 341 178 552q190 226 524 226q196 0 385 -102l397 102h30v-1899h-194v1680h-194v-1163q-180 -135 -425 -135q-310 0 -507 213q-194 209 -194 526zM299 711q0 -242 127 -400q137 -170 373 -170q131 0 232 53v1079q-108 52 -229 52q-259 0 -389 -184 q-114 -160 -114 -430z" />
<glyph unicode="&#x1a3;" horiz-adv-x="1367" d="M68 531q0 295 164 437q137 118 334 118q146 0 294 -78l336 78h24v-1493h-180v1344h-180v-874q-132 -87 -294 -87q-242 0 -375 159q-123 148 -123 396zM253 531q0 -170 70 -279q82 -128 243 -128q63 0 114 21v769q-53 23 -114 23q-161 0 -244 -128q-69 -107 -69 -278z" />
<glyph unicode="&#x1a4;" horiz-adv-x="1545" d="M20 1201q0 265 317 265h551q144 0 225 -14q214 -37 299 -210q44 -90 44 -200q0 -446 -549 -446h-376v-596h-194v1293q-74 0 -99 -9q-60 -21 -60 -98q0 -31 14 -85l-153 -41q-19 68 -19 141zM531 769h379q346 0 346 267q0 88 -42 153q-45 69 -127 91q-48 13 -181 13h-375 v-524z" />
<glyph unicode="&#x1a5;" horiz-adv-x="1139" d="M134 -407v1582q0 159 62 233q69 83 232 83q76 0 168 -18l-27 -157q-56 10 -106 10q-88 0 -120 -41q-29 -36 -29 -127v-234q116 162 293 162q284 0 395 -267q53 -128 53 -280q0 -351 -228 -493q-112 -70 -233 -70q-174 0 -280 134v-517h-180zM297 525q0 -162 60 -268 q74 -133 225 -133q152 0 228 139q61 111 61 277q0 160 -60 269q-75 136 -221 136q-148 0 -228 -144q-65 -117 -65 -276z" />
<glyph unicode="&#x1a6;" horiz-adv-x="1366" d="M158 0v1466h194v-173h359q145 0 224 -14q214 -38 298 -211q44 -91 44 -200q0 -185 -119 -315q-102 -111 -344 -127l548 -745h-256l-522 742h-232v-423h-194zM352 596h379q346 0 346 266q0 87 -42 152q-46 69 -126 92q-50 14 -182 14h-375v-524z" />
<glyph unicode="&#x1a7;" horiz-adv-x="1366" d="M107 414q0 243 250 358q58 27 330 93q235 58 287 105q57 51 57 130q0 120 -116 177q-87 43 -221 43q-327 0 -357 -281l-186 14q11 279 264 386q123 52 287 52q325 0 453 -196q63 -97 63 -208q0 -209 -208 -319q-89 -47 -268 -89q-208 -48 -276 -74q-172 -66 -172 -207 q0 -151 168 -216q85 -33 196 -33q109 0 206 36q114 43 167 122q47 70 60 180l183 -16q-4 -148 -80.5 -264t-211 -174t-333.5 -58q-145 0 -266 51q-137 58 -209 168q-67 104 -67 220z" />
<glyph unicode="&#x1a8;" horiz-adv-x="1024" d="M79 312q0 179 162 249q70 30 266 83q133 36 159 46q91 36 91 111q0 137 -230 137q-207 0 -232 -174l-176 24q33 197 202 262q95 36 219 36q168 0 270 -74q121 -88 121 -232q0 -169 -155 -243q-78 -37 -275 -87q-148 -37 -184 -61q-53 -35 -53 -96q0 -88 83 -133 q66 -36 161 -36q244 0 275 221l178 -28q-61 -341 -454 -341q-265 0 -375 167q-53 80 -53 169z" />
<glyph unicode="&#x1a9;" horiz-adv-x="1266" d="M148 0v202l479 559l-479 510v195h997v-173h-787l500 -532l-500 -588h828v-173h-1038z" />
<glyph unicode="&#x1aa;" horiz-adv-x="779" d="M68 1308q0 78 52 130.5t128 52.5q135 0 211.5 -85.5t76.5 -240.5v-1219q0 -106 10 -142q22 -77 99 -77q31 0 85 14l34 -153q-68 -19 -141 -19q-150 0 -216 100q-51 78 -51 273v1216q-37 -37 -107 -37q-80 0 -130.5 54t-50.5 133zM144 1308q0 -47 28.5 -79t77.5 -32 q48 0 78 33q28 30 28 76t-29 77.5t-77 31.5t-77 -31t-29 -76z" />
<glyph unicode="&#x1ab;" horiz-adv-x="569" d="M36 922v140h132v263l179 108v-371h181v-140h-181v-621q0 -78 14 -105q21 -42 88 -42q30 0 79 7v-219q0 -195 -51 -273q-66 -100 -216 -100q-73 0 -141 19l34 153q54 -14 85 -14q77 0 99 77q9 35 9 142v45q-118 18 -157 108q-22 51 -22 212v611h-132z" />
<glyph unicode="&#x1ac;" horiz-adv-x="1251" d="M20 1199q0 267 318 267h872v-173h-485v-1293h-194v1293h-194q-73 0 -99 -10q-60 -22 -60 -99q0 -31 14 -85l-153 -41q-19 68 -19 141z" />
<glyph unicode="&#x1ad;" horiz-adv-x="569" d="M36 922v140h132v113q0 159 62 233q69 83 232 83q76 0 168 -18l-27 -157q-56 10 -106 10q-87 0 -120 -40q-30 -36 -30 -125v-99h181v-140h-181v-621q0 -78 14 -105q21 -42 88 -42q30 0 79 7l26 -159q-76 -16 -136 -16q-179 0 -228 113q-22 51 -22 212v611h-132z" />
<glyph unicode="&#x1ae;" horiz-adv-x="1251" d="M48 1293v173h1162v-173h-485v-1346q0 -107 10 -142q22 -78 99 -78q31 0 85 14l34 -153q-68 -19 -141 -19q-163 0 -230 113q-51 87 -51 260v1351h-483z" />
<glyph unicode="&#x1af;" horiz-adv-x="1749" d="M161 619v847h194v-846q0 -189 36 -282q34 -89 121 -138.5t212 -49.5q219 0 305 97q91 102 91 373v846h194v-493q156 16 226 124q27 42 27 160h-94v209h193v-165q0 -157 -36 -219q-99 -173 -316 -183v-280q0 -225 -50 -351q-52 -131 -180 -211q-131 -82 -343 -82 q-409 0 -524 277q-56 134 -56 367z" />
<glyph unicode="&#x1b0;" horiz-adv-x="1371" d="M131 404v658h180v-589q0 -143 11 -190q35 -152 208 -152q83 0 153.5 42t99.5 113t29 207v569h180v-488q127 22 190 119q28 42 28 160h-94v209h193v-165q0 -157 -36 -219q-92 -160 -281 -180v-498h-161v156q-124 -180 -337 -180q-93 0 -174.5 35.5t-121.5 90.5t-56 134 q-11 54 -11 168z" />
<glyph unicode="&#x1b1;" horiz-adv-x="1531" d="M97 1293v173h571v-162q-354 -170 -354 -611q0 -224 113 -379q126 -173 342 -173q217 0 342 178q110 157 110 384q0 435 -356 601v162h570v-173h-320q304 -254 304 -620q0 -308 -173 -500q-178 -198 -476 -198q-404 0 -577 341q-80 158 -80 357q0 366 304 620h-320z" />
<glyph unicode="&#x1b2;" horiz-adv-x="1479" d="M161 619v847h194v-846q0 -470 369 -470q258 0 347 346q49 191 49 576q0 255 -150 255q-50 0 -106 -10l-27 157q92 18 168 18q144 0 225 -105q84 -110 84 -315q0 -499 -87 -736q-134 -361 -503 -361q-307 0 -442 172q-121 153 -121 472z" />
<glyph unicode="&#x1b3;" horiz-adv-x="1582" d="M16 1466h236l438 -690l328 512q131 204 262 204q111 0 279 -118l-90 -140q-106 72 -164 72t-135 -112l-395 -573v-621h-194v621z" />
<glyph unicode="&#x1b4;" horiz-adv-x="1024" d="M33 1062h194l221 -615q46 -127 77 -246q32 127 74 242l305 831q40 108 86 156q61 62 163 62q110 0 282 -112l-84 -135q-116 67 -184 67q-69 0 -112 -116l-453 -1214q-65 -175 -101 -241q-93 -172 -258 -172q-52 0 -116 22l-20 169q59 -16 103 -16q107 0 155 76 q17 28 55 134q4 10 13 35l3 9z" />
<glyph unicode="&#x1b5;" horiz-adv-x="1251" d="M41 0v180l395 487h-395v132h502l401 494h-818v173h1050v-173l-402 -494h426v-132h-534l-402 -494h936v-173h-1159z" />
<glyph unicode="&#x1b6;" horiz-adv-x="1024" d="M40 0v146l295 339h-295v132h410l266 305q-149 -6 -203 -6h-433v146h868v-119l-281 -326h313v-132h-426l-292 -339q161 9 227 9h491v-155h-940z" />
<glyph unicode="&#x1b7;" horiz-adv-x="1251" d="M41 -4l191 45q27 -140 128 -223t235 -83q217 0 322 159q85 128 85 331q0 415 -487 415v175l429 478h-818v173h1050v-173l-436 -492q176 -19 293 -125q169 -151 169 -450q0 -282 -146 -459q-163 -198 -465 -198q-216 0 -360 111.5t-190 315.5z" />
<glyph unicode="&#x1b8;" horiz-adv-x="1251" d="M49 226q0 299 169 450q117 106 293 125l-436 492v173h1050v-173h-818l429 -478v-175q-487 0 -487 -415q0 -203 85 -331q105 -159 322 -159q134 0 235 83t128 223l191 -45q-46 -204 -190 -315.5t-360 -111.5q-302 0 -465 198q-146 177 -146 459z" />
<glyph unicode="&#x1b9;" horiz-adv-x="1116" d="M68 97q0 206 128 337q119 121 300 134l-369 375v119h868v-146h-433q-54 0 -203 6l336 -350v-159h-93q-154 0 -246 -84q-97 -89 -97 -248q0 -148 80 -251q87 -113 230 -113q120 0 195 83q68 75 87 200l189 -16q-19 -192 -148 -303.5t-323 -111.5q-222 0 -363 154 q-138 151 -138 374z" />
<glyph unicode="&#x1ba;" horiz-adv-x="1116" d="M63 -115q0 154 158 231q52 26 300 91q130 34 176 57q74 36 74 89q0 100 -368 100v159l336 310q-149 -6 -203 -6h-423v146h868v-119l-369 -335q156 -16 232 -63q101 -62 101 -192q0 -134 -126 -213q-89 -56 -294 -107q-151 -38 -171 -46q-106 -43 -106 -121q0 -79 97 -118 q75 -31 177 -31q126 0 221 49q109 56 119 152l178 -28q-37 -165 -188 -248q-132 -73 -331 -73q-184 0 -304 64q-154 82 -154 252z" />
<glyph unicode="&#x1bb;" horiz-adv-x="1139" d="M62 0q-2 64 21 125q69 184 354 417q83 68 146 125h-521v132h654q25 28 44 54q84 115 84 226q0 115 -82 191q-79 73 -194 73q-133 0 -209.5 -84t-77.5 -220l-185 19q19 208 143.5 321t332.5 113q192 0 321 -110q136 -116 136 -307q0 -141 -89 -276h91v-132h-201 q-86 -88 -234 -212q-139 -117 -153 -130q-87 -80 -131 -152h719v-173h-969z" />
<glyph unicode="&#x1bc;" horiz-adv-x="1139" d="M85 384l189 16q19 -123 87 -196q76 -81 195 -81q144 0 230 110q80 101 80 248q0 149 -81 239q-85 93 -232 93h-279v481h-189v172h903v-172h-520v-322h133q201 0 330 -138q126 -135 126 -337q0 -198 -116 -344q-142 -178 -385 -178q-194 0 -321 107q-131 111 -150 302z " />
<glyph unicode="&#x1bd;" horiz-adv-x="939" d="M50 299l169 36q22 -96 90 -155t165 -59q85 0 147 52q65 56 65 141q0 126 -95 169q-59 27 -192 27h-180v403h-169v149h780v-149h-431v-262q214 0 315 -51q152 -78 152 -293q0 -161 -122 -251q-108 -80 -273 -80q-363 0 -421 323z" />
<glyph unicode="&#x1be;" horiz-adv-x="997" d="M36 317l178 28q31 -221 275 -221q96 0 162 36q82 45 82 133q0 74 -77 114q-31 16 -140 43q-177 45 -243 93q-105 77 -105 237v142h-132v140h132v263l179 108v-371h181v-140h-181v-121q0 -76 51 -113q29 -22 112 -44q216 -58 276 -93q132 -78 132 -239q0 -163 -139 -256 q-120 -80 -289 -80q-393 0 -454 341z" />
<glyph unicode="&#x1bf;" horiz-adv-x="1139" d="M135 -407v1469h180v-112q119 136 302 136q223 0 338 -139q102 -125 102 -338q0 -214 -119 -371q-95 -125 -284 -233q-57 -32 -339 -165v-247h-180zM315 0q301 151 381 220q177 150 177 390q0 141 -56 227q-69 108 -217 108q-144 0 -222 -144q-63 -117 -63 -276v-525z" />
<glyph unicode="&#x1c0;" horiz-adv-x="532" d="M188 0v1491h157v-1491h-157z" />
<glyph unicode="&#x1c1;" horiz-adv-x="846" d="M188 0v1491h157v-1491h-157zM502 0v1491h157v-1491h-157z" />
<glyph unicode="&#x1c2;" horiz-adv-x="1196" d="M114 417v168h405v277h-405v168h405v461h157v-461h406v-168h-406v-277h406v-168h-406v-417h-157v417h-405z" />
<glyph unicode="&#x1c3;" horiz-adv-x="565" d="M120 0v325h325v-325h-325zM120 1962h325l-21 -1432h-283z" />
<glyph unicode="&#x1c4;" horiz-adv-x="2730" d="M130 0v1962l436 -1q377 0 377 -412v-1137q0 -411 -377 -411q-6 0 -18 -1h-418zM413 279h124q123 0 123 133v1137q0 134 -123 134h-124v-1404zM1559 0v170l384 1513h-371v279h690v-170l-384 -1513h401v-279h-720zM1945 2414h253l135 -93l136 93h254l-258 -252h-264z" />
<glyph unicode="&#x1c5;" horiz-adv-x="2503" d="M130 0v1962l436 -1q377 0 377 -412v-1137q0 -411 -377 -411q-6 0 -18 -1h-418zM413 279h124q123 0 123 133v1137q0 134 -123 134h-124v-1404zM1559 0v150l384 1333h-371v246h690v-150l-384 -1333h401v-246h-720zM1774 2058h253l135 -93l136 93h254l-258 -252h-264z" />
<glyph unicode="&#x1c6;" horiz-adv-x="2148" d="M130 0v1729h418q12 -1 18 -1q377 0 377 -362v-1002q0 -363 -377 -363h-18zM413 246h124q123 0 123 118v1002q0 117 -123 117h-124v-1237zM1204 0v150l384 1333h-371v246h690v-150l-384 -1333h401v-246h-720zM1419 2058h253l135 -93l136 93h254l-258 -252h-264z" />
<glyph unicode="&#x1c7;" horiz-adv-x="2175" d="M130 0v1962h283v-1683h451v-279h-734zM1181 381v116h283v-116q0 -133 124 -133q123 0 123 133v1581h283v-1581q0 -413 -406 -413q-407 1 -407 413z" />
<glyph unicode="&#x1c8;" horiz-adv-x="1706" d="M130 0v1962h283v-1683h451v-279h-734zM1281 336v102h283v-102q0 -117 124 -117q123 0 123 117v1393h283v-1393q0 -363 -406 -363q-407 0 -407 363z" />
<glyph unicode="&#x1c9;" horiz-adv-x="924" d="M130 0v1729h283v-1483h451v-246h-734zM499 336v102h283v-102q0 -117 124 -117q123 0 123 117v1393h283v-1393q0 -363 -406 -363q-407 0 -407 363z" />
<glyph unicode="&#x1ca;" horiz-adv-x="2503" d="M130 0v1962h283l268 -1138v1138h262v-1962h-283l-258 1102v-1102h-272zM1509 381v116h283v-116q0 -133 124 -133q123 0 123 133v1581h283v-1581q0 -413 -406 -413q-407 1 -407 413z" />
<glyph unicode="&#x1cb;" horiz-adv-x="1934" d="M130 0v1962h283l268 -1138v1138h262v-1962h-283l-258 1102v-1102h-272zM1509 336v102h283v-102q0 -117 124 -117q123 0 123 117v1393h283v-1393q0 -363 -406 -363q-407 0 -407 363z" />
<glyph unicode="&#x1cc;" horiz-adv-x="1579" d="M130 0v1729h283l268 -1003v1003h262v-1729h-283l-258 972v-972h-272zM1154 336v102h283v-102q0 -117 124 -117q123 0 123 117v1393h283v-1393q0 -363 -406 -363q-407 0 -407 363z" />
<glyph unicode="&#x1cd;" horiz-adv-x="1051" d="M40 0l92 693l200 1269h388l199 -1266l92 -696h-286l-55 416h-289l-56 -416h-285zM417 696h216l-108 816zM476 2409h253l135 -93l136 93h254l-258 -252h-264z" />
<glyph unicode="&#x1ce;" horiz-adv-x="1051" d="M40 0l92 611l200 1118h388l199 -1115l92 -614h-286l-55 368h-289l-56 -368h-285zM411 2058h253l135 -93l136 93h254l-258 -252h-264zM417 614h216l-108 718z" />
<glyph unicode="&#x1cf;" horiz-adv-x="553" d="M96 2409h253l135 -93l136 93h254l-258 -252h-264zM135 0v1962h283v-1962h-283z" />
<glyph unicode="&#x1d0;" horiz-adv-x="455" d="M46 2058h253l135 -93l136 93h254l-258 -252h-264zM136 0v1062h180v-1062h-180z" />
<glyph unicode="&#x1d1;" horiz-adv-x="1033" d="M110 381v1200q0 412 406 412q407 0 407 -412v-1200q0 -412 -407 -413q-406 0 -406 413zM393 381q0 -133 123 -133q124 0 124 133v1200q0 132 -123 133h-2q-122 0 -122 -133v-1200zM616 2409h253l135 -93l136 93h254l-258 -252h-264z" />
<glyph unicode="&#x1d2;" horiz-adv-x="1033" d="M110 336v1057q0 364 406 364q407 0 407 -364v-1057q0 -363 -407 -363q-406 0 -406 363zM376 2058h253l135 -93l136 93h254l-258 -252h-264zM393 336q0 -117 123 -117q124 0 124 117v1057q0 117 -123 118q-124 0 -124 -118v-1057z" />
<glyph unicode="&#x1d3;" horiz-adv-x="1053" d="M120 381v1581h283v-1581q0 -133 123 -133q124 0 124 133v1581h283v-1581q0 -412 -407 -413q-406 0 -406 413zM566 2409h253l135 -93l136 93h254l-258 -252h-264z" />
<glyph unicode="&#x1d4;" horiz-adv-x="1053" d="M120 336v1393h283v-1393q0 -117 123 -117q124 0 124 117v1393h283v-1393q0 -363 -407 -363q-406 0 -406 363zM386 2058h253l135 -93l136 93h254l-258 -252h-264z" />
<glyph unicode="&#x1d5;" horiz-adv-x="1053" d="M120 381v1581h283v-1581q0 -133 123 -133q124 0 124 133v1581h283v-1581q0 -412 -407 -413q-406 0 -406 413zM492 1496v147h135v-147h-135zM492 1726v117h516v-117h-516zM873 1496v147h135v-147h-135z" />
<glyph unicode="&#x1d6;" horiz-adv-x="1053" d="M120 336v1393h283v-1393q0 -117 123 -117q124 0 124 117v1393h283v-1393q0 -363 -407 -363q-406 0 -406 363zM350 1806v242h242v-242h-242zM350 2175v231h639v-231h-639zM746 1806v242h243v-242h-243z" />
<glyph unicode="&#x1d7;" horiz-adv-x="1053" d="M120 381v1581h283v-1581q0 -133 123 -133q124 0 124 133v1581h283v-1581q0 -412 -407 -413q-406 0 -406 413zM492 1496v147h135v-147h-135zM642 1666l135 178h226l-231 -178h-130zM873 1496v147h135v-147h-135z" />
<glyph unicode="&#x1d8;" horiz-adv-x="1053" d="M120 336v1393h283v-1393q0 -117 123 -117q124 0 124 117v1393h283v-1393q0 -363 -407 -363q-406 0 -406 363zM350 1806v242h242v-242h-242zM361 2175l274 253h222v-76l-274 -177h-222zM746 1806v242h243v-242h-243z" />
<glyph unicode="&#x1d9;" horiz-adv-x="1053" d="M120 381v1581h283v-1581q0 -133 123 -133q124 0 124 133v1581h283v-1581q0 -412 -407 -413q-406 0 -406 413zM492 1496v147h135v-147h-135zM522 1844h149l81 -98l79 98h147l-162 -177h-138zM873 1496v147h135v-147h-135z" />
<glyph unicode="&#x1da;" horiz-adv-x="1053" d="M120 336v1393h283v-1393q0 -117 123 -117q124 0 124 117v1393h283v-1393q0 -363 -407 -363q-406 0 -406 363zM350 1806v242h242v-242h-242zM386 2428h253l135 -93l136 93h254l-258 -252h-264zM746 1806v242h243v-242h-243z" />
<glyph unicode="&#x1db;" horiz-adv-x="1053" d="M120 381v1581h283v-1581q0 -133 123 -133q124 0 124 133v1581h283v-1581q0 -412 -407 -413q-406 0 -406 413zM492 1496v147h135v-147h-135zM497 1844h226l135 -178h-130zM873 1496v147h135v-147h-135z" />
<glyph unicode="&#x1dc;" horiz-adv-x="1053" d="M120 336v1393h283v-1393q0 -117 123 -117q124 0 124 117v1393h283v-1393q0 -363 -407 -363q-406 0 -406 363zM335 2352v76h222l274 -253h-222zM350 1806v242h242v-242h-242zM746 1806v242h243v-242h-243z" />
<glyph unicode="&#x1dd;" horiz-adv-x="1139" d="M85 529q0 16 1 48h792q-9 156 -85 252q-86 109 -236 109q-202 0 -280 -218l-186 23q93 343 467 343q246 0 380 -152q126 -144 126 -394q0 -247 -122 -399q-133 -165 -374 -165q-235 0 -365 163q-118 149 -118 390zM275 429q12 -134 68 -201q86 -104 223 -104 q132 0 214 88q79 83 88 217h-593z" />
<glyph unicode="&#x1de;" horiz-adv-x="1051" d="M40 0l92 693l200 1269h388l199 -1266l92 -696h-286l-55 416h-289l-56 -416h-285zM402 1496v147h135v-147h-135zM402 1726v117h516v-117h-516zM417 696h216l-108 816zM783 1496v147h135v-147h-135z" />
<glyph unicode="&#x1df;" horiz-adv-x="1051" d="M40 0l92 611l200 1118h388l199 -1115l92 -614h-286l-55 368h-289l-56 -368h-285zM372 1806v242h242v-242h-242zM372 2175v231h639v-231h-639zM417 614h216l-108 718zM768 1806v242h243v-242h-243z" />
<glyph unicode="&#x1e0;" horiz-adv-x="1051" d="M40 0l92 693l200 1269h388l199 -1266l92 -696h-286l-55 416h-289l-56 -416h-285zM412 1726v117h516v-117h-516zM417 696h216l-108 816zM602 1496v147h135v-147h-135z" />
<glyph unicode="&#x1e1;" horiz-adv-x="1051" d="M40 0l92 611l200 1118h388l199 -1115l92 -614h-286l-55 368h-289l-56 -368h-285zM372 1868v242h243v-242h-243zM372 2175v231h639v-231h-639zM417 614h216l-108 718z" />
<glyph unicode="&#x1e2;" horiz-adv-x="1478" d="M60 0l92 693l200 1269h933v-279h-451v-562h388v-280h-388v-562h451v-279h-734v416h-150l-56 -416h-285zM437 696h114v771l-6 45zM1090 2141v231h639v-231h-639z" />
<glyph unicode="&#x1e3;" horiz-adv-x="1568" d="M60 0l92 611l200 1118h934v-246h-451v-495h388v-246h-388v-496h451v-246h-734v368h-151l-56 -368h-285zM437 614h115v671l-7 47zM700 1805v231h639v-231h-639z" />
<glyph unicode="&#x1e4;" horiz-adv-x="1593" d="M109 726q0 349 197 557t537 208q488 0 600 -435l-175 -48q-93 317 -424 317q-264 0 -405 -168q-130 -156 -130 -419q0 -269 136 -425q142 -163 402 -163q108 0 227 41q124 43 201 111h-431v132h431v141h-431v172h621v-313h104v-132h-104v-98q-287 -229 -607 -229 q-344 0 -548 208q-201 205 -201 543z" />
<glyph unicode="&#x1e5;" horiz-adv-x="1139" d="M26 0h786q8 64 7 199q-118 -139 -294 -139q-221 0 -344 143q-115 134 -115 354q0 229 114 373q124 156 346 156q188 0 310 -152v128h166v-858q0 -118 -12 -204h72v-92h-90q-85 -339 -450 -339q-176 0 -285 62q-118 67 -135 195h175q34 -108 244 -108q215 0 272 190h-767 v92zM251 570q0 -361 291 -361q292 0 292 355q0 156 -66 256q-78 117 -229 117q-148 0 -224 -116q-64 -97 -64 -251z" />
<glyph unicode="&#x1e6;" horiz-adv-x="1033" d="M110 381v1200q0 412 406 412q407 0 407 -412v-264h-283v264q0 132 -123 133h-2q-122 0 -122 -133v-1200q0 -133 123 -133q124 0 124 133v460h-143v280h426v-740q0 -412 -407 -413q-406 0 -406 413zM657 2409h253l135 -93l136 93h254l-258 -252h-264z" />
<glyph unicode="&#x1e7;" horiz-adv-x="1033" d="M110 336v1057q0 364 406 364q407 0 407 -364v-232h-283v232q0 117 -123 118q-124 0 -124 -118v-1057q0 -117 123 -117q124 0 124 117v406h-143v246h426v-652q0 -363 -407 -363q-406 0 -406 363zM354 2058h253l135 -93l136 93h254l-258 -252h-264z" />
<glyph unicode="&#x1e8;" horiz-adv-x="1057" d="M130 0v1962h283v-873l301 873h303l-374 -981l374 -981h-303l-301 872v-872h-283zM446 2409h253l135 -93l136 93h254l-258 -252h-264z" />
<glyph unicode="&#x1e9;" horiz-adv-x="1057" d="M130 0v1729h283v-769l301 769h303l-374 -864l374 -865h-303l-301 769v-769h-283zM316 2409h253l135 -93l136 93h254l-258 -252h-264z" />
<glyph unicode="&#x1ea;" horiz-adv-x="1033" d="M110 381v1200q0 412 406 412q407 0 407 -412v-1200q0 -412 -407 -413q-406 0 -406 413zM393 381q0 -133 123 -133q124 0 124 133v1200q0 132 -123 133h-2q-122 0 -122 -133v-1200zM695 -246q0 64 36 128.5t102 117.5h132q-57 -35 -88.5 -86.5t-31.5 -104.5q0 -42 23 -71 t75 -29q23 0 47 6.5t44 17.5v-128q-73 -35 -136 -35q-51 0 -89 14.5t-63.5 40t-38 58.5t-12.5 71z" />
<glyph unicode="&#x1eb;" horiz-adv-x="1033" d="M110 336v1057q0 364 406 364q407 0 407 -364v-1057q0 -363 -407 -363q-406 0 -406 363zM393 336q0 -117 123 -117q124 0 124 117v1057q0 117 -123 118q-124 0 -124 -118v-1057zM445 -246q0 64 36 128.5t102 117.5h132q-57 -35 -88.5 -86.5t-31.5 -104.5q0 -42 23 -71 t75 -29q23 0 47 6.5t44 17.5v-128q-73 -35 -136 -35q-51 0 -89 14.5t-63.5 40t-38 58.5t-12.5 71z" />
<glyph unicode="&#x1ec;" horiz-adv-x="1033" d="M110 381v1200q0 412 406 412q407 0 407 -412v-1200q0 -412 -407 -413q-406 0 -406 413zM393 381q0 -133 123 -133q124 0 124 133v1200q0 132 -123 133h-2q-122 0 -122 -133v-1200zM590 2156v231h639v-231h-639zM695 -246q0 64 36 128.5t102 117.5h132 q-57 -35 -88.5 -86.5t-31.5 -104.5q0 -42 23 -71t75 -29q23 0 47 6.5t44 17.5v-128q-73 -35 -136 -35q-51 0 -89 14.5t-63.5 40t-38 58.5t-12.5 71z" />
<glyph unicode="&#x1ed;" horiz-adv-x="1033" d="M110 336v1057q0 364 406 364q407 0 407 -364v-1057q0 -363 -407 -363q-406 0 -406 363zM360 1805v231h639v-231h-639zM393 336q0 -117 123 -117q124 0 124 117v1057q0 117 -123 118q-124 0 -124 -118v-1057zM445 -246q0 64 36 128.5t102 117.5h132q-57 -35 -88.5 -86.5 t-31.5 -104.5q0 -42 23 -71t75 -29q23 0 47 6.5t44 17.5v-128q-73 -35 -136 -35q-51 0 -89 14.5t-63.5 40t-38 58.5t-12.5 71z" />
<glyph unicode="&#x1ee;" horiz-adv-x="1251" d="M41 -4l191 45q27 -140 128 -223t235 -83q217 0 322 159q85 128 85 331q0 415 -487 415v175l429 478h-818v173h1050v-173l-436 -492q176 -19 293 -125q169 -151 169 -450q0 -282 -146 -459q-163 -198 -465 -198q-216 0 -360 111.5t-190 315.5zM465 2409h253l135 -93 l136 93h254l-258 -252h-264z" />
<glyph unicode="&#x1ef;" horiz-adv-x="1116" d="M76 -16l189 16q19 -125 87 -200q75 -83 195 -83q143 0 230 113q80 103 80 251q0 159 -97 248q-92 84 -246 84h-93v159l336 350q-149 -6 -203 -6h-433v146h868v-119l-369 -375q181 -13 300 -134q128 -131 128 -337q0 -223 -138 -374q-141 -154 -363 -154 q-194 0 -323 111.5t-148 303.5zM369 2058h253l135 -93l136 93h254l-258 -252h-264z" />
<glyph unicode="&#x1f0;" horiz-adv-x="455" d="M-94 -412l34 153q54 -14 85 -14q77 0 99 78q10 35 10 141v1116h180v-1120q0 -195 -51 -273q-66 -100 -216 -100q-73 0 -141 19zM38 2058h253l135 -93l136 93h254l-258 -252h-264z" />
<glyph unicode="&#x1f1;" horiz-adv-x="2730" d="M130 0v1962l436 -1q377 0 377 -412v-1137q0 -411 -377 -411q-6 0 -18 -1h-418zM413 279h124q123 0 123 133v1137q0 134 -123 134h-124v-1404zM1559 0v170l384 1513h-371v279h690v-170l-384 -1513h401v-279h-720z" />
<glyph unicode="&#x1f2;" horiz-adv-x="2503" d="M130 0v1962l436 -1q377 0 377 -412v-1137q0 -411 -377 -411q-6 0 -18 -1h-418zM413 279h124q123 0 123 133v1137q0 134 -123 134h-124v-1404zM1559 0v150l384 1333h-371v246h690v-150l-384 -1333h401v-246h-720z" />
<glyph unicode="&#x1f3;" horiz-adv-x="2148" d="M130 0v1729h418q12 -1 18 -1q377 0 377 -362v-1002q0 -363 -377 -363h-18zM413 246h124q123 0 123 118v1002q0 117 -123 117h-124v-1237zM1204 0v150l384 1333h-371v246h690v-150l-384 -1333h401v-246h-720z" />
<glyph unicode="&#x1f4;" horiz-adv-x="1033" d="M110 381v1200q0 412 406 412q407 0 407 -412v-264h-283v264q0 132 -123 133h-2q-122 0 -122 -133v-1200q0 -133 123 -133q124 0 124 133v460h-143v280h426v-740q0 -412 -407 -413q-406 0 -406 413zM600 2167l274 253h222v-76l-274 -177h-222z" />
<glyph unicode="&#x1f5;" horiz-adv-x="1033" d="M110 336v1057q0 364 406 364q407 0 407 -364v-232h-283v232q0 117 -123 118q-124 0 -124 -118v-1057q0 -117 123 -117q124 0 124 117v406h-143v246h426v-652q0 -363 -407 -363q-406 0 -406 363zM310 1805l274 253h222v-76l-274 -177h-222z" />
<glyph unicode="&#x1f6;" horiz-adv-x="2118" d="M164 0v1466h194v-602h762v602h194v-1034q0 -142 42 -212q57 -96 202 -96q247 0 247 323v615h179v-622q0 -217 -105 -337q-111 -127 -324 -127q-246 0 -349 129q-86 107 -86 328v258h-762v-691h-194z" />
<glyph unicode="&#x1f7;" horiz-adv-x="1266" d="M158 -407v1873h194v-112q132 138 352 138q473 0 473 -499q0 -376 -279 -724q-237 -296 -546 -439v-237h-194zM352 0q230 116 415 381q210 302 210 613q0 331 -290 331q-151 0 -247 -124q-88 -115 -88 -272v-929z" />
<glyph unicode="&#x1f8;" horiz-adv-x="1073" d="M130 0v1962h283l268 -1138v1138h262v-1962h-283l-258 1102v-1102h-272zM496 2344v76h222l274 -253h-222z" />
<glyph unicode="&#x1f9;" horiz-adv-x="1073" d="M130 0v1729h283l268 -1003v1003h262v-1729h-283l-258 972v-972h-272zM350 1982v76h222l274 -253h-222z" />
<glyph unicode="&#x1fa;" horiz-adv-x="1091" d="M60 0l92 693l200 1269h30q-35 48 -35 132q0 198 198 198q199 0 199 -198q0 -84 -35 -132h31l199 -1266l92 -696h-286l-55 416h-289l-56 -416h-285zM437 696h216l-108 816zM465 2094q0 -81 80 -81q81 0 81 81q0 80 -81 80q-80 0 -80 -80zM469 2391l274 253h222v-76 l-274 -177h-222z" />
<glyph unicode="&#x1fb;" horiz-adv-x="1091" d="M60 0l92 611l200 1118h30q-35 48 -35 132q0 198 198 198q199 0 199 -198q0 -84 -35 -132h31l199 -1115l92 -614h-286l-55 368h-289l-56 -368h-285zM401 2255l274 253h222v-76l-274 -177h-222zM437 614h216l-108 718zM465 1861q0 -81 80 -81q81 0 81 81q0 80 -81 80 q-80 0 -80 -80z" />
<glyph unicode="&#x1fc;" horiz-adv-x="1478" d="M60 0l92 693l200 1269h933v-279h-451v-562h388v-280h-388v-562h451v-279h-734v416h-150l-56 -416h-285zM437 696h114v771l-6 45zM789 2167l274 253h222v-76l-274 -177h-222z" />
<glyph unicode="&#x1fd;" horiz-adv-x="1568" d="M60 0l92 611l200 1118h934v-246h-451v-495h388v-246h-388v-496h451v-246h-734v368h-151l-56 -368h-285zM437 614h115v671l-7 47zM730 1805l274 253h222v-76l-274 -177h-222z" />
<glyph unicode="&#x1fe;" horiz-adv-x="1053" d="M120 381v1200q0 412 406 412q88 0 156 -19l31 127h141l-46 -190q125 -102 125 -330v-1200q0 -412 -407 -413q-105 0 -182 27l-49 -201h-140l67 277q-102 103 -102 310zM403 819l210 868q-31 27 -86 27h-2q-122 0 -122 -133v-762zM418 303q29 -55 108 -55q124 0 124 133 v878zM589 2167l274 253h222v-76l-274 -177h-222z" />
<glyph unicode="&#x1ff;" horiz-adv-x="1053" d="M119 -318l114 372q-113 91 -113 282v1057q0 364 406 364q128 0 216 -36l70 231l140 -9l-93 -305q74 -89 74 -245v-1057q0 -363 -407 -363q-96 0 -170 20l-98 -320zM403 612l246 805q-12 93 -122 94q-124 0 -124 -118v-781zM434 248q31 -29 92 -29q124 0 124 117v619z M440 1805l274 253h222v-76l-274 -177h-222z" />
<glyph unicode="&#x200;" horiz-adv-x="1051" d="M40 0l92 693l200 1269h388l199 -1266l92 -696h-286l-55 416h-289l-56 -416h-285zM248 1836h231l127 -280h-151zM417 696h216l-108 816zM598 1836h234l121 -280h-144z" />
<glyph unicode="&#x201;" horiz-adv-x="1051" d="M40 0l92 611l200 1118h388l199 -1115l92 -614h-286l-55 368h-289l-56 -368h-285zM148 1474h231l127 -280h-151zM417 614h216l-108 718zM498 1474h234l121 -280h-144z" />
<glyph unicode="&#x202;" horiz-adv-x="1051" d="M40 0l92 693l200 1269h388l199 -1266l92 -696h-286l-55 416h-289l-56 -416h-285zM369 1567q31 259 296 259q264 0 295 -259h-123q-27 135 -178 135q-139 0 -167 -135h-123zM417 696h216l-108 816z" />
<glyph unicode="&#x203;" horiz-adv-x="1051" d="M40 0l92 611l200 1118h388l199 -1115l92 -614h-286l-55 368h-289l-56 -368h-285zM284 1205q31 259 296 259q264 0 295 -259h-123q-27 135 -178 135q-139 0 -167 -135h-123zM417 614h216l-108 718z" />
<glyph unicode="&#x204;" horiz-adv-x="944" d="M130 0v1962h734v-279h-451v-562h388v-280h-388v-562h451v-279h-734zM266 1836h231l127 -280h-151zM616 1836h234l121 -280h-144z" />
<glyph unicode="&#x205;" horiz-adv-x="924" d="M130 0v1729h734v-246h-451v-495h388v-246h-388v-496h451v-246h-734zM148 1474h231l127 -280h-151zM498 1474h234l121 -280h-144z" />
<glyph unicode="&#x206;" horiz-adv-x="944" d="M130 0v1962h734v-279h-451v-562h388v-280h-388v-562h451v-279h-734zM404 1567q31 259 296 259q264 0 295 -259h-123q-27 135 -178 135q-139 0 -167 -135h-123z" />
<glyph unicode="&#x207;" horiz-adv-x="924" d="M130 0v1729h734v-246h-451v-495h388v-246h-388v-496h451v-246h-734zM274 1205q31 259 296 259q264 0 295 -259h-123q-27 135 -178 135q-139 0 -167 -135h-123z" />
<glyph unicode="&#x208;" horiz-adv-x="553" d="M-118 1836h231l127 -280h-151zM135 0v1962h283v-1962h-283zM232 1836h234l121 -280h-144z" />
<glyph unicode="&#x209;" horiz-adv-x="514" d="M-156 1474h231l127 -280h-151zM135 0v1729h283v-1729h-283zM194 1474h234l121 -280h-144z" />
<glyph unicode="&#x20a;" horiz-adv-x="553" d="M4 1567q31 259 296 259q264 0 295 -259h-123q-27 135 -178 135q-139 0 -167 -135h-123zM135 0v1962h283v-1962h-283z" />
<glyph unicode="&#x20b;" horiz-adv-x="514" d="M-10 1205q31 259 296 259q264 0 295 -259h-123q-27 135 -178 135q-139 0 -167 -135h-123zM135 0v1729h283v-1729h-283z" />
<glyph unicode="&#x20c;" horiz-adv-x="1033" d="M110 381v1200q0 412 406 412q407 0 407 -412v-1200q0 -412 -407 -413q-406 0 -406 413zM348 1836h231l127 -280h-151zM393 381q0 -133 123 -133q124 0 124 133v1200q0 132 -123 133h-2q-122 0 -122 -133v-1200zM698 1836h234l121 -280h-144z" />
<glyph unicode="&#x20d;" horiz-adv-x="1033" d="M110 336v1057q0 364 406 364q407 0 407 -364v-1057q0 -363 -407 -363q-406 0 -406 363zM128 1474h231l127 -280h-151zM393 336q0 -117 123 -117q124 0 124 117v1057q0 117 -123 118q-124 0 -124 -118v-1057zM478 1474h234l121 -280h-144z" />
<glyph unicode="&#x20e;" horiz-adv-x="1033" d="M110 381v1200q0 412 406 412q407 0 407 -412v-1200q0 -412 -407 -413q-406 0 -406 413zM393 381q0 -133 123 -133q124 0 124 133v1200q0 132 -123 133h-2q-122 0 -122 -133v-1200zM504 1567q31 259 296 259q264 0 295 -259h-123q-27 135 -178 135q-139 0 -167 -135h-123z " />
<glyph unicode="&#x20f;" horiz-adv-x="1033" d="M110 336v1057q0 364 406 364q407 0 407 -364v-1057q0 -363 -407 -363q-406 0 -406 363zM284 1205q31 259 296 259q264 0 295 -259h-123q-27 135 -178 135q-139 0 -167 -135h-123zM393 336q0 -117 123 -117q124 0 124 117v1057q0 117 -123 118q-124 0 -124 -118v-1057z " />
<glyph unicode="&#x210;" horiz-adv-x="1044" d="M130 0v1962l412 -1q377 0 377 -412v-295q0 -259 -223 -341l318 -913h-310l-255 863l-36 -5v-858h-283zM248 1836h231l127 -280h-151zM413 1121h65q59 0 81 8q77 31 77 125v295q0 134 -123 134h-100v-562zM598 1836h234l121 -280h-144z" />
<glyph unicode="&#x211;" horiz-adv-x="1044" d="M-52 1474h231l127 -280h-151zM130 0v1729h394q12 -1 18 -1q377 0 377 -362v-261q0 -228 -223 -300l318 -805h-310l-255 761l-36 -5v-756h-283zM298 1474h234l121 -280h-144zM413 988h65q59 0 81 8q77 27 77 109v261q0 117 -123 117h-100v-495z" />
<glyph unicode="&#x212;" horiz-adv-x="1044" d="M130 0v1962l412 -1q377 0 377 -412v-295q0 -259 -223 -341l318 -913h-310l-255 863l-36 -5v-858h-283zM404 1567q31 259 296 259q264 0 295 -259h-123q-27 135 -178 135q-139 0 -167 -135h-123zM413 1121h65q59 0 81 8q77 31 77 125v295q0 134 -123 134h-100v-562z" />
<glyph unicode="&#x213;" horiz-adv-x="1044" d="M104 1205q31 259 296 259q264 0 295 -259h-123q-27 135 -178 135q-139 0 -167 -135h-123zM130 0v1729h394q12 -1 18 -1q377 0 377 -362v-261q0 -228 -223 -300l318 -805h-310l-255 761l-36 -5v-756h-283zM413 988h65q59 0 81 8q77 27 77 109v261q0 117 -123 117h-100 v-495z" />
<glyph unicode="&#x214;" horiz-adv-x="1053" d="M120 381v1581h283v-1581q0 -133 123 -133q124 0 124 133v1581h283v-1581q0 -412 -407 -413q-406 0 -406 413zM308 1836h231l127 -280h-151zM658 1836h234l121 -280h-144z" />
<glyph unicode="&#x215;" horiz-adv-x="1053" d="M118 1474h231l127 -280h-151zM120 336v1393h283v-1393q0 -117 123 -117q124 0 124 117v1393h283v-1393q0 -363 -407 -363q-406 0 -406 363zM468 1474h234l121 -280h-144z" />
<glyph unicode="&#x216;" horiz-adv-x="1053" d="M120 381v1581h283v-1581q0 -133 123 -133q124 0 124 133v1581h283v-1581q0 -412 -407 -413q-406 0 -406 413zM441 1567q31 259 296 259q264 0 295 -259h-123q-27 135 -178 135q-139 0 -167 -135h-123z" />
<glyph unicode="&#x217;" horiz-adv-x="1053" d="M120 336v1393h283v-1393q0 -117 123 -117q124 0 124 117v1393h283v-1393q0 -363 -407 -363q-406 0 -406 363zM266 1205q31 259 296 259q264 0 295 -259h-123q-27 135 -178 135q-139 0 -167 -135h-123z" />
<glyph unicode="&#x218;" horiz-adv-x="1033" d="M110 381v264h283v-264q0 -133 124 -133q123 0 123 133v224q0 142 -265 332q-265 189 -265 460v184q0 412 406 412q407 0 407 -412v-264h-283v264q0 132 -123 133h-2q-122 0 -122 -133v-178q0 -131 265 -321q265 -189 265 -453v-248q0 -413 -406 -413q-407 1 -407 413z M566 -467q93 40 109 147h-96v175h209v-117q0 -110 -37 -180.5t-131 -108.5z" />
<glyph unicode="&#x219;" horiz-adv-x="1033" d="M110 336v233h283v-233q0 -117 124 -117q123 0 123 117v197q0 126 -265 293t-265 405v162q0 364 406 364q407 0 407 -364v-232h-283v232q0 117 -123 118q-124 0 -124 -118v-156q0 -116 265 -283q265 -166 265 -399v-219q0 -363 -406 -363q-407 0 -407 363zM386 -467 q93 40 109 147h-96v175h209v-117q0 -110 -37 -180.5t-131 -108.5z" />
<glyph unicode="&#x21a;" horiz-adv-x="1251" d="M48 1293v173h1162v-173h-485v-1293h-194v1293h-483zM511 -503q60 27 90 78q20 33 24 99h-102v205h205v-205q0 -180 -167 -253z" />
<glyph unicode="&#x21b;" horiz-adv-x="569" d="M36 922v140h132v263l179 108v-371h181v-140h-181v-621q0 -77 9.5 -99t31 -35t61.5 -13q30 0 79 7l26 -159q-76 -16 -136 -16q-98 0 -152 31t-76 81.5t-22 212.5v611h-132zM265 -463q95 42 102 158h-92v184h185v-184q0 -70 -36.5 -131.5t-114.5 -95.5z" />
<glyph unicode="&#x21c;" horiz-adv-x="1116" d="M81 1242q169 250 478 250q202 0 327 -114q128 -118 128 -318q0 -207 -137 -371q137 -120 137 -329q0 -312 -300 -526q-192 -137 -578 -265v173q678 204 678 597q0 136 -78 217q-179 -136 -600 -276v173q678 204 678 586q0 124 -64 202q-70 84 -192 84q-224 0 -341 -192z " />
<glyph unicode="&#x21d;" horiz-adv-x="894" d="M19 831q118 255 397 255q398 0 398 -370q0 -161 -108 -280q108 -101 108 -283q0 -251 -259 -405q-143 -85 -481 -179v163q243 65 351 123q204 110 204 277q0 124 -74 187q-130 -76 -481 -174v163q258 70 350 116q205 104 205 271q0 242 -223 242q-144 0 -222 -172z" />
<glyph unicode="&#x21e;" horiz-adv-x="1073" d="M130 0v1962h283v-841h247v841h283v-1962h-283v841h-247v-841h-283zM561 2420h253l135 -93l136 93h254l-258 -252h-264z" />
<glyph unicode="&#x21f;" horiz-adv-x="1073" d="M130 0v1729h283v-741h247v741h283v-1729h-283v742h-247v-742h-283zM366 2420h253l135 -93l136 93h254l-258 -252h-264z" />
<glyph unicode="&#x220;" horiz-adv-x="1446" d="M164 0v1466h194v-71q261 97 457 97q139 0 255 -62q128 -69 172 -191q39 -109 39 -288v-1358h-194v1340q0 183 -56 275q-70 116 -242 116q-205 0 -431 -91v-1233h-194z" />
<glyph unicode="&#x221;" horiz-adv-x="1396" d="M70 530q0 349 212 487q106 69 237 69q187 0 293 -146v526h179v-1397q70 28 128 28q119 0 193 -70t74 -188q0 -270 -287 -270q-204 0 -262 178q-31 -35 -141 -178l-108 118q45 60 91 121q69 87 133 146v180q-101 -158 -285 -158q-131 0 -238 73q-103 71 -160 193 q-59 127 -59 288zM255 530q0 -160 63 -271q77 -135 226 -135q148 0 222 128q61 105 61 263q0 171 -59 281q-76 141 -232 141q-151 0 -224 -136q-57 -106 -57 -271zM991 -109q6 -164 116 -164q116 0 116 112q0 42 -28.5 71t-72.5 29q-60 0 -131 -48z" />
<glyph unicode="&#x222;" horiz-adv-x="1238" d="M94 444q0 314 316 371v15q-276 36 -276 249q0 246 465 246v-113q-266 0 -266 -144q0 -167 286 -167t286 237q0 111 -78 173q-72 58 -189 58v123q201 0 321 -71q145 -86 145 -262q0 -127 -75.5 -214.5t-200.5 -114.5v-15q316 -57 316 -371q0 -227 -153 -353 q-141 -116 -372 -116t-372 116q-153 126 -153 353zM294 454q0 -149 90 -232q86 -81 235 -81t235 81q90 83 90 232q0 142 -95 215q-86 66 -230 66t-230 -66q-95 -73 -95 -215z" />
<glyph unicode="&#x223;" horiz-adv-x="1158" d="M94 444q0 155 77 253q72 92 199 118v15q-236 51 -236 318q0 219 275 344l57 -114q-133 -88 -133 -230q0 -247 246 -247t246 247q0 142 -133 230l57 114q275 -125 275 -344q0 -267 -236 -318v-15q276 -57 276 -371q0 -227 -130 -350q-127 -119 -355 -119t-355 119 q-130 123 -130 350zM294 454q0 -313 285 -313t285 313q0 137 -78 211q-75 70 -207 70q-128 0 -204 -70q-81 -75 -81 -211z" />
<glyph unicode="&#x224;" horiz-adv-x="1251" d="M41 0v180l903 1113h-818v173h1050v-173l-912 -1120h563q179 0 257 -39q116 -57 116 -220q0 -73 -19 -141l-153 34q14 54 14 85q0 77 -79 99q-35 9 -143 9h-779z" />
<glyph unicode="&#x225;" horiz-adv-x="1024" d="M40 0v146l676 776q-149 -6 -203 -6h-433v146h868v-119l-686 -797q161 9 227 9h119q189 0 259 -31q113 -50 113 -210q0 -73 -19 -141l-153 34q14 54 14 85q0 77 -79 99q-35 9 -143 9h-560z" />
<glyph unicode="&#x226;" horiz-adv-x="1051" d="M40 0l92 693l200 1269h388l199 -1266l92 -696h-286l-55 416h-289l-56 -416h-285zM417 696h216l-108 816zM460 2173v242h243v-242h-243z" />
<glyph unicode="&#x227;" horiz-adv-x="1051" d="M40 0l92 611l200 1118h388l199 -1115l92 -614h-286l-55 368h-289l-56 -368h-285zM370 1811v242h243v-242h-243zM417 614h216l-108 718z" />
<glyph unicode="&#x228;" horiz-adv-x="1366" d="M162 0v1466h1060v-173h-866v-449h811v-172h-811v-499h900v-173h-481l-26 -84q171 -20 171 -147q0 -99 -101 -150q-80 -40 -188 -40q-82 0 -144 12l11 117q64 -4 94 -4q161 0 161 75q0 39 -54 56q-31 10 -103 11l45 154h-479z" />
<glyph unicode="&#x229;" horiz-adv-x="1139" d="M75 522q0 246 123 399q133 165 373 165q234 0 364 -163q119 -150 119 -390q0 -16 -1 -48h-792q9 -156 85 -252q86 -109 236 -109q202 0 280 218l186 -23q-83 -309 -400 -340l-19 -63q171 -20 171 -147q0 -99 -101 -150q-80 -40 -188 -40q-82 0 -144 12l11 117 q64 -4 94 -4q161 0 161 75q0 39 -54 56q-31 10 -103 11l39 133q-186 18 -303 141q-137 144 -137 402zM271 633h593q-12 134 -68 201q-86 104 -223 104q-130 0 -214 -88q-79 -85 -88 -217z" />
<glyph unicode="&#x22a;" horiz-adv-x="1033" d="M110 381v1200q0 412 406 412q407 0 407 -412v-1200q0 -412 -407 -413q-406 0 -406 413zM393 381q0 -133 123 -133q124 0 124 133v1200q0 132 -123 133h-2q-122 0 -122 -133v-1200zM542 1496v147h135v-147h-135zM542 1726v117h516v-117h-516zM923 1496v147h135v-147h-135z " />
<glyph unicode="&#x22b;" horiz-adv-x="1033" d="M110 336v1057q0 364 406 364q407 0 407 -364v-1057q0 -363 -407 -363q-406 0 -406 363zM372 1806v242h242v-242h-242zM372 2175v231h639v-231h-639zM393 336q0 -117 123 -117q124 0 124 117v1057q0 117 -123 118q-124 0 -124 -118v-1057zM768 1806v242h243v-242h-243z " />
<glyph unicode="&#x22c;" horiz-adv-x="1033" d="M110 381v1200q0 412 406 412q407 0 407 -412v-1200q0 -412 -407 -413q-406 0 -406 413zM393 381q0 -133 123 -133q124 0 124 133v1200q0 132 -123 133h-2q-122 0 -122 -133v-1200zM552 1496q-1 84 49 131q43 42 109 42q37 0 107 -34t108 -34q45 0 53 70h90 q-4 -172 -151 -172q-41 0 -114 36.5t-105 36.5q-46 0 -56 -76h-90zM552 1726v117h516v-117h-516z" />
<glyph unicode="&#x22d;" horiz-adv-x="1033" d="M110 336v1057q0 364 406 364q407 0 407 -364v-1057q0 -363 -407 -363q-406 0 -406 363zM372 1846l35 71q67 135 174 141h7q67 0 173 -66q51 -32 84 -32q28 0 43 23l41 67l130 -86l-41 -68q-64 -102 -158 -107h-7q-67 0 -171 66q-66 41 -79 43h-4q-28 0 -55 -54l-35 -71z M372 2175v231h639v-231h-639zM393 336q0 -117 123 -117q124 0 124 117v1057q0 117 -123 118q-124 0 -124 -118v-1057z" />
<glyph unicode="&#x22e;" horiz-adv-x="1033" d="M110 381v1200q0 412 406 412q407 0 407 -412v-1200q0 -412 -407 -413q-406 0 -406 413zM393 381q0 -133 123 -133q124 0 124 133v1200q0 132 -123 133h-2q-122 0 -122 -133v-1200zM590 2173v242h243v-242h-243z" />
<glyph unicode="&#x22f;" horiz-adv-x="1033" d="M110 336v1057q0 364 406 364q407 0 407 -364v-1057q0 -363 -407 -363q-406 0 -406 363zM350 1811v242h243v-242h-243zM393 336q0 -117 123 -117q124 0 124 117v1057q0 117 -123 118q-124 0 -124 -118v-1057z" />
<glyph unicode="&#x230;" horiz-adv-x="1033" d="M110 381v1200q0 412 406 412q407 0 407 -412v-1200q0 -412 -407 -413q-406 0 -406 413zM393 381q0 -133 123 -133q124 0 124 133v1200q0 132 -123 133h-2q-122 0 -122 -133v-1200zM542 1726v117h516v-117h-516zM732 1496v147h135v-147h-135z" />
<glyph unicode="&#x231;" horiz-adv-x="1033" d="M110 336v1057q0 364 406 364q407 0 407 -364v-1057q0 -363 -407 -363q-406 0 -406 363zM372 1868v242h243v-242h-243zM372 2175v231h639v-231h-639zM393 336q0 -117 123 -117q124 0 124 117v1057q0 117 -123 118q-124 0 -124 -118v-1057z" />
<glyph unicode="&#x232;" horiz-adv-x="1066" d="M40 1962h300l193 -765l193 765h300l-343 -1113l-8 -24v-825h-283v825l-9 24zM490 2156v231h639v-231h-639z" />
<glyph unicode="&#x233;" horiz-adv-x="1066" d="M40 1729h300l193 -673l193 673h300l-343 -981l-8 -21v-727h-283v727l-9 21zM320 1805v231h639v-231h-639z" />
<glyph unicode="&#x234;" horiz-adv-x="715" d="M-93 -313q45 60 91 121q69 87 133 146v1512h180v-1396q67 27 127 27q119 0 193 -70t74 -188q0 -270 -287 -270q-204 0 -262 178q-31 -35 -141 -178zM311 -109q6 -164 115 -164q116 0 116 112q0 42 -28.5 71t-72.5 29q-59 0 -130 -48z" />
<glyph unicode="&#x235;" horiz-adv-x="1402" d="M135 0v1062h162v-151q117 175 338 175q208 0 297 -125q40 -56 56 -133q10 -49 10 -175v-585q72 29 127 29q119 0 193 -70t74 -188q0 -270 -287 -270q-204 0 -262 178q-31 -35 -141 -178l-108 118q45 60 91 121q69 87 133 146v692q0 194 -95 252q-53 32 -126 32 q-282 0 -282 -350v-580h-180zM998 -109q6 -164 115 -164q116 0 116 112q0 42 -28.5 71t-72.5 29q-59 0 -130 -48z" />
<glyph unicode="&#x236;" horiz-adv-x="752" d="M-56 104q45 60 91 121q69 87 133 146v551h-132v140h132v263l179 108v-371h181v-140h-181v-434q65 26 128 26q119 0 193 -70t74 -188q0 -270 -287 -270q-204 0 -262 178q-31 -35 -141 -178zM347 308q6 -164 116 -164q116 0 116 112q0 42 -28.5 71t-72.5 29q-60 0 -131 -48 z" />
<glyph unicode="&#x237;" horiz-adv-x="455" d="M-94 -412l34 153q54 -14 85 -14q77 0 99 78q10 35 10 141v1116h180v-1120q0 -195 -51 -273q-66 -100 -216 -100q-73 0 -141 19z" />
<glyph unicode="&#x238;" horiz-adv-x="1816" d="M70 530q0 349 212 487q106 69 237 69q187 0 293 -146v526h179v-523q114 143 291 143q211 0 330.5 -151t119.5 -388q0 -233 -110 -391q-126 -180 -349 -180q-188 0 -294 157v-133h-155v134q-101 -158 -297 -158q-131 0 -238 73q-103 71 -160 193q-59 127 -59 288zM255 530 q0 -160 63 -271q77 -135 226 -135q148 0 222 128q61 105 61 263q0 171 -59 281q-76 141 -232 141q-151 0 -224 -136q-57 -106 -57 -271zM976 539q0 -191 52 -276q85 -139 230 -139q149 0 226 137q64 111 64 271q0 163 -58 270q-74 136 -224 136q-147 0 -225 -132 q-65 -110 -65 -267z" />
<glyph unicode="&#x239;" horiz-adv-x="1816" d="M72 541q0 345 217 480q105 65 231 65q193 0 305 -166v142h154v-138q117 162 305 162q286 0 397 -267q53 -128 53 -280q0 -351 -228 -493q-112 -70 -235 -70q-173 0 -279 134v-517h-180v520q-98 -137 -278 -137q-219 0 -347 178q-115 160 -115 387zM257 534 q0 -162 63 -273q78 -137 229 -137q142 0 217 131q61 106 61 263q0 165 -63 281q-78 145 -227 145q-150 0 -223 -138q-57 -108 -57 -272zM977 525q0 -162 60 -268q74 -133 222 -133q154 0 230 139q61 111 61 277q0 160 -60 269q-75 136 -223 136q-143 0 -225 -144 q-65 -117 -65 -276z" />
<glyph unicode="&#x23a;" horiz-adv-x="1366" d="M-3 0l563 1466h209l129 -316l239 391h157l-333 -545l408 -996h-221l-171 444h-352l-336 -551h-157l65 107h-200zM211 23l257 421h-104zM420 602h144l218 357l-18 49q-71 188 -104 304q-29 -147 -79 -280zM721 602h196l-75 198z" />
<glyph unicode="&#x23b;" horiz-adv-x="1479" d="M102 744q0 474 337 659q161 88 355 88q180 0 314 -76l77 126h157l-126 -206q109 -105 157 -271l-191 -45q-28 87 -68 147l-585 -958q113 -67 246 -67q348 0 429 373l194 -49q-59 -232 -213 -359q-158 -131 -394 -131q-214 0 -356 79l-98 -161h-157l147 240 q-91 86 -147 218q-78 184 -78 393zM302 745q0 -185 55 -326q28 -71 69 -122l590 967q-93 61 -226 61q-158 0 -272 -74q-121 -79 -170 -224q-46 -137 -46 -282z" />
<glyph unicode="&#x23c;" horiz-adv-x="1024" d="M20 -409l222 498q-7 6 -29 30q-133 143 -133 408q0 367 231 495q116 64 253 64q60 0 117 -12l175 392h147l-196 -440q144 -86 181 -276l-175 -27q-22 96 -75 149l-318 -713q61 -35 141 -35q230 0 267 265l177 -23q-28 -179 -144 -283q-119 -107 -298 -107q-115 0 -207 40 l-189 -425h-147zM265 532q0 -173 54 -270l300 672q-22 4 -48 4q-306 0 -306 -406z" />
<glyph unicode="&#x23d;" horiz-adv-x="1139" d="M10 667v132h140v667h194v-667h404v-132h-404v-494h722v-173h-916v667h-140z" />
<glyph unicode="&#x23e;" horiz-adv-x="1251" d="M48 -107l483 792v608h-483v173h959l46 75h157l-46 -75h46v-173h-151l-334 -547v-746h-194v428l-326 -535h-157zM725 1003l177 290h-177v-290z" />
<glyph unicode="&#x23f;" horiz-adv-x="1024" d="M79 135l111 140q177 -151 327 -151q95 0 161 36q82 45 82 133q0 61 -53 96q-36 24 -184 61q-163 41 -214 61q-128 49 -176 127q-40 65 -40 142q0 144 121 232q102 74 270 74q262 0 359 -133q45 -61 62 -165l-176 -24q-25 174 -232 174q-230 0 -230 -137q0 -75 91 -111 q26 -10 159 -46q182 -49 209 -59q126 -46 176 -119q43 -62 43 -154q0 -164 -136 -256q-119 -80 -292 -80q-22 0 -47 2l132 -180q52 -71 107 -71q63 0 122 88l96 -113q-103 -133 -215 -133q-157 0 -269 162l-147 213q-72 104 -217 191z" />
<glyph unicode="&#x240;" horiz-adv-x="1024" d="M40 0v146l676 776q-149 -6 -203 -6h-433v146h868v-119l-686 -797q98 0 168 -52q45 -34 138 -146l124 -150q59 -71 107 -71q63 0 122 88l96 -113q-103 -133 -215 -133q-86 0 -150 43q-51 34 -119 119l-120 150q-95 119 -223 119h-150z" />
<glyph unicode="&#x241;" horiz-adv-x="1189" d="M29 1146q108 346 509 346q274 0 419 -153q137 -145 137 -406q0 -227 -114 -372q-124 -155 -354 -177v-384h-180v538q41 -8 107 -8q155 0 251 99q105 109 105 309q0 197 -105 305q-99 101 -266 101q-124 0 -215 -67q-87 -64 -125 -175z" />
<glyph unicode="&#x242;" horiz-adv-x="928" d="M19 767q32 149 148 236q112 83 269 83q184 0 292 -90q120 -100 120 -294q0 -152 -103 -260q-88 -94 -211 -120v-322h-180v431q120 0 209 73q94 77 94 198q0 107 -54 169q-59 67 -169 67q-200 0 -244 -199z" />
<glyph unicode="&#x243;" horiz-adv-x="1366" d="M17 367v132h133v967h550q316 0 429 -181q57 -92 57 -194q0 -209 -205 -311q276 -81 276 -355q0 -215 -151 -328q-129 -97 -397 -97h-559v367h-133zM344 173h365q93 0 132 7q133 24 186 122q29 53 29 123q0 176 -158 228q-73 24 -215 24h-339v-178h362v-132h-362v-194z M344 850h317q128 0 185 17q149 45 149 201q0 162 -135 205q-63 20 -223 20h-293v-443z" />
<glyph unicode="&#x244;" horiz-adv-x="1479" d="M41 691v132h120v643h194v-643h765v643h194v-643h118v-132h-118v-72q0 -202 -38 -317q-52 -158 -192 -245q-131 -82 -343 -82q-409 0 -524 277q-56 135 -56 367v72h-120zM355 620q0 -157 22 -237q34 -126 136 -184q87 -49 211 -49q235 0 323 120q73 102 73 350v71h-765 v-71z" />
<glyph unicode="&#x245;" horiz-adv-x="1368" d="M11 0l573 1466h200l568 -1466h-211l-381 1064q-50 140 -77 241q-33 -121 -78 -241l-396 -1064h-198z" />
<glyph unicode="&#x246;" horiz-adv-x="1366" d="M162 0v1466h864l39 75h157l-39 -75h39v-173h-128l-232 -449h305v-172h-394l-258 -499h741v-173h-831l-55 -107h-157l55 107h-106zM356 173l260 499h-260v-499zM356 844h349l232 449h-581v-449z" />
<glyph unicode="&#x247;" horiz-adv-x="1139" d="M75 -409l207 468q-34 23 -70 61q-137 144 -137 402q0 246 123 399q133 165 373 165q84 0 157 -23l178 403h147l-205 -463q39 -28 71 -62q135 -145 135 -408q0 -16 -1 -48h-435l-151 -341q52 -20 115 -20q202 0 280 218l186 -23q-93 -343 -467 -343q-96 0 -177 25 l-182 -410h-147zM261 485q10 -170 94 -263l116 263h-210zM271 633h266l129 291q-44 14 -93 14q-130 0 -214 -88q-79 -85 -88 -217zM684 633h180q-13 145 -83 218z" />
<glyph unicode="&#x248;" horiz-adv-x="1024" d="M59 416l175 24q6 -136 44 -203q52 -89 174 -89q156 0 199 125q20 58 20 183v211h-168v132h168v667h194v-667h150v-132h-150v-200q0 -157 -31 -250q-42 -128 -154 -189q-96 -53 -227 -53q-402 0 -394 441z" />
<glyph unicode="&#x249;" horiz-adv-x="455" d="M-94 -412l34 153q54 -14 85 -14q77 0 99 78q10 35 10 141v539h-109v132h109v445h180v-445h112v-132h-112v-543q0 -195 -51 -273q-66 -100 -216 -100q-73 0 -141 19zM134 1257v209h180v-209h-180z" />
<glyph unicode="&#x24a;" horiz-adv-x="1510" d="M99 714q0 339 189 552q200 226 543 226q162 0 365 -56l107 56h32v-1545q0 -107 10 -142q22 -78 99 -78q31 0 85 14l34 -153q-68 -19 -141 -19q-163 0 -229 112q-52 87 -52 261v86q-150 -53 -321 -53q-342 0 -536 208q-185 198 -185 531zM299 711q0 -248 141 -407 q145 -163 379 -163q183 0 322 73v1059q-158 52 -309 52q-267 0 -408 -184q-125 -164 -125 -430z" />
<glyph unicode="&#x24b;" horiz-adv-x="1139" d="M72 541q0 345 217 480q105 65 231 65q197 0 310 -166v142h162v-1115q0 -107 10 -142q22 -78 99 -78q31 0 85 14l34 -153q-68 -19 -141 -19q-164 0 -224 114q-43 82 -43 256v174q-98 -137 -278 -137q-219 0 -347 179q-115 159 -115 386zM257 534q0 -162 63 -273 q78 -137 229 -137q145 0 220 131q61 106 61 263q0 165 -63 281q-78 145 -230 145q-150 0 -223 -138q-57 -108 -57 -272z" />
<glyph unicode="&#x24c;" horiz-adv-x="1479" d="M0 651v168h221v647h600q171 0 259 -26q133 -39 202 -153q61 -100 61 -221q0 -342 -413 -399q78 -38 117 -73q87 -80 161 -195l255 -399h-244l-194 305q-65 102 -108 160q-78 107 -130 140q-45 29 -89 39q-30 7 -108 7h-175v-651h-194v651h-221zM415 819h367 q247 0 322 116q39 61 39 131q0 238 -314 238h-414v-485z" />
<glyph unicode="&#x24d;" horiz-adv-x="682" d="M15 485v132h118v445h162v-161q83 185 230 185q91 0 185 -58l-62 -167q-66 39 -132 39q-203 0 -203 -283h173v-132h-173v-485h-180v485h-118z" />
<glyph unicode="&#x24e;" horiz-adv-x="1366" d="M6 1078v132h171l-171 256h236l167 -256h546l169 256h226l-177 -256h177v-132h-269l-316 -457v-621h-194v621l-306 457h-259zM496 1078l35 -54q74 -113 149 -248q72 125 160 259l28 43h-372z" />
<glyph unicode="&#x24f;" horiz-adv-x="1024" d="M33 585v132h131l-131 345h194l124 -345h348l127 345h180l-129 -345h129v-132h-178l-226 -603q-66 -176 -101 -241q-93 -172 -258 -172q-52 0 -116 22l-20 169q59 -16 103 -16q107 0 155 76q17 28 55 134l16 44l-222 587h-181zM398 585l50 -138q46 -127 77 -246 q32 126 74 242l52 142h-253z" />
<glyph unicode="&#x250;" horiz-adv-x="1139" d="M87 1062h188q28 -56 36 -131q182 155 391 155q156 0 254 -72q109 -81 109 -232q0 -159 -128 -246q-58 -39 -130 -59q-51 -14 -160 -27q-219 -26 -321 -62q-1 -37 -1 -47q0 -110 51 -155q69 -61 205 -61q123 0 183 42q64 45 94 160l176 -24q-47 -220 -238 -289 q-105 -38 -241 -38q-253 0 -346 113q-41 50 -56 122q-9 43 -9 166v240q0 215 -1 228q-9 132 -56 217zM326 529q98 40 294 68q90 13 126 24q71 23 102 71q25 39 25 85q0 85 -67 130q-57 38 -147 38q-223 0 -304 -170q-29 -61 -29 -180v-66z" />
<glyph unicode="&#x251;" horiz-adv-x="1139" d="M72 541q0 345 217 480q105 65 231 65q197 0 310 -166v142h162v-1062h-180v113q-98 -137 -278 -137q-219 0 -347 179q-115 159 -115 386zM257 534q0 -162 63 -273q78 -137 229 -137q145 0 220 131q61 106 61 263q0 165 -63 281q-78 145 -230 145q-150 0 -223 -138 q-57 -108 -57 -272z" />
<glyph unicode="&#x252;" horiz-adv-x="1139" d="M134 0v1062h162v-142q113 166 310 166q280 0 393 -258q55 -126 55 -287q0 -228 -114 -387q-128 -178 -348 -178q-180 0 -278 137v-113h-180zM296 518q0 -157 61 -263q75 -131 220 -131q151 0 229 137q63 111 63 273q0 165 -57 272q-72 138 -223 138t-230 -145 q-63 -117 -63 -281z" />
<glyph unicode="&#x253;" horiz-adv-x="1139" d="M134 0v1175q0 158 63 233q70 83 232 83q76 0 168 -18l-27 -157q-56 10 -106 10q-86 0 -120 -39q-30 -36 -30 -125v-219q114 143 291 143q211 0 330.5 -151t119.5 -388q0 -233 -110 -391q-126 -180 -349 -180q-188 0 -295 157v-133h-167zM299 539q0 -191 52 -276 q85 -139 230 -139q149 0 226 137q64 111 64 271q0 163 -58 270q-74 136 -224 136q-147 0 -225 -132q-65 -110 -65 -267z" />
<glyph unicode="&#x254;" horiz-adv-x="1024" d="M19 366l177 23q37 -265 267 -265q296 0 296 408q0 406 -306 406q-192 0 -242 -215l-175 27q65 336 424 336q144 0 254 -64q117 -68 173 -194q57 -129 57 -301q0 -244 -117 -391q-128 -160 -366 -160q-178 0 -296 106t-146 284z" />
<glyph unicode="&#x255;" horiz-adv-x="1024" d="M80 0q34 50 110 158q-110 147 -110 369q0 367 231 495q116 64 253 64q359 0 424 -336l-175 -27q-50 215 -242 215q-306 0 -306 -406q0 -129 43 -227q189 208 383 208q277 0 277 -254q0 -140 -113 -215q-103 -68 -272 -68q-162 0 -279 75q-38 -58 -103 -155zM402 180 q74 -56 179 -56q93 0 158.5 37.5t65.5 97.5q0 101 -111 101q-138 0 -292 -180z" />
<glyph unicode="&#x256;" horiz-adv-x="1139" d="M70 530q0 349 212 487q106 69 237 69q187 0 293 -146v526h179v-1519q0 -107 10 -142q22 -78 99 -78q31 0 85 14l34 -153q-68 -19 -141 -19q-164 0 -224 114q-42 81 -42 259v192q-101 -158 -285 -158q-131 0 -238 73q-103 71 -160 193q-59 127 -59 288zM255 530 q0 -160 63 -271q77 -135 226 -135q148 0 222 128q61 105 61 263q0 171 -59 281q-76 141 -232 141q-151 0 -224 -136q-57 -106 -57 -271z" />
<glyph unicode="&#x257;" horiz-adv-x="1139" d="M70 530q0 349 212 487q106 69 237 69q187 0 293 -146v236q0 162 69 238.5t225 76.5q76 0 168 -18l-27 -157q-56 10 -106 10q-87 0 -120 -40q-30 -36 -30 -126v-1160h-167v134q-101 -158 -297 -158q-131 0 -238 73q-103 71 -160 193q-59 127 -59 288zM255 530 q0 -160 63 -271q77 -135 226 -135q148 0 222 128q61 105 61 263q0 171 -59 281q-76 141 -232 141q-151 0 -224 -136q-57 -106 -57 -271z" />
<glyph unicode="&#x258;" horiz-adv-x="1139" d="M85 533q0 240 119 390q130 163 364 163q240 0 373 -165q123 -153 123 -399q0 -248 -128 -393q-134 -153 -378 -153q-374 0 -467 343l186 23q78 -218 280 -218q150 0 236 109q76 96 85 252h-792q-1 32 -1 48zM275 633h593q-9 133 -88 217q-83 88 -214 88q-137 0 -223 -104 q-56 -67 -68 -201z" />
<glyph unicode="&#x259;" horiz-adv-x="1139" d="M85 529q0 16 1 48h792q-9 156 -85 252q-86 109 -236 109q-202 0 -280 -218l-186 23q93 343 467 343q245 0 379 -152q127 -145 127 -394q0 -246 -123 -399q-133 -165 -373 -165q-234 0 -364 163q-119 150 -119 390zM275 429q12 -134 68 -201q86 -104 223 -104 q131 0 214 88q79 84 88 217h-593z" />
<glyph unicode="&#x25a;" horiz-adv-x="1513" d="M85 529q0 16 1 48l764 149q-3 19 -57 103q-86 109 -236 109q-202 0 -280 -218l-186 23q93 343 467 343q245 0 379 -152q65 -73 96 -172l156 31l23 -132q13 -75 28 -102q23 -42 72 -42q46 0 172 61l29 -166q-118 -57 -219 -57q-186 0 -232 246q2 -29 2 -61 q0 -247 -122 -399q-133 -165 -374 -165q-235 0 -365 163q-118 149 -118 390zM270 464q7 -150 74 -238q77 -102 222 -102q312 0 312 454z" />
<glyph unicode="&#x25b;" horiz-adv-x="939" d="M73 297q0 181 160 267q-126 77 -126 207q0 147 111 234q102 81 252 81q306 0 386 -299l-171 -28q-61 179 -213 179q-76 0 -125 -42.5t-49 -117.5q0 -52 33 -95t83 -53q42 -8 155 -9v-141q-32 1 -41 1q-102 0 -130 -5q-65 -13 -107 -64q-38 -46 -38 -108q0 -83 66 -135 q60 -48 146 -48q98 0 167 60q66 57 88 154l169 -36q-58 -323 -421 -323q-167 0 -273 75q-122 86 -122 246z" />
<glyph unicode="&#x25c;" horiz-adv-x="1073" d="M110 334v230h280v-231q0 -120 126 -120q127 0 127 120v313q0 94 -45 111q-24 9 -74 9h-96v244h118q40 0 60 10q37 19 37 105v255q0 94 -45 111q-24 9 -77 9q-14 0 -29 -1q-102 -3 -102 -119v-228h-280v230q0 248 165 323q115 52 236 52q112 0 229 -45q183 -70 183 -330 v-259q0 -168 -155 -238q155 -70 155 -239v-312q0 -224 -132 -306q-84 -52 -260 -55h-24q-156 0 -243 44q-154 77 -154 317z" />
<glyph unicode="&#x25d;" horiz-adv-x="1293" d="M50 299l169 36q22 -96 90 -155t165 -59q87 0 147 47q65 52 65 136q0 54 -34 103t-85 63q-41 11 -156 11q-9 0 -41 -1v141q106 1 125 4q69 10 109 53q37 40 37 100q0 76 -48.5 118t-125.5 42q-152 0 -213 -179l-171 28q80 299 386 299q170 0 267 -93q48 -46 73 -106 l160 32l23 -132q13 -75 28 -102q23 -42 72 -42q46 0 172 61l29 -166q-118 -57 -219 -57q-190 0 -242 275q-7 -119 -126 -192q160 -86 160 -267q0 -160 -122 -246q-106 -75 -273 -75q-363 0 -421 323z" />
<glyph unicode="&#x25e;" horiz-adv-x="1039" d="M68 531q0 295 164 437q137 118 337 118q151 0 253 -81q110 -87 110 -234q0 -130 -126 -207q160 -86 160 -267q0 -160 -122 -246q-107 -75 -274 -75q-227 0 -364.5 143.5t-137.5 411.5zM253 531q0 -204 89 -305q93 -106 231 -106q87 0 147 48q66 52 66 136q0 177 -255 177 q-23 0 -61 -1v141q127 1 179 20q92 34 92 137q0 75 -49 117.5t-125 42.5q-161 0 -244 -128q-70 -108 -70 -279z" />
<glyph unicode="&#x25f;" horiz-adv-x="569" d="M-71 -413l27 157q56 -10 106 -10q87 0 120 40q30 36 30 126v100h-207v140h207v922h179v-922h159v-140h-159v-115q0 -107 -19 -159q-58 -157 -275 -157q-76 0 -168 18z" />
<glyph unicode="&#x260;" horiz-adv-x="1139" d="M66 537q0 335 215 479q105 70 245 70q171 0 293 -152v241q0 316 298 316q76 0 168 -18l-27 -157q-56 10 -106 10q-87 0 -120 -40q-30 -36 -30 -126v-1016q0 -199 -29 -294q-45 -147 -181 -221q-110 -60 -270 -60q-185 0 -295 77q-129 90 -125 266l175 -26q11 -81 61 -118 q67 -50 183 -50q235 0 285 190q14 53 13 231q-118 -139 -294 -139q-218 0 -344 163q-115 149 -115 374zM251 550q0 -168 60 -272q75 -129 231 -129q153 0 230 127q62 104 62 268q0 160 -66 266q-79 127 -229 127q-147 0 -224 -126q-64 -104 -64 -261z" />
<glyph unicode="&#x261;" horiz-adv-x="1033" d="M110 336v1057q0 364 406 364q407 0 407 -364v-232h-283v232q0 117 -123 118q-124 0 -124 -118v-1057q0 -117 123 -117q124 0 124 117v406h-143v246h426v-652q0 -363 -407 -363q-406 0 -406 363z" />
<glyph unicode="&#x262;" horiz-adv-x="1144" d="M80 527q0 367 231 495q116 64 253 64q359 0 424 -336l-175 -27q-50 215 -242 215q-306 0 -306 -406q0 -408 296 -408q159 0 264 76v183h-307v149h487v-408q-183 -148 -442 -148q-237 0 -365 160q-118 148 -118 391z" />
<glyph unicode="&#x263;" horiz-adv-x="1026" d="M25 1062h196l292 -678l292 678h196l-394 -902l65 -146q59 -133 59 -209q0 -236 -219 -236q-217 0 -217 236q0 76 59 209l65 146zM464 -190q0 -77 50 -77q48 0 48 77q0 27 -34 106l-15 35l-15 -35q-34 -79 -34 -106z" />
<glyph unicode="&#x264;" horiz-adv-x="1263" d="M25 898q120 188 280 188q194 0 262 -173l67 -170l62 170q63 173 262 173q160 0 280 -188l-109 -118q-91 148 -166 148q-61 0 -92 -71l-144 -328l63 -156q59 -146 59 -179q0 -218 -218 -218q-217 0 -217 218q0 33 59 179l63 156l-144 328q-31 71 -92 71q-75 0 -166 -148z M583 186q0 -62 51 -62q46 0 46 62q0 20 -34 99l-15 35l-14 -35q-34 -85 -34 -99z" />
<glyph unicode="&#x265;" horiz-adv-x="1139" d="M139 389v673h180v-673q0 -258 224 -258q80 0 150.5 41.5t100.5 112.5t30 196v581h180v-1469h-180v529q-126 -146 -318 -146q-249 0 -329 175q-38 83 -38 238z" />
<glyph unicode="&#x266;" horiz-adv-x="1139" d="M135 0v1176q0 161 69.5 238t225.5 77q76 0 168 -18l-27 -157q-56 10 -106 10q-87 0 -120 -40q-30 -36 -30 -126v-220q126 146 318 146q250 0 330 -175q37 -81 37 -238v-673h-180v673q0 258 -224 258q-81 0 -149 -40q-72 -42 -102 -113.5t-30 -196.5v-581h-180z" />
<glyph unicode="&#x267;" horiz-adv-x="1139" d="M135 0v1176q0 161 69.5 238t225.5 77q76 0 168 -18l-27 -157q-56 10 -106 10q-87 0 -120 -40q-30 -36 -30 -126v-220q126 146 318 146q250 0 330 -175q37 -81 37 -238v-731q0 -195 -51 -273q-66 -100 -216 -100q-73 0 -141 19l34 153q54 -14 85 -14q77 0 99 78 q10 36 10 142v726q0 258 -224 258q-81 0 -149 -40q-72 -42 -102 -113.5t-30 -196.5v-581h-180z" />
<glyph unicode="&#x268;" horiz-adv-x="455" d="M25 485v132h111v445h180v-445h110v-132h-110v-485h-180v485h-111zM136 1259v207h180v-207h-180z" />
<glyph unicode="&#x269;" horiz-adv-x="455" d="M87 303v758h180v-758q0 -100 25.5 -137t88.5 -37q41 0 74 8v-147q-48 -15 -108 -15q-260 0 -260 328z" />
<glyph unicode="&#x26a;" horiz-adv-x="729" d="M68 0v148h206v765h-206v149h594v-149h-207v-765h207v-148h-594z" />
<glyph unicode="&#x26b;" horiz-adv-x="670" d="M1 608q-1 97 52 160q56 68 151 68q22 0 44 -5v635h180v-715q23 -7 39 -7q61 0 73 95h130q-6 -228 -196 -228q-21 0 -46 6v-617h-180v695q-25 8 -41 8q-78 0 -76 -95h-130z" />
<glyph unicode="&#x26c;" horiz-adv-x="622" d="M20 834q0 217 223 217h14v415h180v-732h165v-119h-165v-615h-180v615h-13q-224 0 -224 219zM141 830q0 -96 102 -96h14v198h-14q-102 0 -102 -102z" />
<glyph unicode="&#x26d;" horiz-adv-x="455" d="M131 -58v1524h180v-1518q0 -107 10 -143q22 -78 99 -78q31 0 85 14l34 -153q-68 -19 -141 -19q-150 0 -216 100q-51 78 -51 273z" />
<glyph unicode="&#x26e;" horiz-adv-x="1171" d="M131 0v1466h180v-404h733v-119l-369 -375q181 -13 300 -134q128 -131 128 -337q0 -223 -138 -374q-141 -154 -363 -154q-404 0 -471 305l180 16q42 -173 291 -173q143 0 230 113q80 103 80 251q0 159 -97 248q-92 84 -246 84h-93v159l336 350q-149 -6 -203 -6h-298v-916 h-180z" />
<glyph unicode="&#x26f;" horiz-adv-x="1706" d="M132 333v729h179v-669q0 -181 81 -232q46 -29 108 -29q133 0 201 93q59 81 59 220v617h180v-690q0 -240 188 -240q175 0 234 157q29 77 29 222v551h180v-1062h-161v149q-111 -173 -322 -173q-234 0 -300 186q-126 -186 -328 -186q-328 0 -328 357z" />
<glyph unicode="&#x270;" horiz-adv-x="1706" d="M132 333v729h179v-669q0 -181 81 -232q46 -29 108 -29q133 0 201 93q59 81 59 220v617h180v-690q0 -240 188 -240q175 0 234 157q29 77 29 222v551h180v-1469h-180v556q-111 -173 -303 -173q-234 0 -300 186q-126 -186 -328 -186q-328 0 -328 357z" />
<glyph unicode="&#x271;" horiz-adv-x="1706" d="M135 0v1062h161v-149q111 173 322 173q234 0 300 -186q126 186 328 186q328 0 328 -357v-787q0 -195 -51 -273q-66 -100 -216 -100q-73 0 -141 19l34 153q54 -14 85 -14q55 0 82.5 37.5t27.5 183.5v721q0 91 -9 130q-17 67 -72 102q-46 29 -108 29q-260 0 -260 -313v-617 h-180v690q0 240 -188 240q-175 0 -234 -157q-29 -77 -29 -222v-551h-180z" />
<glyph unicode="&#x272;" horiz-adv-x="1139" d="M-90 -412l34 153q54 -14 85 -14q55 0 82.5 37.5t27.5 184.5v1113h162v-151q117 175 338 175q208 0 297 -125q40 -56 56 -133q10 -49 10 -175v-653h-180v646q0 194 -95 252q-53 32 -126 32q-282 0 -282 -350v-638q0 -194 -52 -273q-66 -100 -216 -100q-73 0 -141 19z" />
<glyph unicode="&#x273;" horiz-adv-x="1139" d="M139 0v1062h162v-151q117 175 338 175q208 0 297 -125q40 -56 56 -133q10 -49 10 -175v-704q0 -148 27 -185t82 -37q31 0 85 14l34 -153q-68 -19 -141 -19q-150 0 -216 100q-51 78 -51 273v704q0 194 -95 252q-53 32 -126 32q-282 0 -282 -350v-580h-180z" />
<glyph unicode="&#x274;" horiz-adv-x="1132" d="M135 0v1062h189l493 -784v784h180v-1062h-189l-493 784v-784h-180z" />
<glyph unicode="&#x275;" horiz-adv-x="1139" d="M68 531q0 295 164 437q137 118 334 118q235 0 370 -155q127 -146 127 -385q0 -372 -240 -505q-117 -65 -257 -65q-244 0 -376 159q-122 148 -122 396zM254 485q8 -155 81 -251q83 -110 231 -110q147 0 230 111q72 96 81 250h-623zM259 633h613q-17 128 -83 203 q-89 101 -223 101q-135 0 -224 -101q-66 -75 -83 -203z" />
<glyph unicode="&#x276;" horiz-adv-x="1619" d="M68 531q0 248 124 396q133 159 374 159q91 0 182 -40q83 -38 130 -92v108h651v-149h-471v-288h434v-147h-434v-329h493v-149h-673v115q-46 -66 -139 -104q-84 -35 -173 -35q-243 0 -375 159q-123 148 -123 396zM253 531q0 -171 69 -279q83 -128 244 -128q162 0 244 131 q68 109 68 282q0 166 -71 274q-83 126 -241 126q-161 0 -244 -128q-69 -107 -69 -278z" />
<glyph unicode="&#x277;" horiz-adv-x="1599" d="M87 487q0 289 211 450q193 149 502 149t502 -149q211 -161 211 -450q0 -212 -83 -348q-100 -163 -296 -163q-237 0 -334 239q-98 -239 -334 -239q-196 0 -296 163q-83 136 -83 348zM270 476q0 -134 44 -231q57 -128 173 -128q223 0 223 366v117h179v-117q0 -142 41 -235 q57 -131 184 -131q116 0 173 128q43 97 43 231q0 238 -163 358q-140 103 -367 103t-367 -103q-163 -120 -163 -358z" />
<glyph unicode="&#x278;" horiz-adv-x="1126" d="M68 531q0 222 101 366q107 152 304 182v387h180v-386q190 -28 300 -177q105 -143 105 -357q0 -232 -100 -379q-107 -157 -305 -185v-389h-180v390q-198 29 -305 182q-100 144 -100 366zM253 531q0 -142 50 -243q57 -117 170 -151v787q-113 -33 -170 -150 q-50 -101 -50 -243zM653 135q112 32 170 153q50 103 50 249q0 140 -52 241q-59 116 -168 148v-791z" />
<glyph unicode="&#x279;" horiz-adv-x="682" d="M-28 34l62 167q66 -39 132 -39q131 0 173 134q30 95 30 210v556h180v-1062h-162v161q-49 -89 -90 -128q-59 -57 -140 -57q-91 0 -185 58z" />
<glyph unicode="&#x27a;" horiz-adv-x="682" d="M-28 34l62 167q66 -39 132 -39q131 0 173 134q30 95 30 210v960h180v-1466h-162v161q-49 -89 -90 -128q-59 -57 -140 -57q-91 0 -185 58z" />
<glyph unicode="&#x27b;" horiz-adv-x="682" d="M-28 34l62 167q66 -39 132 -39q131 0 173 134q30 95 30 210v556h180v-1116q0 -106 10 -141q22 -78 99 -78q31 0 85 14l34 -153q-68 -19 -141 -19q-163 0 -223 114q-44 83 -44 262v216q-70 -185 -212 -185q-91 0 -185 58z" />
<glyph unicode="&#x27c;" horiz-adv-x="682" d="M133 -407v1469h162v-161q102 185 230 185q91 0 185 -58l-62 -167q-66 39 -132 39q-131 0 -173 -134q-30 -95 -30 -210v-963h-180z" />
<glyph unicode="&#x27d;" horiz-adv-x="682" d="M133 -55v1117h162v-161q102 185 230 185q91 0 185 -58l-62 -167q-66 39 -132 39q-131 0 -173 -134q-30 -95 -30 -210v-610q0 -106 10 -142q22 -77 99 -77q31 0 85 14l34 -153q-68 -19 -141 -19q-163 0 -223 114q-44 83 -44 262z" />
<glyph unicode="&#x27e;" horiz-adv-x="682" d="M133 0v632q0 242 123 359q100 95 259 95q101 0 195 -58l-62 -167q-66 39 -142 39q-127 0 -169 -122q-24 -68 -24 -222v-556h-180z" />
<glyph unicode="&#x27f;" horiz-adv-x="682" d="M-28 1028q94 58 195 58q159 0 259 -95q123 -117 123 -359v-1039h-180v963q0 154 -24 222q-42 122 -169 122q-76 0 -142 -39z" />
<glyph unicode="&#x280;" horiz-adv-x="1109" d="M138 0v1062h492q164 0 265 -71q115 -82 115 -239q0 -135 -86 -220q-80 -79 -217 -98q88 -17 177 -148l194 -286h-223l-157 232q-91 135 -136 158.5t-141 23.5h-104v-414h-179zM317 562h199q139 0 206 27q105 41 105 157q0 167 -254 167h-256v-351z" />
<glyph unicode="&#x281;" horiz-adv-x="1109" d="M138 0v1062h179v-414h104q111 0 166 42q34 27 111 140l157 232h223l-194 -286q-89 -131 -177 -148q137 -19 217 -98q86 -85 86 -220q0 -157 -115 -239q-101 -71 -265 -71h-492zM317 149h256q254 0 254 167q0 117 -105 158q-66 26 -206 26h-199v-351z" />
<glyph unicode="&#x282;" horiz-adv-x="1024" d="M63 -58v375l180 28q31 -221 273 -221q96 0 162 36q82 45 82 133q0 61 -53 96q-36 24 -184 61q-159 40 -214 61q-216 84 -216 269q0 152 125 235q107 71 266 71q262 0 359 -133q45 -62 62 -165l-176 -24q-25 174 -232 174q-230 0 -230 -137q0 -75 91 -111q25 -10 159 -46 q182 -49 209 -59q219 -80 219 -273q0 -202 -204 -292q-100 -44 -224 -44q-185 0 -274 89v-118q0 -106 10 -142q22 -78 99 -78q31 0 85 14l34 -153q-68 -19 -141 -19q-150 0 -216 100q-51 78 -51 273z" />
<glyph unicode="&#x283;" horiz-adv-x="455" d="M-94 -412l34 153q54 -14 85 -14q77 0 99 77q10 36 10 142v1229q0 162 68 237q71 79 227 79q76 0 168 -18l-27 -157q-56 10 -106 10q-87 0 -118.5 -38.5t-31.5 -128.5v-1217q0 -178 -44 -260q-61 -113 -223 -113q-73 0 -141 19z" />
<glyph unicode="&#x284;" horiz-adv-x="532" d="M-71 -413l27 157q56 -10 106 -10q87 0 120 40q30 36 30 126v100h-207v140h207v1035q0 162 67 237q71 79 227 79q76 0 168 -18l-27 -157q-56 10 -106 10q-87 0 -120 -40q-30 -36 -30 -126v-1020h159v-140h-159v-115q0 -107 -19 -159q-58 -157 -275 -157q-76 0 -168 18z " />
<glyph unicode="&#x285;" horiz-adv-x="455" d="M-142 1068q92 18 168 18q156 0 227 -79q68 -75 68 -237v-824q0 -106 10 -142q22 -77 99 -77q31 0 85 14l34 -153q-68 -19 -141 -19q-162 0 -223 113q-44 82 -44 260v812q0 90 -30 127q-33 40 -120 40q-50 0 -106 -10z" />
<glyph unicode="&#x286;" horiz-adv-x="715" d="M0 -161q0 118 74 188t193 70q62 0 127 -26v1104q0 162 68 237q71 79 227 79q76 0 168 -18l-27 -157q-56 10 -106 10q-87 0 -118.5 -38.5t-31.5 -128.5v-1207q78 -71 224 -265l-108 -118q-40 55 -141 178q-58 -178 -262 -178q-287 0 -287 270zM163 -161q0 -112 116 -112 q108 0 114 164q-71 48 -129 48q-44 0 -72.5 -29t-28.5 -71z" />
<glyph unicode="&#x287;" horiz-adv-x="569" d="M15 1417q76 16 136 16q179 0 228 -113q22 -51 22 -212v-611h132v-140h-132v-263l-179 -108v371h-181v140h181v621q0 79 -13 106q-21 41 -89 41q-30 0 -79 -7z" />
<glyph unicode="&#x288;" horiz-adv-x="569" d="M36 922v140h132v263l179 108v-371h181v-140h-181v-1038q0 -78 14 -105q21 -42 88 -42q30 0 79 7l26 -159q-76 -16 -136 -16q-179 0 -228 113q-22 51 -22 212v1028h-132z" />
<glyph unicode="&#x289;" horiz-adv-x="1139" d="M25 485v132h106v445h180v-445h501v445h180v-445h114v-132h-114v-485h-161v156q-124 -180 -337 -180q-204 0 -296 127q-40 55 -56 133q-11 54 -11 168v81h-106zM311 473q0 -143 11 -190q35 -152 208 -152q81 0 150 41q74 42 103 114q28 68 29 199h-501v-12z" />
<glyph unicode="&#x28a;" horiz-adv-x="1164" d="M84 469q0 131 96 252q49 63 60.5 88.5t11.5 50.5q0 62 -86 62h-82v139h94q99 0 158 -52t59 -137q0 -72 -61 -170q-66 -104 -66 -225q0 -178 92 -266t221 -88q138 0 226 93t88 261q0 121 -66 225q-61 98 -61 170q0 85 59 137t158 52h94v-139h-82q-86 0 -86 -62 q0 -25 11.5 -50.5t60.5 -88.5q96 -121 96 -252q0 -227 -144 -360.5t-354 -133.5t-353.5 133.5t-143.5 360.5z" />
<glyph unicode="&#x28b;" horiz-adv-x="1120" d="M136 413v649h180v-649q0 -139 35 -203q47 -86 169 -86q287 0 287 610q0 187 -150 187q-50 0 -106 -10l-27 157q92 18 168 18q294 0 294 -335q0 -329 -75 -509q-112 -266 -394 -266q-206 0 -297 114q-84 105 -84 323z" />
<glyph unicode="&#x28c;" horiz-adv-x="1024" d="M26 0l404 1062h168l402 -1062h-185l-236 648q-43 118 -67 202q-31 -110 -68 -214l-228 -636h-190z" />
<glyph unicode="&#x28d;" horiz-adv-x="1479" d="M6 0l325 1062h188l215 -817l220 817h187l322 -1062h-175l-243 841l-219 -841h-185l-217 841l-232 -841h-186z" />
<glyph unicode="&#x28e;" horiz-adv-x="1024" d="M24 0l548 1466h190l-158 -424l394 -1042h-190l-297 794l-297 -794h-190z" />
<glyph unicode="&#x28f;" horiz-adv-x="1064" d="M25 1062h201l200 -310q50 -77 107 -180q46 80 116 188l196 302h194l-424 -612v-450h-180v450z" />
<glyph unicode="&#x290;" horiz-adv-x="1024" d="M40 0v146l676 776q-149 -6 -203 -6h-433v146h868v-119l-686 -797q161 9 227 9h491v-271q0 -78 14 -105q21 -42 88 -42q30 0 79 7l26 -159q-76 -16 -136 -16q-179 0 -228 113q-22 51 -22 212v106h-761z" />
<glyph unicode="&#x291;" horiz-adv-x="1108" d="M40 0v146l676 776q-149 -6 -203 -6h-433v146h868v-119l-686 -797q61 9 127 9h45q196 320 387 320q112 0 177.5 -63.5t65.5 -174.5q0 -110 -66.5 -173.5t-177.5 -63.5h-296q-46 -83 -82 -163l-139 61q17 44 44 102h-307zM622 155h198q81 0 81 82q0 81 -80 81 q-83 0 -199 -163z" />
<glyph unicode="&#x292;" horiz-adv-x="1116" d="M76 -16l189 16q19 -125 87 -200q75 -83 195 -83q143 0 230 113q80 103 80 251q0 159 -97 248q-92 84 -246 84h-93v159l336 350q-149 -6 -203 -6h-433v146h868v-119l-369 -375q181 -13 300 -134q128 -131 128 -337q0 -223 -138 -374q-141 -154 -363 -154 q-194 0 -323 111.5t-148 303.5z" />
<glyph unicode="&#x293;" horiz-adv-x="1116" d="M121 916v146h868v-119l-369 -375q181 -13 300 -134q128 -131 128 -337q0 -144 -68 -273q72 -66 127 -128l-100 -127q-25 28 -123 124q-133 -124 -377 -124q-149 0 -242 61q-108 71 -108 208q0 120 89 185q81 59 208 59q184 0 372 -131q31 62 31 130q0 159 -97 248 q-92 84 -246 84h-93v159l336 350q-149 -6 -203 -6h-433zM320 -167q0 -55 71 -89q57 -27 119 -27q135 0 230 94q-151 108 -289 108q-57 0 -94 -23.5t-37 -62.5z" />
<glyph unicode="&#x294;" horiz-adv-x="1024" d="M36 1156q65 336 424 336q144 0 254 -64q117 -68 173 -194q57 -129 57 -301q0 -207 -94 -357q-109 -174 -304 -187v-389h-180v544q44 -14 97 -14q296 0 296 408q0 406 -306 406q-192 0 -242 -215z" />
<glyph unicode="&#x295;" horiz-adv-x="1024" d="M80 933q0 367 231 495q116 64 253 64q359 0 424 -336l-175 -27q-50 215 -242 215q-306 0 -306 -406q0 -408 296 -408q53 0 97 14v-544h-180v389q-195 13 -304 187q-94 150 -94 357z" />
<glyph unicode="&#x296;" horiz-adv-x="1024" d="M36 310l175 27q50 -215 242 -215q163 0 242 127q64 105 64 279q0 408 -296 408q-53 0 -97 -14v544h180v-389q195 -13 304 -187q94 -150 94 -357q0 -367 -230 -494q-117 -65 -254 -65q-169 0 -279 85q-113 87 -145 251z" />
<glyph unicode="&#x297;" horiz-adv-x="1024" d="M80 120v407q0 367 231 495q116 64 253 64q359 0 424 -336l-175 -27q-50 215 -242 215q-306 0 -306 -407v-406q0 -408 296 -408q230 0 267 265l177 -23q-28 -179 -144 -283q-119 -107 -298 -107q-237 0 -365 160q-118 148 -118 391z" />
<glyph unicode="&#x298;" horiz-adv-x="1593" d="M99 714q0 341 178 553q190 225 524 225q200 0 362 -94q166 -97 253 -273q85 -172 85 -394q0 -213 -81 -382q-91 -188 -264 -283q-166 -91 -356 -91q-202 0 -364 96q-166 99 -253 277q-84 173 -84 366zM299 711q0 -241 127 -399q137 -171 373 -171q246 0 381 177 q121 160 121 414q0 370 -237 520q-116 73 -262 73q-259 0 -389 -184q-114 -160 -114 -430zM695 615v205h205v-205h-205z" />
<glyph unicode="&#x299;" horiz-adv-x="1043" d="M130 0v1729h418q12 -1 18 -1q377 0 377 -362v-261q0 -170 -155 -240q155 -70 155 -241v-260q0 -363 -377 -363h-18zM413 246h124q123 0 123 118v260q0 83 -77 110q-22 8 -81 8h-89v-496zM413 988h89q59 0 81 8q77 27 77 109v261q0 117 -123 117h-124v-495z" />
<glyph unicode="&#x29a;" horiz-adv-x="1039" d="M73 297q0 181 160 267q-126 77 -126 207q0 147 110 234q102 81 253 81q200 0 337 -118q164 -142 164 -437q0 -270 -137 -412.5t-365 -142.5q-167 0 -274 75q-122 86 -122 246zM253 304q0 -84 66 -136q60 -48 147 -48q138 0 231 106q89 101 89 305q0 171 -70 279 q-83 128 -244 128q-76 0 -125 -42.5t-49 -117.5q0 -103 92 -137q52 -19 179 -20v-141q-39 1 -61 1q-255 0 -255 -177z" />
<glyph unicode="&#x29b;" horiz-adv-x="1144" d="M80 527q0 367 231 495q116 64 253 64q147 0 249 -64q5 44 15 72q58 157 275 157q76 0 168 -18l-27 -157q-56 10 -106 10q-87 0 -120 -40q-30 -36 -30 -126v-170l-175 -27q-50 215 -242 215q-306 0 -306 -406q0 -408 296 -408q159 0 264 76v183h-307v149h487v-408 q-183 -148 -442 -148q-237 0 -365 160q-118 148 -118 391z" />
<glyph unicode="&#x29c;" horiz-adv-x="1073" d="M130 0v1729h283v-741h247v741h283v-1729h-283v742h-247v-742h-283z" />
<glyph unicode="&#x29d;" horiz-adv-x="814" d="M0 -154q0 123 78 192q75 67 199 67h216v957h180v-957h137v-155h-137q-7 -171 -95 -273q-94 -108 -258 -108q-155 0 -240 79q-80 74 -80 198zM173 -154q0 -57 49 -91q43 -28 101 -28q148 0 170 223h-209q-41 0 -76 -31t-35 -73zM493 1257v209h180v-209h-180z" />
<glyph unicode="&#x29e;" horiz-adv-x="1024" d="M8 1062h222l351 -543l127 122v421h180v-1469h-180v839l-426 -432h-233l406 394z" />
<glyph unicode="&#x29f;" horiz-adv-x="827" d="M136 0v1062h180v-913h431v-149h-611z" />
<glyph unicode="&#x2a0;" horiz-adv-x="1139" d="M72 541q0 345 217 480q105 65 231 65q186 0 292 -136v225q0 161 69.5 238.5t225.5 77.5q76 0 168 -18l-27 -157q-56 10 -106 10q-87 0 -120 -41q-30 -36 -30 -126v-1566h-180v520q-98 -137 -278 -137q-219 0 -347 179q-115 159 -115 386zM257 534q0 -162 63 -273 q78 -137 229 -137q145 0 220 131q61 106 61 263q0 165 -63 281q-78 145 -230 145q-150 0 -223 -138q-57 -108 -57 -272z" />
<glyph unicode="&#x2a1;" horiz-adv-x="1024" d="M36 148v132h330v264q44 -14 97 -14q296 0 296 408q0 406 -306 406q-192 0 -242 -215l-175 27q65 336 424 336q144 0 254 -64q117 -68 173 -194q57 -129 57 -301q0 -207 -94 -357q-109 -174 -304 -187v-109h329v-132h-329v-148h-180v148h-330z" />
<glyph unicode="&#x2a2;" horiz-adv-x="1024" d="M80 933q0 367 231 495q116 64 253 64q359 0 424 -336l-175 -27q-50 215 -242 215q-306 0 -306 -406q0 -408 296 -408q53 0 97 14v-264h330v-132h-330v-148h-180v148h-329v132h329v109q-195 13 -304 187q-94 150 -94 357z" />
<glyph unicode="&#x2a3;" horiz-adv-x="1975" d="M70 530q0 349 212 487q106 69 237 69q187 0 293 -146v526h179v-404h908v-119l-686 -797q161 9 227 9h491v-155h-1107v134q-101 -158 -297 -158q-131 0 -238 73q-103 71 -160 193q-59 127 -59 288zM255 530q0 -160 63 -271q77 -135 226 -135q148 0 222 128q61 105 61 263 q0 171 -59 281q-76 141 -232 141q-151 0 -224 -136q-57 -106 -57 -271zM991 146l676 776q-149 -6 -203 -6h-473v-770z" />
<glyph unicode="&#x2a4;" horiz-adv-x="1856" d="M70 530q0 349 212 487q106 69 237 69q187 0 293 -146v526h179v-404h738v-119l-369 -375q181 -13 300 -134q128 -131 128 -337q0 -222 -145 -375t-368 -153q-172 0 -300 79q-134 82 -151 212h175q16 -53 81 -93q80 -50 197 -50q144 0 235 113q85 104 85 251q0 159 -97 248 q-92 84 -246 84h-93v159l336 350q-149 -6 -203 -6h-303v-916h-167v134q-101 -158 -297 -158q-131 0 -238 73q-103 71 -160 193q-59 127 -59 288zM255 530q0 -160 63 -271q77 -135 226 -135q148 0 222 128q61 105 61 263q0 171 -59 281q-76 141 -232 141q-151 0 -224 -136 q-57 -106 -57 -271z" />
<glyph unicode="&#x2a5;" horiz-adv-x="2059" d="M70 530q0 349 212 487q106 69 237 69q187 0 293 -146v526h179v-404h908v-119l-686 -797q61 9 127 9h45q196 320 387 320q112 0 177.5 -63.5t65.5 -174.5q0 -110 -66.5 -173.5t-177.5 -63.5h-296q-46 -83 -82 -163l-139 61q17 44 44 102h-474v134q-101 -158 -297 -158 q-131 0 -238 73q-103 71 -160 193q-59 127 -59 288zM255 530q0 -160 63 -271q77 -135 226 -135q148 0 222 128q61 105 61 263q0 171 -59 281q-76 141 -232 141q-151 0 -224 -136q-57 -106 -57 -271zM991 146l676 776q-149 -6 -203 -6h-473v-770zM1573 155h198q81 0 81 82 q0 81 -80 81q-83 0 -199 -163z" />
<glyph unicode="&#x2a6;" horiz-adv-x="1459" d="M36 922v140h132v263l179 108v-371h408q79 24 164 24q262 0 359 -133q45 -61 62 -165l-176 -24q-25 174 -232 174q-230 0 -230 -137q0 -75 91 -111q26 -10 159 -46q198 -53 267 -83q161 -69 161 -249q0 -164 -139 -246q-113 -66 -289 -66h-524q-166 0 -220 90 q-40 65 -40 235v597h-132zM347 315q0 -78 14 -105q21 -42 89 -42h501q244 0 244 125q0 74 -87 114q-27 12 -150 43q-164 41 -214 61q-128 49 -176 127q-40 65 -40 142q0 75 38 142h-219v-607z" />
<glyph unicode="&#x2a7;" horiz-adv-x="879" d="M36 922v140h132v263l179 108v-371h211v113q0 162 68 237q71 79 227 79q76 0 168 -18l-27 -157q-56 10 -106 10q-87 0 -118.5 -38.5t-31.5 -128.5v-1217q0 -178 -44 -260q-61 -113 -223 -113q-73 0 -141 19l34 153q54 -14 85 -14q77 0 99 77q10 36 10 142v55 q-75 -15 -140 -15q-164 0 -215 90q-35 61 -35 235v611h-132zM347 301q0 -79 13 -105q21 -42 89 -42q42 0 109 13v755h-211v-621z" />
<glyph unicode="&#x2a8;" horiz-adv-x="1472" d="M36 922v140h132v263l179 108v-371h181v-140h-181v-621q0 -77 13 -105q20 -42 79 -42q52 0 155 76q-66 114 -66 297q0 367 231 495q116 64 253 64q359 0 424 -336l-175 -27q-50 215 -242 215q-306 0 -306 -406q0 -121 31 -193q212 174 385 174q127 0 203 -59 q84 -66 84 -195q0 -140 -113 -215q-103 -68 -272 -68q-233 0 -356 137q-156 -127 -267 -127q-148 0 -200 90q-40 68 -40 235v611h-132zM812 211q80 -87 217 -87q93 0 158.5 37.5t65.5 97.5q0 42 -33.5 71.5t-87.5 29.5q-151 0 -320 -149z" />
<glyph unicode="&#x2a9;" horiz-adv-x="1564" d="M19 922v140h159v113q0 107 19 159q58 157 275 157q76 0 168 -18l-27 -157q-56 10 -106 10q-87 0 -120 -40q-30 -36 -30 -126v-98h369v-151q117 175 338 175q111 0 200 -46q102 -52 135 -148q28 -81 28 -239v-711q0 -180 -44 -262q-61 -111 -223 -111q-73 0 -141 19 l34 153q53 -14 85 -14q78 0 99 77q10 34 10 142v700q0 136 -43 203q-52 81 -180 81q-280 0 -280 -350v-580h-180v922h-207v-922h-179v922h-159z" />
<glyph unicode="&#x2aa;" horiz-adv-x="1354" d="M131 0v1466h180v-1189q202 -153 445 -153q127 0 214 31q120 43 120 138q0 61 -53 96q-36 24 -184 61q-164 41 -214 61q-128 49 -176 127q-40 65 -40 142q0 144 121 232q102 74 270 74q262 0 359 -133q45 -61 62 -165l-176 -24q-25 174 -232 174q-230 0 -230 -137 q0 -75 91 -111q26 -10 159 -46q182 -49 209 -59q126 -46 176 -119q43 -62 43 -154q0 -187 -175 -272q-131 -64 -343 -64q-252 0 -446 112v-88h-180z" />
<glyph unicode="&#x2ab;" horiz-adv-x="1295" d="M131 0v1466h180v-404h908v-119l-686 -797q161 9 227 9h491v-155h-1120zM311 146l676 776q-149 -6 -203 -6h-473v-770z" />
<glyph unicode="&#x2ac;" horiz-adv-x="994" d="M30 699h133l123 -531l166 531h97l170 -531l117 531h128l-177 -699h-129l-161 509l-160 -509h-128zM30 1466h133l123 -531l166 531h97l170 -531l117 531h128l-177 -699h-129l-161 509l-160 -509h-128z" />
<glyph unicode="&#x2ad;" horiz-adv-x="1080" d="M99 0v487h882v-487h-180v314h-522v-314h-180zM99 979v487h882v-487h-180v314h-522v-314h-180z" />
<glyph unicode="&#x2ae;" horiz-adv-x="1407" d="M10 1028q94 58 195 58q160 0 259 -93q123 -116 123 -358v-246q0 -258 224 -258q80 0 150.5 41.5t100.5 112.5t30 196v581h180v-1469h-180v529q-126 -146 -318 -146q-249 0 -329 175q-38 83 -38 238v167q0 154 -24 222q-42 122 -169 122q-76 0 -142 -39z" />
<glyph unicode="&#x2af;" horiz-adv-x="1407" d="M10 1028q94 58 195 58q160 0 259 -93q123 -116 123 -358v-246q0 -258 224 -258q80 0 150.5 41.5t100.5 112.5t30 196v581h180v-963q0 -154 24 -222q42 -122 169 -122q76 0 142 39l62 -167q-94 -58 -195 -58q-160 0 -259 93q-123 116 -123 358v102q-126 -146 -318 -146 q-249 0 -329 175q-38 83 -38 238v167q0 154 -24 222q-42 122 -169 122q-76 0 -142 -39z" />
<glyph unicode="&#x2b0;" horiz-adv-x="785" d="M100 474v992h122v-356q85 99 215 99q169 0 223 -119q25 -55 25 -161v-455h-122v455q0 175 -151 175q-126 0 -170 -104q-20 -47 -20 -133v-393h-122z" />
<glyph unicode="&#x2b1;" horiz-adv-x="785" d="M100 474v795q0 212 200 212q52 0 113 -12l-18 -106q-39 7 -72 7q-59 0 -80 -25.5t-21 -86.5v-149q85 99 215 99q169 0 223 -119q25 -55 25 -161v-454h-122v454q0 175 -151 175q-126 0 -170 -104q-20 -47 -20 -133v-392h-122z" />
<glyph unicode="&#x2b2;" horiz-adv-x="326" d="M-50 195l23 104q39 -10 58 -10q52 0 66 53q7 23 7 95v755h122v-758q0 -131 -35 -184q-45 -68 -146 -68q-48 0 -95 13zM104 1325v140h122v-140h-122z" />
<glyph unicode="&#x2b3;" horiz-adv-x="491" d="M100 474v718h110v-109q69 125 155 125q63 0 126 -39l-42 -113q-44 26 -90 26q-89 0 -117 -90q-20 -64 -20 -142v-376h-122z" />
<glyph unicode="&#x2b4;" horiz-adv-x="491" d="M0 497l42 113q44 -26 90 -26q89 0 117 90q20 64 20 142v376h122v-718h-110v109q-69 -125 -155 -125q-63 0 -126 39z" />
<glyph unicode="&#x2b5;" horiz-adv-x="491" d="M0 497l42 113q44 -26 90 -26q89 0 117 90q20 64 20 142v376h121v-754q0 -98 18.5 -123t55.5 -25q23 0 58 9l23 -103q-47 -13 -96 -13q-111 0 -151 77q-29 55 -29 177v146q-48 -125 -144 -125q-62 0 -125 39z" />
<glyph unicode="&#x2b6;" horiz-adv-x="746" d="M100 474v718h121v-280h71q74 0 112 29q24 19 75 94l106 157h151l-131 -193q-60 -88 -120 -100q92 -12 147 -67q58 -58 58 -148q0 -106 -78 -161q-68 -49 -179 -49h-333zM221 575h173q172 0 172 113q0 124 -210 124h-135v-237z" />
<glyph unicode="&#x2b7;" horiz-adv-x="985" d="M0 1192h126l157 -569l151 569h125l143 -554l165 554h118l-224 -718h-127l-142 552l-145 -552h-127z" />
<glyph unicode="&#x2b8;" horiz-adv-x="657" d="M0 1192h131l149 -416q31 -87 52 -166q22 88 50 164l154 418h121l-273 -730q-45 -121 -68 -163q-63 -116 -174 -116q-35 0 -79 15l-13 114q41 -11 69 -11q72 0 105 52q12 19 37 90q5 14 11 30z" />
<glyph unicode="&#x2b9;" horiz-adv-x="536" d="M120 1963h296l-34 -652h-228z" />
<glyph unicode="&#x2ba;" horiz-adv-x="968" d="M120 1963h296l-34 -652h-228zM552 1963h296l-34 -652h-228z" />
<glyph unicode="&#x2bb;" horiz-adv-x="455" d="M128 1011v165q0 133 32 194q42 80 133 121l44 -70q-105 -44 -110 -201h94v-209h-193z" />
<glyph unicode="&#x2bc;" horiz-adv-x="455" d="M108 1072q104 42 110 200h-94v209h193v-165q0 -134 -31 -193q-43 -81 -134 -122z" />
<glyph unicode="&#x2bd;" horiz-adv-x="455" d="M138 1316v165h193v-209h-94q6 -158 110 -200l-44 -71q-91 41 -134 122q-31 59 -31 193z" />
<glyph unicode="&#x2be;" horiz-adv-x="682" d="M251 1151v75q44 0 74 33t30 78q0 43 -30.5 75t-73.5 32v73q74 0 127 -53t53 -126q0 -78 -51.5 -132.5t-128.5 -54.5z" />
<glyph unicode="&#x2bf;" horiz-adv-x="682" d="M251 1338q0 73 53 126t127 53v-73q-43 0 -73.5 -32t-30.5 -75q0 -45 30 -78t74 -33v-75q-77 0 -128.5 54.5t-51.5 132.5z" />
<glyph unicode="&#x2c0;" horiz-adv-x="714" d="M50 1255q44 227 287 227q211 0 288 -174q39 -88 39 -204q0 -140 -64 -241q-73 -117 -205 -126v-263h-122v367q30 -9 66 -9q200 0 200 276q0 274 -207 274q-130 0 -164 -145z" />
<glyph unicode="&#x2c1;" horiz-adv-x="714" d="M50 1104q0 249 156 335q78 43 171 43q243 0 287 -227l-118 -18q-34 145 -164 145q-207 0 -207 -274q0 -276 200 -276q36 0 66 9v-367h-122v263q-132 9 -205 126q-64 101 -64 241z" />
<glyph unicode="&#x2c2;" horiz-adv-x="1047" d="M120 829v291l807 452v-275l-587 -320l587 -311v-274z" />
<glyph unicode="&#x2c3;" horiz-adv-x="1047" d="M120 392v274l587 311l-587 320v275l807 -452v-291z" />
<glyph unicode="&#x2c4;" horiz-adv-x="1196" d="M101 237l410 971h168l415 -971h-179l-319 770l-316 -770h-179z" />
<glyph unicode="&#x2c5;" horiz-adv-x="1196" d="M101 1208h179l316 -770l319 770h179l-415 -971h-168z" />
<glyph unicode="&#x2c6;" horiz-adv-x="1109" d="M166 1806l256 252h264l258 -252h-254l-136 93l-135 -93h-253z" />
<glyph unicode="&#x2c7;" horiz-adv-x="1109" d="M166 2058h253l135 -93l136 93h254l-258 -252h-264z" />
<glyph unicode="&#x2c8;" horiz-adv-x="682" d="M289 1134v332h103v-332h-103z" />
<glyph unicode="&#x2c9;" horiz-adv-x="899" d="M130 1805v231h639v-231h-639z" />
<glyph unicode="&#x2ca;" horiz-adv-x="682" d="M222 1194l133 280h236l-220 -280h-149z" />
<glyph unicode="&#x2cb;" horiz-adv-x="682" d="M89 1474h241l135 -280h-145z" />
<glyph unicode="&#x2cc;" horiz-adv-x="682" d="M289 -75h103v-332h-103v332z" />
<glyph unicode="&#x2cd;" horiz-adv-x="682" d="M29 -150h624v-148h-624v148z" />
<glyph unicode="&#x2ce;" horiz-adv-x="682" d="M89 -127h241l135 -280h-145z" />
<glyph unicode="&#x2cf;" horiz-adv-x="682" d="M222 -407l133 280h236l-220 -280h-149z" />
<glyph unicode="&#x2d0;" horiz-adv-x="569" d="M182 0l90 205h25l90 -205h-205zM182 1062h205l-90 -205h-25z" />
<glyph unicode="&#x2d1;" horiz-adv-x="569" d="M182 1062h205l-90 -205h-25z" />
<glyph unicode="&#x2d2;" horiz-adv-x="682" d="M251 100v75q44 0 74 33t30 78q0 43 -30.5 75t-73.5 32v73q74 0 127 -53t53 -126q0 -78 -51.5 -132.5t-128.5 -54.5z" />
<glyph unicode="&#x2d3;" horiz-adv-x="682" d="M251 287q0 73 53 126t127 53v-73q-43 0 -73.5 -32t-30.5 -75q0 -45 30 -78t74 -33v-75q-77 0 -128.5 54.5t-51.5 132.5z" />
<glyph unicode="&#x2d4;" horiz-adv-x="682" d="M166 178v103h123v229h103v-229h123v-103h-349z" />
<glyph unicode="&#x2d5;" horiz-adv-x="682" d="M166 407v103h349v-103h-123v-229h-103v229h-123z" />
<glyph unicode="&#x2d6;" horiz-adv-x="682" d="M166 293v103h123v114h103v-114h123v-103h-123v-115h-103v115h-123z" />
<glyph unicode="&#x2d7;" horiz-adv-x="682" d="M29 269v148h624v-148h-624z" />
<glyph unicode="&#x2d8;" horiz-adv-x="1026" d="M130 2055h214q31 -108 168 -108h1q139 0 169 108h214q-127 -258 -393 -258h-8q-269 4 -365 258z" />
<glyph unicode="&#x2d9;" horiz-adv-x="503" d="M130 1811v242h243v-242h-243z" />
<glyph unicode="&#x2da;" horiz-adv-x="657" d="M130 1861q0 198 198 198q199 0 199 -198q0 -199 -199 -199q-198 0 -198 199zM248 1861q0 -81 80 -81q81 0 81 81q0 80 -81 80q-80 0 -80 -80z" />
<glyph unicode="&#x2db;" horiz-adv-x="682" d="M75 -246q0 64 36 128.5t102 117.5h132q-57 -35 -88.5 -86.5t-31.5 -104.5q0 -42 23 -71t75 -29q23 0 47 6.5t44 17.5v-128q-73 -35 -136 -35q-51 0 -89 14.5t-63.5 40t-38 58.5t-12.5 71z" />
<glyph unicode="&#x2dc;" horiz-adv-x="947" d="M130 1846l35 71q67 135 174 141h7q67 0 173 -66q51 -32 84 -32q28 0 43 23l41 67l130 -86l-41 -68q-64 -102 -158 -107h-7q-67 0 -171 66q-66 41 -79 43h-4q-28 0 -55 -54l-35 -71z" />
<glyph unicode="&#x2dd;" horiz-adv-x="682" d="M58 1194l121 280h234l-211 -280h-144zM405 1194l127 280h231l-207 -280h-151z" />
<glyph unicode="&#x2de;" horiz-adv-x="682" d="M-30 754l235 39l23 -132q12 -69 24 -94q24 -50 76 -50q46 0 172 61l29 -166q-118 -57 -219 -57q-197 0 -233 256l-81 -9z" />
<glyph unicode="&#x2df;" horiz-adv-x="682" d="M-5 870l251 250l-251 250l96 96l250 -251l250 251l96 -96l-251 -250l251 -250l-96 -96l-250 251l-250 -251z" />
<glyph unicode="&#x2e0;" horiz-adv-x="660" d="M0 1192h133l197 -458l197 458h133l-266 -610l43 -98q40 -91 40 -142q0 -159 -148 -159q-146 0 -146 159q0 51 40 142l43 98zM297 346q0 -52 34 -52q32 0 32 52q0 16 -23 71l-10 24l-10 -24q-23 -55 -23 -71z" />
<glyph unicode="&#x2e1;" horiz-adv-x="322" d="M100 474v992h122v-992h-122z" />
<glyph unicode="&#x2e2;" horiz-adv-x="696" d="M50 688l120 19q21 -149 186 -149q64 0 109 24q56 31 56 90q0 41 -36 65q-24 16 -124 41q-111 28 -145 41q-87 33 -119 86q-27 44 -27 96q0 98 82 157q69 50 182 50q177 0 243 -90q31 -42 42 -111l-119 -16q-17 117 -157 117q-155 0 -155 -92q0 -52 61 -76q16 -6 108 -31 q122 -33 141 -40q85 -31 119 -80q29 -42 29 -104q0 -137 -138 -198q-66 -29 -151 -29q-266 0 -307 230z" />
<glyph unicode="&#x2e3;" horiz-adv-x="672" d="M0 474l262 373l-242 345h152l110 -168q25 -39 50 -81q18 27 55 79l121 170h145l-248 -338l267 -380h-149l-187 283l-189 -283h-147z" />
<glyph unicode="&#x2e4;" horiz-adv-x="714" d="M50 1104q0 249 156 335q78 43 171 43q243 0 287 -227l-118 -18q-34 145 -164 145q-207 0 -207 -274q0 -276 200 -276q36 0 66 9v-367h-122v263q-132 9 -205 126q-64 101 -64 241z" />
<glyph unicode="&#x2e5;" horiz-adv-x="784" d="M150 1310v156h484v-1466h-156v1310h-328z" />
<glyph unicode="&#x2e6;" horiz-adv-x="784" d="M150 982v156h328v328h156v-1466h-156v982h-328z" />
<glyph unicode="&#x2e7;" horiz-adv-x="784" d="M150 655v156h328v655h156v-1466h-156v655h-328z" />
<glyph unicode="&#x2e8;" horiz-adv-x="784" d="M150 328v156h328v982h156v-1466h-156v328h-328z" />
<glyph unicode="&#x2e9;" horiz-adv-x="784" d="M150 0v156h328v1310h156v-1466h-484z" />
<glyph unicode="&#x2ea;" horiz-adv-x="682" d="M98 0v880h94v-786h393v-94h-487z" />
<glyph unicode="&#x2eb;" horiz-adv-x="682" d="M98 0v880h94v-393h393v-94h-393v-393h-94z" />
<glyph unicode="&#x2ec;" horiz-adv-x="682" d="M40 -127h206l113 -170l110 170h204l-225 -280h-192z" />
<glyph unicode="&#x2ed;" horiz-adv-x="682" d="M29 1194v148h624v-148h-624zM29 1416v148h624v-148h-624z" />
<glyph unicode="&#x2ee;" horiz-adv-x="682" d="M71 1072q104 42 110 200h-94v209h193v-165q0 -134 -31 -193q-43 -81 -134 -122zM381 1072q104 42 110 200h-94v209h193v-165q0 -134 -31 -193q-43 -81 -134 -122z" />
<glyph unicode="&#x2ef;" horiz-adv-x="682" d="M132 -72h114l93 -170l93 170h114l-181 -281h-52z" />
<glyph unicode="&#x2f0;" horiz-adv-x="682" d="M132 -353l181 281h52l181 -281h-114l-93 170l-93 -170h-114z" />
<glyph unicode="&#x2f1;" horiz-adv-x="682" d="M201 -187l281 181v-114l-170 -93l170 -93v-114l-281 181v52z" />
<glyph unicode="&#x2f2;" horiz-adv-x="682" d="M201 -6l281 -181v-52l-281 -181v114l170 93l-170 93v114z" />
<glyph unicode="&#x2f3;" horiz-adv-x="682" d="M160 -244q0 73 53.5 126t126.5 53q76 0 128 -53.5t52 -129.5t-52 -129.5t-127 -53.5q-77 0 -129 54.5t-52 132.5zM236 -245q0 -45 30.5 -78t75.5 -33t75.5 32t30.5 77t-30.5 77t-75.5 32q-44 0 -75 -31.5t-31 -75.5z" />
<glyph unicode="&#x2f4;" horiz-adv-x="682" d="M89 458h241l135 -280h-145z" />
<glyph unicode="&#x2f5;" horiz-adv-x="682" d="M-81 458h231l127 -280h-151zM269 458h234l121 -280h-144z" />
<glyph unicode="&#x2f6;" horiz-adv-x="682" d="M58 178l121 280h234l-211 -280h-144zM405 178l127 280h231l-207 -280h-151z" />
<glyph unicode="&#x2f7;" horiz-adv-x="682" d="M7 -407q-1 97 52 160q56 68 151 68q62 0 169 -54q59 -30 94 -30q61 0 73 87h130q-6 -228 -196 -228q-63 0 -166 56q-67 36 -98 36q-78 0 -76 -95h-133z" />
<glyph unicode="&#x2f8;" horiz-adv-x="569" d="M185 404v205h205v-205h-205zM185 1261v205h205v-205h-205z" />
<glyph unicode="&#x2f9;" horiz-adv-x="682" d="M169 1134v332h349v-103h-246v-229h-103z" />
<glyph unicode="&#x2fa;" horiz-adv-x="682" d="M169 1363v103h349v-332h-103v229h-246z" />
<glyph unicode="&#x2fb;" horiz-adv-x="682" d="M169 -75h103v-229h246v-103h-349v332z" />
<glyph unicode="&#x2fc;" horiz-adv-x="682" d="M169 -304h246v229h103v-332h-349v103z" />
<glyph unicode="&#x2fd;" horiz-adv-x="814" d="M30 -44h154v-222h446v222h154v-376h-754v376z" />
<glyph unicode="&#x2fe;" horiz-adv-x="814" d="M30 -44h154v-222h600v-154h-754v376z" />
<glyph unicode="&#x2ff;" horiz-adv-x="682" d="M58 -123l200 283h94l-166 -243h439v-94h-439l166 -243h-94l-200 283v14z" />
<glyph unicode="&#x300;" d="M-534 1827h241l135 -280h-145z" />
<glyph unicode="&#x301;" d="M-380 1547l135 280h241l-231 -280h-145z" />
<glyph unicode="&#x302;" d="M-319 1194l216 280h192l225 -280h-204l-110 170l-113 -170h-206z" />
<glyph unicode="&#x303;" d="M-909 1547q-1 102 55.5 165t147.5 63q62 0 169 -54q59 -30 94 -30q61 0 73 87h130q-6 -228 -196 -228q-63 0 -166 56q-67 36 -98 36q-78 0 -76 -95h-133z" />
<glyph unicode="&#x304;" d="M-314 1227v148h624v-148h-624z" />
<glyph unicode="&#x305;" d="M-596 1566v129h1193v-129h-1193z" />
<glyph unicode="&#x306;" d="M-296 1464h123q28 -135 167 -135q151 0 178 135h123q-31 -259 -295 -259q-265 0 -296 259z" />
<glyph unicode="&#x307;" d="M-110 1194v224h223v-224h-223z" />
<glyph unicode="&#x308;" d="M-279 1270v205h188v-205h-188zM94 1270v205h188v-205h-188z" />
<glyph unicode="&#x309;" d="M-471 1828q39 8 144 7q123 -1 201 -40q86 -42 88 -109q4 -101 -182 -124v-50h-112v112q57 6 73 11q53 13 54 41q1 23 -28 39q-42 23 -133 23q-31 0 -94 -4z" />
<glyph unicode="&#x30a;" d="M-180 1338q0 73 53.5 126t126.5 53q76 0 128 -53.5t52 -129.5t-52 -129.5t-127 -53.5q-77 0 -129 54.5t-52 132.5zM-104 1337q0 -45 30.5 -78t75.5 -33t75.5 32t30.5 77t-30.5 77t-75.5 32q-44 0 -75 -31.5t-31 -75.5z" />
<glyph unicode="&#x30b;" d="M-352 1194l121 280h234l-211 -280h-144zM-5 1194l127 280h231l-207 -280h-151z" />
<glyph unicode="&#x30c;" d="M-316 1474h206l113 -170l110 170h204l-225 -280h-192z" />
<glyph unicode="&#x30d;" d="M-50 1134v332h103v-332h-103z" />
<glyph unicode="&#x30e;" d="M-154 1134v332h103v-332h-103zM56 1134v332h103v-332h-103z" />
<glyph unicode="&#x30f;" d="M-352 1474h231l127 -280h-151zM-2 1474h234l121 -280h-144z" />
<glyph unicode="&#x310;" d="M-296 1464h123q28 -135 167 -135q151 0 178 135h123q-31 -259 -295 -259q-265 0 -296 259zM-93 1464v205h188v-205h-188z" />
<glyph unicode="&#x311;" d="M-296 1205q31 259 296 259q264 0 295 -259h-123q-27 135 -178 135q-139 0 -167 -135h-123z" />
<glyph unicode="&#x312;" d="M-105 1011v165q0 133 32 194q42 80 133 121l44 -70q-105 -44 -110 -201h94v-209h-193z" />
<glyph unicode="&#x313;" d="M-104 1072q104 42 110 200h-94v209h193v-165q0 -134 -31 -193q-43 -81 -134 -122z" />
<glyph unicode="&#x314;" d="M-103 1316v165h193v-209h-94q6 -158 110 -200l-44 -71q-91 41 -134 122q-31 59 -31 193z" />
<glyph unicode="&#x315;" d="M-12 1072q104 42 110 200h-94v209h193v-165q0 -134 -31 -193q-43 -81 -134 -122z" />
<glyph unicode="&#x316;" d="M-190 -127h241l135 -280h-145z" />
<glyph unicode="&#x317;" d="M-190 -407l135 280h241l-231 -280h-145z" />
<glyph unicode="&#x318;" d="M-188 -189h246v114h103v-332h-103v115h-246v103z" />
<glyph unicode="&#x319;" d="M-161 -75h103v-114h246v-103h-246v-115h-103v332z" />
<glyph unicode="&#x31a;" d="M-377 1523v149h754v-462h-149v313h-605z" />
<glyph unicode="&#x31b;" d="M-20 1007v74q183 0 183 176h-94v209h193v-165q0 -294 -282 -294z" />
<glyph unicode="&#x31c;" d="M-90 -244q0 73 53 126t127 53v-73q-43 0 -73.5 -32t-30.5 -75q0 -45 30 -78t74 -33v-75q-77 0 -128.5 54.5t-51.5 132.5z" />
<glyph unicode="&#x31d;" d="M-175 -304h123v229h103v-229h123v-103h-349v103z" />
<glyph unicode="&#x31e;" d="M-175 -75h349v-103h-123v-229h-103v229h-123v103z" />
<glyph unicode="&#x31f;" d="M-175 -189h123v114h103v-114h123v-103h-123v-115h-103v115h-123v103z" />
<glyph unicode="&#x320;" d="M-311 -150h624v-148h-624v148z" />
<glyph unicode="&#x321;" d="M-228 -412l34 153q54 -14 85 -14q77 0 99 78q10 35 10 141v209h180v-213q0 -195 -51 -273q-66 -100 -216 -100q-73 0 -141 19z" />
<glyph unicode="&#x322;" d="M0 -58v213h180v-209q0 -106 10 -142q22 -77 99 -77q31 0 85 14l34 -153q-68 -19 -141 -19q-150 0 -216 100q-51 78 -51 273z" />
<glyph unicode="&#x323;" d="M-783 -120h205v-205h-205v205z" />
<glyph unicode="&#x324;" d="M-279 -202h188v-205h-188v205zM94 -202h188v-205h-188v205z" />
<glyph unicode="&#x325;" d="M-180 -244q0 73 53.5 126t126.5 53q76 0 128 -53.5t52 -129.5t-52 -129.5t-127 -53.5q-77 0 -129 54.5t-52 132.5zM-104 -245q0 -45 30.5 -78t75.5 -33t75.5 32t30.5 77t-30.5 77t-75.5 32q-44 0 -75 -31.5t-31 -75.5z" />
<glyph unicode="&#x326;" d="M-109 -367q62 26 81 44q28 27 28 83h-96v175h209v-127q0 -105 -35 -158q-37 -57 -143 -101z" />
<glyph unicode="&#x327;" d="M-214 -409l11 117q64 -4 94 -4q161 0 161 75q0 39 -54 56q-31 10 -103 11l52 177h134l-33 -107q171 -20 171 -147q0 -99 -101 -150q-80 -40 -188 -40q-82 0 -144 12z" />
<glyph unicode="&#x328;" d="M-170 -246q0 64 36 128.5t102 117.5h132q-57 -35 -88.5 -86.5t-31.5 -104.5q0 -42 23 -71t75 -29q23 0 47 6.5t44 17.5v-128q-73 -35 -136 -35q-51 0 -89 14.5t-63.5 40t-38 58.5t-12.5 71z" />
<glyph unicode="&#x329;" d="M-50 -75h103v-332h-103v332z" />
<glyph unicode="&#x32a;" d="M-377 -55h754v-376h-154v222h-446v-222h-154v376z" />
<glyph unicode="&#x32b;" d="M-325 -125h77q0 -116 106 -116q104 0 104 116h77q0 -116 106 -116q104 0 104 116h77q0 -89 -46 -145q-49 -60 -136 -60q-90 0 -143 68q-53 -68 -144 -68q-87 0 -136 60q-46 56 -46 145z" />
<glyph unicode="&#x32c;" d="M-316 -127h206l113 -170l110 170h204l-225 -280h-192z" />
<glyph unicode="&#x32d;" d="M-316 -407l216 280h192l225 -280h-204l-110 170l-113 -170h-206z" />
<glyph unicode="&#x32e;" d="M-296 -148h123q28 -135 167 -135q151 0 178 135h123q-31 -259 -295 -259q-265 0 -296 259z" />
<glyph unicode="&#x32f;" d="M-296 -407q31 259 296 259q264 0 295 -259h-123q-27 135 -178 135q-139 0 -167 -135h-123z" />
<glyph unicode="&#x330;" d="M-332 -407q-1 97 52 160q56 68 151 68q62 0 169 -54q59 -30 94 -30q61 0 73 87h130q-6 -228 -196 -228q-63 0 -166 56q-67 36 -98 36q-78 0 -76 -95h-133z" />
<glyph unicode="&#x331;" d="M-311 -150h624v-148h-624v148z" />
<glyph unicode="&#x332;" d="M-595 -277h1193v-130h-1193v130z" />
<glyph unicode="&#x333;" d="M-312 -116h624v-130h-624v130zM-312 -305h624v-129h-624v129z" />
<glyph unicode="&#x334;" d="M-332 225q-1 97 52 160q56 68 151 68q62 0 169 -54q59 -30 94 -30q61 0 73 87h130q-6 -228 -196 -228q-63 0 -166 56q-67 36 -98 36q-78 0 -76 -95h-133z" />
<glyph unicode="&#x335;" d="M-311 269v148h624v-148h-624z" />
<glyph unicode="&#x336;" d="M-595 279v130h1193v-130h-1193z" />
<glyph unicode="&#x337;" d="M-490 63l889 890l90 -91l-889 -890z" />
<glyph unicode="&#x338;" d="M-282 -25l425 1516h144l-424 -1516h-145z" />
<glyph unicode="&#x339;" d="M-90 -65q74 0 127 -53t53 -126q0 -78 -51.5 -132.5t-128.5 -54.5v75q44 0 74 33t30 78q0 43 -30.5 75t-73.5 32v73z" />
<glyph unicode="&#x33a;" d="M-377 -44h154v-222h446v222h154v-376h-754v376z" />
<glyph unicode="&#x33b;" d="M-188 -55h376v-376h-376v376zM-98 -145v-196h196v196h-196z" />
<glyph unicode="&#x33c;" d="M-326 -280q27 155 172 155q118 0 154 -88q36 88 155 88q145 0 172 -155h-77q-17 66 -96 66q-52 0 -83.5 -41.5t-31.5 -94.5h-78q0 53 -30 92q-33 44 -84 44q-80 0 -96 -66h-77z" />
<glyph unicode="&#x33d;" d="M-221 1226l129 129l-129 129l92 92l129 -129l129 129l92 -92l-129 -129l129 -129l-92 -92l-129 129l-129 -129z" />
<glyph unicode="&#x33e;" d="M-102 1134v90q104 4 104 59q0 23 -51 90t-51 116q0 148 198 157v-90q-104 -6 -104 -59q0 -18 51 -84.5t51 -120.5q0 -145 -198 -158z" />
<glyph unicode="&#x33f;" d="M-596 1516v129h1193v-129h-1193zM-596 1704v130h1193v-130h-1193z" />
<glyph unicode="&#x340;" d="M-376 1474h241l135 -280h-145z" />
<glyph unicode="&#x341;" d="M0 1194l135 280h241l-231 -280h-145z" />
<glyph unicode="&#x342;" d="M-335 1219q-1 97 52 160q56 68 151 68q62 0 169 -54q59 -30 94 -30q61 0 73 87h130q-6 -228 -196 -228q-63 0 -166 56q-67 36 -98 36q-78 0 -76 -95h-133z" />
<glyph unicode="&#x343;" d="M-104 1072q104 42 110 200h-94v209h193v-165q0 -134 -31 -193q-43 -81 -134 -122z" />
<glyph unicode="&#x344;" d="M-365 1230v192h173v-192h-173zM-127 1230l131 277h186l-200 -277h-117zM189 1230v192h173v-192h-173z" />
<glyph unicode="&#x345;" d="M-90 -407l40 280h100l40 -280h-180z" />
<glyph unicode="&#x346;" d="M-377 1194v376h754v-376h-154v222h-446v-222h-154z" />
<glyph unicode="&#x347;" d="M-484 -116h968v-130h-968v130zM-484 -305h968v-129h-968v129z" />
<glyph unicode="&#x348;" d="M-154 -75h103v-332h-103v332zM56 -75h103v-332h-103v332z" />
<glyph unicode="&#x349;" d="M-188 -75h349v-332h-103v229h-246v103z" />
<glyph unicode="&#x34a;" d="M-335 1219q-1 97 52 160q56 68 151 68q46 0 117 -30l61 110l90 -50l-57 -103q30 -11 52 -11q61 0 73 87h130q-6 -228 -196 -228q-49 0 -124 35l-62 -112l-90 50l59 107q-30 12 -47 12q-78 0 -76 -95h-133z" />
<glyph unicode="&#x34b;" d="M-335 1339q-1 97 52 160q56 68 151 68q62 0 169 -62q59 -30 94 -30q61 0 73 95h130q-6 -228 -196 -228q-63 0 -166 56q-67 36 -98 36q-81 0 -79 -95h-130zM-93 1114v205h188v-205h-188zM-93 1590v205h188v-205h-188z" />
<glyph unicode="&#x34c;" d="M-335 1219q-1 97 52 160q56 68 151 68q62 0 169 -62q59 -30 94 -30q61 0 73 95h130q-6 -228 -196 -228q-63 0 -166 56q-67 36 -98 36q-81 0 -79 -95h-130zM-335 1470q-1 97 52 160q56 68 151 68q62 0 169 -62q59 -30 94 -30q61 0 73 95h130q-6 -228 -196 -228 q-63 0 -166 56q-67 36 -98 36q-81 0 -79 -95h-130z" />
<glyph unicode="&#x34d;" d="M-253 -232l130 175v-123h246v123l130 -175l-130 -174v123h-246v-123z" />
<glyph unicode="&#x34e;" d="M-174 -174l174 130l175 -130h-123v-246h-103v246h-123z" />
<glyph unicode="&#x34f;" d="M-737 0v323h100v-223h223v-100h-323zM-737 575v323h100v-323h-100zM-737 1150v323h323v-100h-223v-223h-100zM-504 726q0 50 50 50t50 -50t-50 -50t-50 50zM-470 552q0 51 50 51t50 -51q0 -49 -50 -49t-50 49zM-470 900q0 49 50 49t50 -49q0 -51 -48 -51q-52 0 -52 51z M-371 402q0 51 50 51t50 -51q0 -49 -50 -49t-50 49zM-371 1045q0 54 50 54t50 -51q0 -49 -50 -49t-50 46zM-223 304q0 52 49 52q51 0 51 -48q0 -52 -51 -52q-49 0 -49 48zM-223 1146q0 51 49 51q51 0 51 -51q0 -49 -51 -49q-49 0 -49 49zM-162 0v100h323v-100h-323z M-162 1373v100h323v-100h-323zM-50 271q0 49 50 49t50 -49q0 -51 -50 -51t-50 51zM-50 1183q0 49 50 49t50 -49q0 -51 -50 -51t-50 51zM124 1146q0 51 52 51q48 0 48 -51q0 -49 -48 -49q-52 0 -52 49zM125 304q0 52 51 52q49 0 49 -52q0 -48 -49 -48q-51 0 -51 48zM272 1048 q0 51 52 51q48 0 48 -51q0 -49 -48 -49q-52 0 -52 49zM274 402q0 51 50 51t50 -51q0 -49 -50 -49t-50 49zM371 552q0 51 49 51q51 0 51 -51q0 -49 -51 -49q-49 0 -49 49zM371 900q0 49 51 49q49 0 49 -49q0 -51 -51 -51q-49 0 -49 51zM407 726q0 50 52 50q48 0 48 -50 t-48 -50q-52 0 -52 50zM413 0v100h223v223h100v-323h-323zM413 1373v100h323v-323h-100v223h-223zM636 575v323h100v-323h-100z" />
<glyph unicode="&#x350;" d="M-141 1151v114l170 93l-170 93v114l281 -181v-52z" />
<glyph unicode="&#x351;" d="M-91 1338q0 73 53 126t127 53v-73q-43 0 -73.5 -32t-30.5 -75q0 -45 30 -78t74 -33v-75q-77 0 -128.5 54.5t-51.5 132.5z" />
<glyph unicode="&#x352;" d="M-296 1410q31 259 296 259q264 0 295 -259h-123q-27 135 -178 135q-139 0 -167 -135h-123zM-93 1205v205h188v-205h-188z" />
<glyph unicode="&#x353;" d="M-221 -92l92 92l129 -129l129 129l92 -92l-129 -129l129 -129l-92 -92l-129 129l-129 -129l-92 92l129 129z" />
<glyph unicode="&#x354;" d="M-142 -187l281 181v-114l-170 -93l170 -93v-114l-281 181v52z" />
<glyph unicode="&#x355;" d="M-142 -6l281 -181v-52l-281 -181v114l170 93l-170 93v114z" />
<glyph unicode="&#x356;" d="M-281 -6l281 -181v-52l-281 -181v114l170 93l-170 93v114zM0 -353l181 281h52l181 -281h-114l-93 170l-93 -170h-114z" />
<glyph unicode="&#x357;" d="M-91 1151v75q44 0 74 33t30 78q0 43 -30.5 75t-73.5 32v73q74 0 127 -53t53 -126q0 -78 -51.5 -132.5t-128.5 -54.5z" />
<glyph unicode="&#x358;" d="M258 1286q0 35 24 59t59 24q83 0 83 -83q0 -45 -38 -70q-20 -13 -45 -13q-33 0 -58 25t-25 58z" />
<glyph unicode="&#x359;" d="M-190 -231l27 82q91 -32 133 -56q-11 109 -12 144h84q-2 -50 -14 -143q58 29 136 55l27 -82q-72 -24 -144 -32q38 -33 100 -109l-70 -49q-33 45 -79 124q-45 -86 -74 -124l-68 49q69 85 95 109q-77 15 -141 32z" />
<glyph unicode="&#x35a;" d="M-321 -244q0 73 53.5 126t123.5 53q92 0 146 -72q4 5 18 19q54 53 124 53q78 0 129.5 -53t51.5 -130q0 -76 -52 -129.5t-128 -53.5q-88 0 -143 73q-55 -73 -145 -73q-74 0 -126 54.5t-52 132.5zM-247 -246q0 -45 30.5 -78t75.5 -33q46 0 76 31.5t30 77.5t-30 77.5 t-76 31.5q-45 0 -75.5 -31t-30.5 -76zM39 -246q0 -45 30.5 -78t75.5 -33q46 0 76 31.5t30 77.5t-30 77.5t-76 31.5q-45 0 -75.5 -31t-30.5 -76z" />
<glyph unicode="&#x35b;" d="M-198 1323l95 292h103l-60 -189h256l-95 -292h-103l60 189h-256z" />
<glyph unicode="&#x35c;" d="M-173 -50h123q186 -258 670 -258q485 0 671 258h123q-240 -381 -793 -381q-554 0 -794 381z" />
<glyph unicode="&#x35d;" d="M-173 1586h123q186 -258 670 -258q485 0 671 258h123q-240 -381 -793 -381q-554 0 -794 381z" />
<glyph unicode="&#x35e;" d="M-173 1308v129h1193v-129h-1193z" />
<glyph unicode="&#x35f;" d="M-173 -169h1193v-129h-1193v129z" />
<glyph unicode="&#x360;" d="M-173 1219q35 133 146.5 222t248.5 89q129 0 406.5 -85.5t402.5 -85.5q78 0 151.5 51t97.5 125h133q-34 -132 -146.5 -221.5t-248.5 -89.5q-134 0 -403 85.5t-406 85.5q-78 0 -151.5 -51t-97.5 -125h-133z" />
<glyph unicode="&#x361;" d="M-173 1205q240 381 794 381q553 0 793 -381h-123q-186 258 -671 258q-484 0 -670 -258h-123z" />
<glyph unicode="&#x362;" d="M-173 -180h1020v123l130 -175l-130 -174v123h-1020v103z" />
<glyph unicode="&#x363;" d="M-331 663q0 108 87 167q40 27 88 40q33 9 108 18q147 18 217 42l1 31q0 74 -35 105q-46 41 -138 41q-83 0 -124 -28q-44 -30 -64 -108l-119 16q32 149 161 196q69 25 163 25q171 0 234 -76q28 -34 38 -83q6 -29 6 -112v-162q0 -141 1 -154q6 -90 38 -147h-128 q-18 37 -24 89q-124 -105 -264 -105q-105 0 -171 49q-75 55 -75 156zM-201 667q0 -114 145 -114q150 0 205 115q20 42 20 122v44q-66 -27 -199 -46q-43 -6 -119 -30q-52 -30 -52 -91z" />
<glyph unicode="&#x364;" d="M-331 827q0 167 83 269q90 112 252 112q158 0 246 -110q80 -101 80 -264v-32h-536q6 -105 58 -171q58 -73 159 -73q137 0 190 147l125 -15q-63 -232 -315 -232q-165 0 -256 103q-86 98 -86 266zM-199 902h401q-8 90 -46 136q-58 70 -151 70q-89 0 -143.5 -58t-60.5 -148z " />
<glyph unicode="&#x365;" d="M-61 474v718h122v-718h-122zM-61 1326v140h122v-140h-122z" />
<glyph unicode="&#x366;" d="M-338 833q0 199 111 295q93 80 226 80q158 0 249 -105q87 -99 87 -260q0 -251 -163 -341q-80 -44 -173 -44q-165 0 -254 107q-83 100 -83 268zM-213 833q0 -116 47 -189q55 -86 165 -86t165 89q46 73 46 190q0 112 -48 185q-56 85 -163 85q-110 0 -165 -86 q-47 -72 -47 -188z" />
<glyph unicode="&#x367;" d="M-292 747v445h122v-398q0 -95 8 -129q24 -102 140 -102q128 0 171 104q20 48 20 140v385h122v-718h-109v106q-84 -122 -228 -122q-139 0 -201 85q-26 35 -37 91q-8 39 -8 113z" />
<glyph unicode="&#x368;" d="M-313 830q0 249 156 335q78 43 171 43q243 0 287 -227l-119 -18q-34 145 -163 145q-207 0 -207 -274q0 -276 200 -276q155 0 180 179l120 -16q-19 -121 -98.5 -192t-200.5 -71q-161 0 -247 108q-79 98 -79 264z" />
<glyph unicode="&#x369;" d="M-312 832q0 235 144 329q72 47 160 47q126 0 198 -99v356h121v-991h-113v90q-68 -107 -201 -107q-185 0 -269 180q-40 86 -40 195zM-187 832q0 -108 43 -183q52 -92 153 -92q99 0 150 87q41 72 41 178q0 115 -40 190q-51 95 -157 95q-102 0 -151 -92q-39 -71 -39 -183z " />
<glyph unicode="&#x36a;" d="M-292 474v992h122v-356q85 99 215 99q169 0 223 -119q25 -55 25 -161v-455h-122v455q0 175 -151 175q-126 0 -170 -104q-20 -47 -20 -133v-393h-122z" />
<glyph unicode="&#x36b;" d="M-482 474v718h109v-101q75 117 218 117q79 0 130 -33t72 -93q85 126 222 126q222 0 222 -241v-493h-121v452q0 122 -55 157q-32 20 -73 20q-176 0 -176 -212v-417h-121v466q0 163 -127 163q-119 0 -159 -107q-19 -50 -19 -150v-372h-122z" />
<glyph unicode="&#x36c;" d="M-190 474v718h110v-109q69 125 155 125q63 0 126 -39l-42 -113q-44 26 -90 26q-89 0 -117 -90q-20 -64 -20 -142v-376h-122z" />
<glyph unicode="&#x36d;" d="M-175 1097v95h89v178l121 73v-251h123v-95h-123v-420q0 -52 10 -71q14 -28 59 -28q19 0 54 5l17 -108q-52 -11 -92 -11q-121 0 -154 76q-15 34 -15 144v413h-89z" />
<glyph unicode="&#x36e;" d="M-329 1192h128l154 -430q25 -70 46 -145q14 48 46 137l159 438h125l-272 -718h-113z" />
<glyph unicode="&#x36f;" d="M-336 474l262 373l-242 345h152l110 -168q25 -39 50 -81q18 27 55 79l121 170h145l-248 -338l267 -380h-149l-187 283l-189 -283h-147z" />
<glyph unicode="&#x374;" horiz-adv-x="682" d="M222 1194l133 280h236l-220 -280h-149z" />
<glyph unicode="&#x375;" horiz-adv-x="682" d="M89 -407l231 280h145l-135 -280h-241z" />
<glyph unicode="&#x37a;" horiz-adv-x="682" d="M250 -407l40 280h100l40 -280h-180z" />
<glyph unicode="&#x37b;" horiz-adv-x="1024" d="M19 366l177 23q37 -265 267 -265q296 0 296 408q0 406 -306 406q-192 0 -242 -215l-175 27q65 336 424 336q144 0 254 -64q117 -68 173 -194q57 -129 57 -301q0 -244 -117 -391q-128 -160 -366 -160q-178 0 -296 106t-146 284z" />
<glyph unicode="&#x37c;" horiz-adv-x="1023" d="M110 336v1057q0 364 406 364q407 0 407 -364v-232h-283v232q0 117 -123 118q-124 0 -124 -118v-1057q0 -117 123 -117q124 0 124 117v233h283v-233q0 -363 -407 -363q-406 0 -406 363zM350 1051v242h243v-242h-243z" />
<glyph unicode="&#x37d;" horiz-adv-x="1024" d="M19 366l177 23q37 -265 267 -265q296 0 296 408q0 406 -306 406q-192 0 -242 -215l-175 27q65 336 424 336q144 0 254 -64q117 -68 173 -194q57 -129 57 -301q0 -244 -117 -391q-128 -160 -366 -160q-178 0 -296 106t-146 284zM250 1051v242h243v-242h-243z" />
<glyph unicode="&#x384;" horiz-adv-x="756" d="M130 1805l274 253h222v-76l-274 -177h-222z" />
<glyph unicode="&#x385;" horiz-adv-x="682" d="M-22 1230v192h173v-192h-173zM216 1230l131 277h186l-200 -277h-117zM532 1230v192h173v-192h-173z" />
<glyph unicode="&#x386;" horiz-adv-x="1367" d="M-1 0l563 1466h209l600 -1466h-221l-171 444h-613l-161 -444h-206zM54 1186l133 280h236l-220 -280h-149zM422 602h497l-153 406q-73 194 -104 304q-28 -141 -79 -280z" />
<glyph unicode="&#x387;" horiz-adv-x="569" d="M185 857v205h205v-205h-205z" />
<glyph unicode="&#x388;" horiz-adv-x="1606" d="M-89 1186l133 280h236l-220 -280h-149zM401 0v1466h1060v-173h-866v-449h811v-172h-811v-499h900v-173h-1094z" />
<glyph unicode="&#x389;" horiz-adv-x="1716" d="M-88 1186l133 280h236l-220 -280h-149zM360 0v1466h194v-602h762v602h194v-1466h-194v691h-762v-691h-194z" />
<glyph unicode="&#x38a;" horiz-adv-x="786" d="M-88 1186l133 280h236l-220 -280h-149zM360 0v1466h194v-1466h-194z" />
<glyph unicode="&#x38c;" horiz-adv-x="1586" d="M-89 1186l133 280h236l-220 -280h-149zM88 714q0 366 197 572t505 206q309 0 504.5 -209.5t195.5 -551.5q0 -340 -197 -548t-504 -208q-221 0 -387.5 110.5t-240 284t-73.5 344.5zM288 711q0 -251 136 -410.5t364 -159.5q224 0 363 157.5t139 433.5q0 280 -140 436.5 t-359 156.5q-215 0 -359 -147t-144 -467z" />
<glyph unicode="&#x38e;" horiz-adv-x="1752" d="M-89 1186l133 280h236l-220 -280h-149zM380 1466h236l289 -442q85 -131 149 -248q66 115 160 259l284 431h226l-585 -845v-621h-194v621z" />
<glyph unicode="&#x38f;" horiz-adv-x="1541" d="M-89 1186l133 280h236l-220 -280h-149zM107 0v173h320q-304 254 -304 620q0 199 80 357t226 249.5t351 91.5q203 0 338.5 -84t223 -241t87.5 -373q0 -366 -304 -620h320v-173h-570v162q356 166 356 601q0 245 -125.5 403.5t-326.5 158.5q-207 0 -331 -159.5t-124 -392.5 q0 -441 354 -611v-162h-571z" />
<glyph unicode="&#x390;" horiz-adv-x="455" d="M-136 1230v192h173v-192h-173zM102 1230l131 277h186l-200 -277h-117zM137 0v1062h180v-1062h-180zM418 1230v192h173v-192h-173z" />
<glyph unicode="&#x391;" horiz-adv-x="1051" d="M40 0l92 693l200 1269h388l199 -1266l92 -696h-286l-55 416h-289l-56 -416h-285zM417 696h216l-108 816z" />
<glyph unicode="&#x392;" horiz-adv-x="1043" d="M130 0v1962l436 -1q377 0 377 -412v-295q0 -193 -155 -273q155 -80 155 -273v-296q0 -411 -377 -411q-6 0 -18 -1h-418zM413 279h124q123 0 123 133v296q0 94 -77 124q-22 9 -81 9h-89v-562zM413 1121h89q59 0 81 8q77 31 77 125v295q0 134 -123 134h-124v-562z" />
<glyph unicode="&#x393;" horiz-adv-x="1128" d="M164 0v1466h916v-173h-722v-1293h-194z" />
<glyph unicode="&#x394;" horiz-adv-x="1368" d="M-2 0l563 1466h209l600 -1466h-1372zM267 173h815l-317 835q-71 188 -104 304q-27 -136 -79 -280z" />
<glyph unicode="&#x395;" horiz-adv-x="944" d="M130 0v1962h734v-279h-451v-562h388v-280h-388v-562h451v-279h-734z" />
<glyph unicode="&#x396;" horiz-adv-x="880" d="M80 0v170l384 1513h-371v279h690v-170l-384 -1513h401v-279h-720z" />
<glyph unicode="&#x397;" horiz-adv-x="1073" d="M130 0v1962h283v-841h247v841h283v-1962h-283v841h-247v-841h-283z" />
<glyph unicode="&#x398;" horiz-adv-x="1593" d="M96 714q0 366 197 572t505 206q309 0 504.5 -209.5t195.5 -551.5q0 -340 -197 -548t-504 -208q-221 0 -387.5 110.5t-240 284t-73.5 344.5zM296 711q0 -251 136 -410.5t364 -159.5q224 0 363 157.5t139 433.5q0 280 -140 436.5t-359 156.5q-215 0 -359 -147t-144 -467z M507 647v172h580v-172h-580z" />
<glyph unicode="&#x399;" horiz-adv-x="553" d="M135 0v1962h283v-1962h-283z" />
<glyph unicode="&#x39a;" horiz-adv-x="1057" d="M130 0v1962h283v-873l301 873h303l-374 -981l374 -981h-303l-301 872v-872h-283z" />
<glyph unicode="&#x39b;" horiz-adv-x="1368" d="M11 0l573 1466h200l568 -1466h-211l-381 1064q-50 140 -77 241q-33 -121 -78 -241l-396 -1064h-198z" />
<glyph unicode="&#x39c;" horiz-adv-x="1418" d="M130 0v1962h283l333 -1344l329 1344h283v-1962h-271v1101l-242 -1101h-192l-249 1101v-1101h-274z" />
<glyph unicode="&#x39d;" horiz-adv-x="1073" d="M130 0v1962h283l268 -1138v1138h262v-1962h-283l-258 1102v-1102h-272z" />
<glyph unicode="&#x39e;" horiz-adv-x="1331" d="M109 0v173h1113v-173h-1113zM136 1293v173h1059v-173h-1059zM230 647v172h871v-172h-871z" />
<glyph unicode="&#x39f;" horiz-adv-x="1033" d="M110 381v1200q0 412 406 412q407 0 407 -412v-1200q0 -412 -407 -413q-406 0 -406 413zM393 381q0 -133 123 -133q124 0 124 133v1200q0 132 -123 133h-2q-122 0 -122 -133v-1200z" />
<glyph unicode="&#x3a0;" horiz-adv-x="1479" d="M164 0v1466h1150v-1466h-194v1293h-762v-1293h-194z" />
<glyph unicode="&#x3a1;" horiz-adv-x="999" d="M130 0v1962l412 -1q377 0 377 -412v-295q0 -304 -271 -392q-65 -21 -189 -21h-46v-841h-283zM413 1121h65q59 0 81 8q77 31 77 125v295q0 134 -123 134h-100v-562z" />
<glyph unicode="&#x3a3;" horiz-adv-x="1266" d="M148 0v202l479 559l-479 510v195h997v-173h-787l500 -532l-500 -588h828v-173h-1038z" />
<glyph unicode="&#x3a4;" horiz-adv-x="913" d="M50 1683v279h813v-279h-265v-1683h-283v1683h-265z" />
<glyph unicode="&#x3a5;" horiz-adv-x="1066" d="M40 1962h300l193 -765l193 765h300l-343 -1113l-8 -24v-825h-283v825l-9 24z" />
<glyph unicode="&#x3a6;" horiz-adv-x="1634" d="M85 740q0 163 75 295t212 208t348 86v181h194v-181q308 -19 471.5 -180t163.5 -400q0 -268 -177 -423t-458 -165v-214h-194v214q-289 11 -462 170.5t-173 408.5zM287 741q0 -202 124 -307t309 -108v835q-206 -6 -319.5 -113t-113.5 -307zM914 326q205 6 321 115t116 303 q0 184 -111 300.5t-326 116.5v-835z" />
<glyph unicode="&#x3a7;" horiz-adv-x="1017" d="M40 0l326 981l-326 981h285l184 -552l183 552h285l-326 -981l326 -981h-285l-183 552l-184 -552h-285z" />
<glyph unicode="&#x3a8;" horiz-adv-x="1711" d="M127 1035v431h194v-395q0 -241 107 -337.5t330 -114.5v847h194v-847q210 13 323.5 116t113.5 360v371h195v-414q0 -589 -632 -599v-453h-194v453q-330 6 -480.5 160.5t-150.5 421.5z" />
<glyph unicode="&#x3a9;" horiz-adv-x="1531" d="M97 0v173h320q-304 254 -304 620q0 199 80 357t226 249.5t351 91.5q203 0 338.5 -84t223 -241t87.5 -373q0 -366 -304 -620h320v-173h-570v162q356 166 356 601q0 245 -125.5 403.5t-326.5 158.5q-207 0 -331 -159.5t-124 -392.5q0 -441 354 -611v-162h-571z" />
<glyph unicode="&#x3aa;" horiz-adv-x="553" d="M73 2092v242h242v-242h-242zM135 0v1962h283v-1962h-283zM469 2092v242h243v-242h-243z" />
<glyph unicode="&#x3ab;" horiz-adv-x="1066" d="M40 1962h300l193 -765l193 765h300l-343 -1113l-8 -24v-825h-283v825l-9 24zM466 2092v242h242v-242h-242zM862 2092v242h243v-242h-243z" />
<glyph unicode="&#x3ac;" horiz-adv-x="1184" d="M72 533q0 264 122.5 408.5t324.5 144.5q125 0 204 -50.5t147 -153.5q7 35 53 180h184q-70 -220 -129 -531q70 -386 129 -531h-179q-43 100 -65 194q-83 -218 -347 -218q-200 0 -322 150t-122 407zM270 533q0 -191 71 -300t198 -109q124 0 207 107.5t83 309.5 q0 196 -77.5 296t-202.5 100q-129 0 -204 -104t-75 -300zM374 1805l274 253h222v-76l-274 -177h-222z" />
<glyph unicode="&#x3ad;" horiz-adv-x="913" d="M98 292q0 181 176 257q-147 83 -147 229q0 119 87 213.5t267 94.5q206 0 348 -144l-129 -104q-123 93 -230 93q-88 0 -128.5 -47t-40.5 -101q0 -70 60 -116.5t176 -46.5q15 0 50 1v-151q-32 1 -48 1q-143 0 -198.5 -55t-55.5 -124q0 -71 56 -119.5t133 -48.5 q141 0 264 131l129 -109q-160 -170 -398 -170q-187 0 -279 95t-92 221zM274 1805l274 253h222v-76l-274 -177h-222z" />
<glyph unicode="&#x3ae;" horiz-adv-x="1139" d="M139 0v1062h162v-151q117 175 338 175q130 0 218 -56t116.5 -138.5t28.5 -238.5v-1060h-180v1053q0 148 -52 216t-171 68q-117 0 -198.5 -75t-81.5 -275v-580h-180zM374 1805l274 253h222v-76l-274 -177h-222z" />
<glyph unicode="&#x3af;" horiz-adv-x="455" d="M7 1805l274 253h222v-76l-274 -177h-222zM137 0v1062h180v-1062h-180z" />
<glyph unicode="&#x3b0;" horiz-adv-x="1120" d="M136 433v629h180v-629q0 -163 73 -236t171 -73q81 0 141 46t83 106t23 171v615h179v-622q0 -237 -118 -350.5t-311 -113.5q-149 0 -246.5 66.5t-136 153.5t-38.5 237zM198 1230v192h173v-192h-173zM436 1230l131 277h186l-200 -277h-117zM752 1230v192h173v-192h-173z " />
<glyph unicode="&#x3b1;" horiz-adv-x="1184" d="M72 533q0 264 122.5 408.5t324.5 144.5q125 0 204 -50.5t147 -153.5q7 35 53 180h184q-70 -220 -129 -531q70 -386 129 -531h-179q-43 100 -65 194q-83 -218 -347 -218q-200 0 -322 150t-122 407zM270 533q0 -191 71 -300t198 -109q124 0 207 107.5t83 309.5 q0 196 -77.5 296t-202.5 100q-129 0 -204 -104t-75 -300z" />
<glyph unicode="&#x3b2;" horiz-adv-x="1178" d="M140 -407v1413q0 169 45.5 264.5t156.5 158t247 62.5q201 0 304.5 -115.5t103.5 -252.5q0 -134 -83.5 -216t-191.5 -101q174 -17 268.5 -125t94.5 -266q0 -170 -111.5 -304.5t-322.5 -134.5q-216 0 -332 159v-542h-179zM319 572q0 -172 24 -253t103 -146t182 -65 q125 0 197.5 85.5t72.5 211.5q0 104 -53.5 186.5t-132 112t-208.5 29.5h-26v131q184 0 268 64t84 185q0 98 -71.5 164t-178.5 66q-93 0 -161.5 -49t-84 -109t-15.5 -210v-403z" />
<glyph unicode="&#x3b3;" horiz-adv-x="1024" d="M25 1062h189l297 -837l304 837h184l-397 -1062v-407h-183v407z" />
<glyph unicode="&#x3b4;" horiz-adv-x="1140" d="M72 516q0 256 131 390.5t313 141.5q-93 65 -342 288v130h801v-146h-560q100 -102 313 -249q190 -132 265 -245t75 -306q0 -259 -139.5 -401.5t-363.5 -142.5q-245 0 -369 160t-124 380zM256 514q0 -170 89.5 -280t228.5 -110q122 0 215.5 94t93.5 297q0 188 -89 291 t-224 103q-149 0 -231.5 -116t-82.5 -279z" />
<glyph unicode="&#x3b5;" horiz-adv-x="913" d="M98 292q0 181 176 257q-147 83 -147 229q0 119 87 213.5t267 94.5q206 0 348 -144l-129 -104q-123 93 -230 93q-88 0 -128.5 -47t-40.5 -101q0 -70 60 -116.5t176 -46.5q15 0 50 1v-151q-32 1 -48 1q-143 0 -198.5 -55t-55.5 -124q0 -71 56 -119.5t133 -48.5 q141 0 264 131l129 -109q-160 -170 -398 -170q-187 0 -279 95t-92 221z" />
<glyph unicode="&#x3b6;" horiz-adv-x="903" d="M72 421q0 237 171 488.5t407 410.5h-416v146h652v-122q-269 -166 -451.5 -434.5t-182.5 -496.5q0 -120 54 -178t175 -68q156 -14 221.5 -34.5t114.5 -84t49 -152.5q0 -97 -60 -179t-138.5 -115t-191.5 -33l49 166q168 19 168 141q0 41 -27 72t-66 40t-148 13 q-151 4 -227.5 60.5t-114.5 149.5t-38 210z" />
<glyph unicode="&#x3b7;" horiz-adv-x="1139" d="M139 0v1062h162v-151q117 175 338 175q130 0 218 -56t116.5 -138.5t28.5 -238.5v-1060h-180v1053q0 148 -52 216t-171 68q-117 0 -198.5 -75t-81.5 -275v-580h-180z" />
<glyph unicode="&#x3b8;" horiz-adv-x="1139" d="M92 733q0 758 478 758t478 -758q0 -757 -478 -757t-478 757zM278 661q11 -537 292 -537q282 0 292 537h-584zM278 806h584q-10 313 -90 425t-204 112q-279 0 -290 -537z" />
<glyph unicode="&#x3b9;" horiz-adv-x="455" d="M137 0v1062h180v-1062h-180z" />
<glyph unicode="&#x3ba;" horiz-adv-x="1024" d="M134 0v1062h179v-417l431 417h238l-475 -441l516 -621h-230l-414 500l-66 -61v-439h-179z" />
<glyph unicode="&#x3bb;" horiz-adv-x="1024" d="M24 0l394 1042l-158 424h190l548 -1466h-190l-297 794l-297 -794h-190z" />
<glyph unicode="&#x3bc;" horiz-adv-x="1063" d="M130 -327v1962h283v-1255q0 -132 123 -132q124 0 124 133v1254h283v-1254q0 -373 -319 -408q-19 -2 -37 -2q-93 0 -174 53v-351h-283z" />
<glyph unicode="&#x3bd;" horiz-adv-x="1051" d="M40 1729h286l199 -1332l200 1332h286l-92 -613l-199 -1116h-388l-200 1118z" />
<glyph unicode="&#x3be;" horiz-adv-x="917" d="M92 420q0 153 91.5 275t233.5 183q-142 18 -206.5 107.5t-64.5 182.5q0 130 114.5 226.5t333.5 96.5h178v-149h-147q-164 0 -237.5 -48.5t-73.5 -138.5q0 -172 299 -172h147v-149q-132 0 -230 -39t-176.5 -140t-78.5 -229q0 -96 56.5 -171t242.5 -96q120 -14 176 -44.5 t93 -92.5t37 -134q0 -132 -109 -224.5t-294 -94.5l46 167q99 7 140.5 51t41.5 90q0 102 -171 121q-442 48 -442 422z" />
<glyph unicode="&#x3bf;" horiz-adv-x="1033" d="M110 336v1057q0 364 406 364q407 0 407 -364v-1057q0 -363 -407 -363q-406 0 -406 363zM393 336q0 -117 123 -117q124 0 124 117v1057q0 117 -123 118q-124 0 -124 -118v-1057z" />
<glyph unicode="&#x3c0;" horiz-adv-x="1413" d="M45 916v146h1324v-146h-242v-916h-180v916h-442v-916h-180v916h-280z" />
<glyph unicode="&#x3c1;" horiz-adv-x="1165" d="M131 -407v901q0 302 119 447t346 145q226 0 361.5 -154t135.5 -400q0 -247 -129.5 -401.5t-340.5 -154.5q-197 0 -312 125v-508h-180zM313 517q0 -197 78 -295t212 -98q135 0 220 101.5t85 296.5q0 222 -91 318.5t-215 96.5q-131 0 -210 -100.5t-79 -319.5z" />
<glyph unicode="&#x3c2;" horiz-adv-x="987" d="M86 489q0 241 172.5 419t464.5 178q123 0 243 -34l-42 -150q-112 35 -224 35q-201 0 -320 -124.5t-119 -292.5q0 -116 65.5 -205.5t259.5 -140.5q139 -37 201 -69.5t97 -90t35 -132.5q0 -137 -111 -225t-277 -88q-67 0 -152 14l44 165q58 -12 101 -12q96 0 151 41.5 t55 100.5q0 54 -39.5 82.5t-165.5 55.5q-222 47 -330.5 173t-108.5 300z" />
<glyph unicode="&#x3c3;" horiz-adv-x="1264" d="M68 531q0 283 145.5 419t350.5 136q75 0 170 -24h485v-146h-289q133 -124 133 -386q0 -285 -145.5 -419.5t-353.5 -134.5q-216 0 -356 140t-140 415zM253 530q0 -202 86.5 -304t224.5 -102q145 0 230.5 106.5t85.5 300.5q0 177 -78.5 291.5t-240.5 114.5 q-131 0 -219.5 -102t-88.5 -305z" />
<glyph unicode="&#x3c4;" horiz-adv-x="809" d="M46 916v146h716v-146h-256v-916h-180v916h-280z" />
<glyph unicode="&#x3c5;" horiz-adv-x="1120" d="M136 433v629h180v-629q0 -163 73 -236t171 -73q81 0 141 46t83 106t23 171v615h179v-622q0 -237 -118 -350.5t-311 -113.5q-149 0 -246.5 66.5t-136 153.5t-38.5 237z" />
<glyph unicode="&#x3c6;" horiz-adv-x="1328" d="M72 557q0 237 129.5 383.5t297.5 142.5l-35 -156q-207 -69 -207 -362q0 -155 81.5 -276.5t243.5 -156.5v660q0 106 15 163.5t68.5 94t145.5 36.5q143 0 232.5 -58t151.5 -183t62 -269q0 -120 -49 -240.5t-159 -221.5t-289 -139v-382h-178v382q-186 0 -348 163t-162 419z M760 140q127 23 217.5 142t90.5 312q0 179 -66 261t-140 82q-53 0 -77.5 -36.5t-24.5 -160.5v-600z" />
<glyph unicode="&#x3c7;" horiz-adv-x="1075" d="M17 -407l409 739l-378 730h196l292 -588l302 588h198l-390 -724l410 -745h-205l-315 613l-318 -613h-201z" />
<glyph unicode="&#x3c8;" horiz-adv-x="1460" d="M122 544v518h179v-524q0 -147 24 -224t101.5 -128.5t213.5 -58.5v935h180v-935q131 7 208 56t103.5 125.5t26.5 229.5v524h179v-518q0 -208 -38.5 -309t-155.5 -176.5t-323 -82.5v-383h-180v383q-133 4 -233 38t-169.5 108.5t-92.5 156.5t-23 265z" />
<glyph unicode="&#x3c9;" horiz-adv-x="1599" d="M87 517q0 264 158 545h174q-149 -329 -149 -556q0 -175 64 -282t163 -107q64 0 120 50t74.5 120t18.5 196v311h179v-311q0 -123 18.5 -195t75 -121.5t120.5 -49.5q98 0 162 106.5t64 282.5q0 227 -148 556h173q158 -281 158 -545q0 -265 -109.5 -403t-279.5 -138 q-226 0 -323 239q-98 -239 -324 -239q-179 0 -284 145t-105 396z" />
<glyph unicode="&#x3ca;" horiz-adv-x="455" d="M22 1806v242h242v-242h-242zM137 0v1062h180v-1062h-180zM418 1806v242h243v-242h-243z" />
<glyph unicode="&#x3cb;" horiz-adv-x="1120" d="M136 433v629h180v-629q0 -163 73 -236t171 -73q81 0 141 46t83 106t23 171v615h179v-622q0 -237 -118 -350.5t-311 -113.5q-149 0 -246.5 66.5t-136 153.5t-38.5 237zM370 1806v242h242v-242h-242zM766 1806v242h243v-242h-243z" />
<glyph unicode="&#x3cc;" horiz-adv-x="1033" d="M110 336v1057q0 364 406 364q407 0 407 -364v-1057q0 -363 -407 -363q-406 0 -406 363zM374 1805l274 253h222v-76l-274 -177h-222zM393 336q0 -117 123 -117q124 0 124 117v1057q0 117 -123 118q-124 0 -124 -118v-1057z" />
<glyph unicode="&#x3cd;" horiz-adv-x="1120" d="M136 433v629h180v-629q0 -163 73 -236t171 -73q81 0 141 46t83 106t23 171v615h179v-622q0 -237 -118 -350.5t-311 -113.5q-149 0 -246.5 66.5t-136 153.5t-38.5 237zM350 1805l274 253h222v-76l-274 -177h-222z" />
<glyph unicode="&#x3ce;" horiz-adv-x="1599" d="M87 517q0 264 158 545h174q-149 -329 -149 -556q0 -175 64 -282t163 -107q64 0 120 50t74.5 120t18.5 196v311h179v-311q0 -123 18.5 -195t75 -121.5t120.5 -49.5q98 0 162 106.5t64 282.5q0 227 -148 556h173q158 -281 158 -545q0 -265 -109.5 -403t-279.5 -138 q-226 0 -323 239q-98 -239 -324 -239q-179 0 -284 145t-105 396zM610 1805l274 253h222v-76l-274 -177h-222z" />
<glyph unicode="&#x3d0;" horiz-adv-x="1178" d="M112 733q0 758 499 758q135 0 233 -75q102 -79 102 -196q0 -123 -110 -188q-89 -53 -215 -53q-154 0 -298 75q-25 -106 -25 -248q0 -42 1 -68q117 108 312 108q218 0 339 -133q109 -119 109 -302q0 -181 -115 -302q-127 -133 -346 -133q-486 0 -486 757zM348 411 q0 -114 52 -189q68 -97 211 -97t211 97q52 75 52 189t-52 189q-68 97 -211 97t-211 -97q-52 -75 -52 -189zM373 1200q124 -68 246 -68q160 0 160 98q0 51 -55 84q-50 29 -115 29q-155 0 -236 -143z" />
<glyph unicode="&#x3d1;" horiz-adv-x="1120" d="M0 666q117 63 201 63q102 0 158.5 -51.5t56.5 -140.5q0 -29 -23 -129q-26 -112 -26 -148q0 -59 36.5 -94t98.5 -35q126 0 229 155.5t125 463.5q-282 0 -447 108.5t-165 292.5q0 151 104 245.5t275 94.5q193 0 303 -150.5t110 -435.5h84v-155h-84q-26 -373 -179.5 -574 t-354.5 -201q-149 0 -234.5 75.5t-85.5 209.5q0 44 30 167q20 82 20 101q0 45 -58 45q-33 0 -133 -51zM428 1153q0 -114 113.5 -181t314.5 -67q0 207 -66 322.5t-167 115.5q-88 0 -141.5 -52t-53.5 -138z" />
<glyph unicode="&#x3d2;" horiz-adv-x="1582" d="M20 1466h226l294 -431q88 -134 160 -259q68 122 149 248l170 264q69 107 114 149q61 55 133 55q131 0 300 -126l-89 -132q-106 72 -167 72q-38 0 -69 -30q-19 -19 -61 -82l-381 -573v-621h-194v621z" />
<glyph unicode="&#x3d3;" horiz-adv-x="1962" d="M0 1194l133 280h236l-220 -280h-149zM400 1466h226l294 -431q88 -134 160 -259q68 122 149 248l170 264q69 107 114 149q61 55 133 55q131 0 300 -126l-89 -132q-106 72 -167 72q-38 0 -69 -30q-19 -19 -61 -82l-381 -573v-621h-194v621z" />
<glyph unicode="&#x3d4;" horiz-adv-x="1582" d="M20 1466h226l294 -431q88 -134 160 -259q68 122 149 248l170 264q69 107 114 149q61 55 133 55q131 0 300 -126l-89 -132q-106 72 -167 72q-38 0 -69 -30q-19 -19 -61 -82l-381 -573v-621h-194v621zM490 2168v242h242v-242h-242zM886 2168v242h243v-242h-243z" />
<glyph unicode="&#x3d5;" horiz-adv-x="1147" d="M76 531q0 222 101 366q107 152 307 182v387h180v-386q192 -28 302 -177q105 -143 105 -357q0 -232 -100 -379q-107 -157 -307 -185v-389h-180v390q-201 29 -308 182q-100 144 -100 366zM261 531q0 -142 50 -243q57 -117 173 -151v787q-116 -33 -173 -150 q-50 -101 -50 -243zM664 135q114 32 172 153q50 103 50 249q0 140 -52 241q-59 116 -170 148v-791z" />
<glyph unicode="&#x3d6;" horiz-adv-x="1124" d="M0 905v158h1124v-158h-162v-905h-189v905h-426v-905h-188v905h-159z" />
<glyph unicode="&#x3d7;" horiz-adv-x="1231" d="M68 0l228 281v426q0 107 -10 143q-22 78 -99 78q-31 0 -85 -14l-34 153q68 19 141 19q150 0 216 -100q51 -78 51 -273v-210l454 559h233l-228 -281v-426q0 -107 10 -143q22 -78 99 -78q46 0 119 21v-213q0 -195 -51 -273q-66 -100 -216 -100q-73 0 -141 19l34 153 q54 -14 85 -14q77 0 99 78q10 35 10 141v32q-120 12 -177 98q-51 78 -51 273v210l-454 -559h-233z" />
<glyph unicode="&#x3d8;" horiz-adv-x="1593" d="M99 714q0 341 178 553q190 225 524 225q200 0 362 -94q166 -97 253 -273q85 -172 85 -394q0 -213 -81 -382q-91 -188 -264 -283q-124 -68 -259 -85v-388h-194v388q-150 18 -273 94q-161 99 -248 275q-83 167 -83 364zM299 711q0 -241 127 -399q137 -171 373 -171 q246 0 381 177q121 160 121 414q0 370 -237 520q-116 73 -262 73q-259 0 -389 -184q-114 -160 -114 -430z" />
<glyph unicode="&#x3d9;" horiz-adv-x="1139" d="M68 531q0 295 164 437q137 118 334 118q235 0 369 -155q128 -147 128 -385q0 -372 -240 -505q-79 -44 -167 -58v-390h-180v389q-204 30 -311 188q-97 144 -97 361zM253 531q0 -170 70 -279q82 -128 243 -128q162 0 244 131q68 109 68 282q0 167 -71 274q-82 126 -241 126 q-161 0 -244 -128q-69 -107 -69 -278z" />
<glyph unicode="&#x3da;" horiz-adv-x="1479" d="M112 878q0 302 197 466q178 148 468 148q219 0 379 -114q137 -97 199 -247l-167 -54q-41 105 -142 180q-119 87 -269 87q-206 0 -337 -116q-143 -126 -143 -345q0 -197 129.5 -320t326.5 -123q66 0 107 8v-448h-180v294q-260 16 -414 172t-154 412z" />
<glyph unicode="&#x3db;" horiz-adv-x="1024" d="M80 527q0 367 231 495q116 64 253 64q359 0 424 -336l-175 -27q-50 215 -242 215q-306 0 -306 -406q0 -164 86 -245q77 -71 250 -101q146 -25 212 -65q119 -72 119 -225q0 -327 -417 -327q-152 0 -311 34v181q172 -67 318 -67q218 0 218 153q0 88 -64 122q-32 17 -141 33 q-455 67 -455 502z" />
</font>
</defs>
</svg>
